Maitree-300.ufo
<glyph name="exclam" format="1">
  <advance width="305"/>
  <unicode hex="0021"/>
  <note>
	exclam
  </note>
  <outline>
    <contour>
      <point x="172" y="160" type="line"/>
      <point x="187" y="706" type="line"/>
      <point x="117" y="706" type="line"/>
      <point x="133" y="160" type="line"/>
    </contour>
    <contour>
      <point x="174" y="-11"/>
      <point x="193" y="5"/>
      <point x="193" y="30" type="curve" smooth="yes"/>
      <point x="193" y="55"/>
      <point x="174" y="71"/>
      <point x="152" y="71" type="curve" smooth="yes"/>
      <point x="130" y="71"/>
      <point x="111" y="55"/>
      <point x="111" y="30" type="curve" smooth="yes"/>
      <point x="111" y="5"/>
      <point x="130" y="-11"/>
      <point x="152" y="-11" type="curve" smooth="yes"/>
    </contour>
  </outline>
</glyph>
<glyph name="quotedbl" format="1">
  <advance width="299"/>
  <unicode hex="0022"/>
  <note>
	quotedbl
  </note>
  <outline>
    <contour>
      <point x="206" y="483" type="line"/>
      <point x="259" y="701" type="line"/>
      <point x="202" y="706" type="line"/>
      <point x="167" y="483" type="line"/>
    </contour>
    <contour>
      <point x="80" y="483" type="line"/>
      <point x="133" y="701" type="line"/>
      <point x="76" y="706" type="line"/>
      <point x="41" y="483" type="line"/>
    </contour>
  </outline>
</glyph>
<glyph name="numbersign" format="1">
  <advance width="596"/>
  <unicode hex="0023"/>
  <note>
	numbersign
  </note>
  <outline>
    <contour>
      <point x="158" y="0" type="line"/>
      <point x="190" y="172" type="line"/>
      <point x="341" y="172" type="line"/>
      <point x="308" y="0" type="line"/>
      <point x="360" y="0" type="line"/>
      <point x="392" y="172" type="line"/>
      <point x="512" y="172" type="line"/>
      <point x="512" y="214" type="line"/>
      <point x="400" y="214" type="line"/>
      <point x="434" y="396" type="line"/>
      <point x="550" y="396" type="line"/>
      <point x="550" y="438" type="line"/>
      <point x="442" y="438" type="line"/>
      <point x="469" y="582" type="line"/>
      <point x="418" y="582" type="line"/>
      <point x="391" y="438" type="line"/>
      <point x="240" y="438" type="line"/>
      <point x="267" y="582" type="line"/>
      <point x="216" y="582" type="line"/>
      <point x="189" y="438" type="line"/>
      <point x="71" y="438" type="line"/>
      <point x="71" y="396" type="line"/>
      <point x="181" y="396" type="line"/>
      <point x="146" y="214" type="line"/>
      <point x="31" y="214" type="line"/>
      <point x="31" y="172" type="line"/>
      <point x="139" y="172" type="line"/>
      <point x="106" y="0" type="line"/>
    </contour>
    <contour>
      <point x="232" y="396" type="line"/>
      <point x="383" y="396" type="line"/>
      <point x="348" y="214" type="line"/>
      <point x="198" y="214" type="line"/>
    </contour>
  </outline>
</glyph>
<glyph name="dollar" format="1">
  <advance width="683"/>
  <unicode hex="0024"/>
  <note>
	dollar
  </note>
  <outline>
    <contour>
      <point x="320" y="-90" type="line"/>
      <point x="320" y="-11" type="line"/>
      <point x="444" y="-8"/>
      <point x="552" y="39"/>
      <point x="552" y="160" type="curve" smooth="yes"/>
      <point x="552" y="270"/>
      <point x="479" y="316"/>
      <point x="344" y="370" type="curve" smooth="yes"/>
      <point x="216" y="421"/>
      <point x="140" y="452"/>
      <point x="140" y="538" type="curve" smooth="yes"/>
      <point x="140" y="622"/>
      <point x="219" y="653"/>
      <point x="305" y="653" type="curve" smooth="yes"/>
      <point x="365" y="653"/>
      <point x="429" y="638"/>
      <point x="472" y="604" type="curve"/>
      <point x="484" y="540" type="line" smooth="yes"/>
      <point x="489" y="516"/>
      <point x="495" y="508"/>
      <point x="508" y="508" type="curve" smooth="yes"/>
      <point x="515" y="508"/>
      <point x="519" y="513"/>
      <point x="519" y="520" type="curve" smooth="yes"/>
      <point x="519" y="626" type="line"/>
      <point x="475" y="663"/>
      <point x="404" y="688"/>
      <point x="335" y="695" type="curve"/>
      <point x="335" y="777" type="line"/>
      <point x="288" y="777" type="line"/>
      <point x="288" y="696" type="line"/>
      <point x="181" y="692"/>
      <point x="79" y="647"/>
      <point x="79" y="529" type="curve" smooth="yes"/>
      <point x="79" y="429"/>
      <point x="166" y="378"/>
      <point x="286" y="330" type="curve" smooth="yes"/>
      <point x="430" y="273"/>
      <point x="491" y="241"/>
      <point x="491" y="156" type="curve" smooth="yes"/>
      <point x="491" y="61"/>
      <point x="397" y="32"/>
      <point x="307" y="32" type="curve" smooth="yes"/>
      <point x="250" y="32"/>
      <point x="169" y="45"/>
      <point x="123" y="81" type="curve"/>
      <point x="112" y="146" type="line" smooth="yes"/>
      <point x="108" y="170"/>
      <point x="101" y="178"/>
      <point x="88" y="178" type="curve" smooth="yes"/>
      <point x="80" y="178"/>
      <point x="76" y="172"/>
      <point x="76" y="166" type="curve" smooth="yes"/>
      <point x="76" y="56" type="line"/>
      <point x="122" y="18"/>
      <point x="205" y="-3"/>
      <point x="273" y="-9" type="curve"/>
      <point x="273" y="-90" type="line"/>
    </contour>
  </outline>
</glyph>
<glyph name="percent" format="1">
  <advance width="772"/>
  <unicode hex="0025"/>
  <note>
	percent
  </note>
  <outline>
    <contour>
      <point x="647" y="668" type="line"/>
      <point x="603" y="696" type="line"/>
      <point x="128" y="24" type="line"/>
      <point x="172" y="-4" type="line"/>
    </contour>
    <contour>
      <point x="657" y="-11"/>
      <point x="716" y="49"/>
      <point x="716" y="154" type="curve" smooth="yes"/>
      <point x="716" y="258"/>
      <point x="657" y="319"/>
      <point x="574" y="319" type="curve" smooth="yes"/>
      <point x="491" y="319"/>
      <point x="432" y="258"/>
      <point x="432" y="154" type="curve" smooth="yes"/>
      <point x="432" y="49"/>
      <point x="491" y="-11"/>
      <point x="574" y="-11" type="curve" smooth="yes"/>
    </contour>
    <contour>
      <point x="523" y="29"/>
      <point x="482" y="71"/>
      <point x="482" y="154" type="curve" smooth="yes"/>
      <point x="482" y="238"/>
      <point x="523" y="279"/>
      <point x="574" y="279" type="curve" smooth="yes"/>
      <point x="625" y="279"/>
      <point x="665" y="238"/>
      <point x="665" y="154" type="curve" smooth="yes"/>
      <point x="665" y="71"/>
      <point x="625" y="29"/>
      <point x="574" y="29" type="curve" smooth="yes"/>
    </contour>
    <contour>
      <point x="281" y="366"/>
      <point x="340" y="426"/>
      <point x="340" y="531" type="curve" smooth="yes"/>
      <point x="340" y="635"/>
      <point x="281" y="696"/>
      <point x="198" y="696" type="curve" smooth="yes"/>
      <point x="115" y="696"/>
      <point x="56" y="635"/>
      <point x="56" y="531" type="curve" smooth="yes"/>
      <point x="56" y="426"/>
      <point x="115" y="366"/>
      <point x="198" y="366" type="curve" smooth="yes"/>
    </contour>
    <contour>
      <point x="147" y="407"/>
      <point x="106" y="448"/>
      <point x="106" y="531" type="curve" smooth="yes"/>
      <point x="106" y="615"/>
      <point x="147" y="656"/>
      <point x="198" y="656" type="curve" smooth="yes"/>
      <point x="249" y="656"/>
      <point x="289" y="615"/>
      <point x="289" y="531" type="curve" smooth="yes"/>
      <point x="289" y="448"/>
      <point x="249" y="407"/>
      <point x="198" y="407" type="curve" smooth="yes"/>
    </contour>
  </outline>
</glyph>
<glyph name="ampersand" format="1">
  <advance width="699"/>
  <unicode hex="0026"/>
  <note>
	ampersand
  </note>
  <outline>
    <contour>
      <point x="360" y="-11"/>
      <point x="433" y="33"/>
      <point x="477" y="92" type="curve"/>
      <point x="570" y="0" type="line"/>
      <point x="678" y="0" type="line" smooth="yes"/>
      <point x="686" y="0"/>
      <point x="688" y="6"/>
      <point x="688" y="11" type="curve" smooth="yes"/>
      <point x="688" y="22"/>
      <point x="682" y="28"/>
      <point x="665" y="31" type="curve" smooth="yes"/>
      <point x="609" y="40" type="line"/>
      <point x="510" y="137" type="line"/>
      <point x="552" y="202"/>
      <point x="569" y="278"/>
      <point x="576" y="346" type="curve"/>
      <point x="638" y="357" type="line" smooth="yes"/>
      <point x="653" y="360"/>
      <point x="659" y="366"/>
      <point x="659" y="376" type="curve" smooth="yes"/>
      <point x="659" y="381"/>
      <point x="657" y="387"/>
      <point x="649" y="387" type="curve" smooth="yes"/>
      <point x="494" y="387" type="line" smooth="yes"/>
      <point x="476" y="387"/>
      <point x="465" y="379"/>
      <point x="465" y="365" type="curve" smooth="yes"/>
      <point x="465" y="355"/>
      <point x="471" y="348"/>
      <point x="479" y="348" type="curve" smooth="yes"/>
      <point x="535" y="348" type="line"/>
      <point x="528" y="284"/>
      <point x="517" y="222"/>
      <point x="482" y="165" type="curve"/>
      <point x="285" y="359" type="line"/>
      <point x="381" y="399"/>
      <point x="451" y="456"/>
      <point x="451" y="536" type="curve" smooth="yes"/>
      <point x="451" y="622"/>
      <point x="381" y="687"/>
      <point x="276" y="687" type="curve" smooth="yes"/>
      <point x="173" y="687"/>
      <point x="100" y="629"/>
      <point x="100" y="544" type="curve" smooth="yes"/>
      <point x="100" y="474"/>
      <point x="135" y="431"/>
      <point x="200" y="366" type="curve"/>
      <point x="108" y="326"/>
      <point x="46" y="266"/>
      <point x="46" y="173" type="curve" smooth="yes"/>
      <point x="46" y="57"/>
      <point x="142" y="-11"/>
      <point x="265" y="-11" type="curve" smooth="yes"/>
    </contour>
    <contour>
      <point x="181" y="30"/>
      <point x="104" y="77"/>
      <point x="104" y="174" type="curve" smooth="yes"/>
      <point x="104" y="262"/>
      <point x="169" y="309"/>
      <point x="230" y="335" type="curve"/>
      <point x="448" y="120" type="line"/>
      <point x="413" y="74"/>
      <point x="353" y="30"/>
      <point x="269" y="30" type="curve" smooth="yes"/>
    </contour>
    <contour>
      <point x="205" y="434"/>
      <point x="158" y="484"/>
      <point x="158" y="544" type="curve" smooth="yes"/>
      <point x="158" y="611"/>
      <point x="208" y="648"/>
      <point x="276" y="648" type="curve" smooth="yes"/>
      <point x="341" y="648"/>
      <point x="394" y="609"/>
      <point x="394" y="535" type="curve" smooth="yes"/>
      <point x="394" y="469"/>
      <point x="326" y="420"/>
      <point x="254" y="389" type="curve"/>
    </contour>
  </outline>
</glyph>
<glyph name="quotesingle" format="1">
  <advance width="173"/>
  <unicode hex="0027"/>
  <note>
	quotesingle
  </note>
  <outline>
    <contour>
      <point x="80" y="483" type="line"/>
      <point x="133" y="701" type="line"/>
      <point x="76" y="706" type="line"/>
      <point x="41" y="483" type="line"/>
    </contour>
  </outline>
</glyph>
<glyph name="parenleft" format="1">
  <advance width="282"/>
  <unicode hex="0028"/>
  <note>
	parenleft
  </note>
  <outline>
    <contour>
      <point x="229" y="-79" type="line"/>
      <point x="168" y="38"/>
      <point x="115" y="159"/>
      <point x="115" y="350" type="curve" smooth="yes"/>
      <point x="115" y="541"/>
      <point x="168" y="658"/>
      <point x="229" y="775" type="curve"/>
      <point x="173" y="775" type="line"/>
      <point x="105" y="662"/>
      <point x="53" y="522"/>
      <point x="53" y="350" type="curve" smooth="yes"/>
      <point x="53" y="178"/>
      <point x="105" y="34"/>
      <point x="173" y="-79" type="curve"/>
    </contour>
  </outline>
</glyph>
<glyph name="parenright" format="1">
  <advance width="282"/>
  <unicode hex="0029"/>
  <note>
	parenright
  </note>
  <outline>
    <contour>
      <point x="109" y="-79" type="line"/>
      <point x="177" y="34"/>
      <point x="229" y="178"/>
      <point x="229" y="350" type="curve" smooth="yes"/>
      <point x="229" y="522"/>
      <point x="177" y="662"/>
      <point x="109" y="775" type="curve"/>
      <point x="53" y="775" type="line"/>
      <point x="114" y="658"/>
      <point x="167" y="541"/>
      <point x="167" y="350" type="curve" smooth="yes"/>
      <point x="167" y="159"/>
      <point x="114" y="38"/>
      <point x="53" y="-79" type="curve"/>
    </contour>
  </outline>
</glyph>
<glyph name="asterisk" format="1">
  <advance width="380"/>
  <unicode hex="002A"/>
  <note>
	asterisk
  </note>
  <outline>
    <contour>
      <point x="215" y="405" type="line"/>
      <point x="202" y="542" type="line"/>
      <point x="316" y="463" type="line"/>
      <point x="344" y="508" type="line"/>
      <point x="213" y="569" type="line"/>
      <point x="343" y="629" type="line"/>
      <point x="317" y="676" type="line"/>
      <point x="203" y="594" type="line"/>
      <point x="215" y="733" type="line"/>
      <point x="164" y="733" type="line"/>
      <point x="177" y="594" type="line"/>
      <point x="59" y="676" type="line"/>
      <point x="36" y="629" type="line"/>
      <point x="165" y="569" type="line"/>
      <point x="36" y="509" type="line"/>
      <point x="61" y="465" type="line"/>
      <point x="177" y="542" type="line"/>
      <point x="164" y="405" type="line"/>
    </contour>
  </outline>
</glyph>
<glyph name="plus" format="1">
  <advance width="607"/>
  <unicode hex="002B"/>
  <note>
	plus
  </note>
  <outline>
    <contour>
      <point x="332" y="96" type="line"/>
      <point x="332" y="309" type="line"/>
      <point x="544" y="309" type="line"/>
      <point x="544" y="357" type="line"/>
      <point x="332" y="357" type="line"/>
      <point x="332" y="572" type="line"/>
      <point x="276" y="572" type="line"/>
      <point x="276" y="357" type="line"/>
      <point x="63" y="357" type="line"/>
      <point x="63" y="309" type="line"/>
      <point x="276" y="309" type="line"/>
      <point x="276" y="96" type="line"/>
    </contour>
  </outline>
</glyph>
<glyph name="comma" format="1">
  <advance width="284"/>
  <unicode hex="002C"/>
  <note>
	comma
  </note>
  <outline>
    <contour>
      <point x="148" y="-56"/>
      <point x="183" y="25"/>
      <point x="198" y="93" type="curve"/>
      <point x="122" y="109" type="line"/>
      <point x="103" y="114"/>
      <point x="89" y="105"/>
      <point x="89" y="87" type="curve" smooth="yes"/>
      <point x="89" y="80"/>
      <point x="93" y="76"/>
      <point x="99" y="74" type="curve" smooth="yes"/>
      <point x="132" y="63" type="line"/>
      <point x="128" y="22"/>
      <point x="100" y="-50"/>
      <point x="71" y="-93" type="curve"/>
      <point x="104" y="-112" type="line"/>
    </contour>
  </outline>
</glyph>
<glyph name="hyphen" format="1">
  <advance width="314"/>
  <unicode hex="002D"/>
  <note>
	hyphen
  </note>
  <outline>
    <contour>
      <point x="285" y="301" type="line"/>
      <point x="285" y="350" type="line"/>
      <point x="29" y="350" type="line"/>
      <point x="29" y="301" type="line"/>
    </contour>
  </outline>
</glyph>
<glyph name="period" format="1">
  <advance width="241"/>
  <unicode hex="002E"/>
  <note>
	period
  </note>
  <outline>
    <contour>
      <point x="144" y="-11"/>
      <point x="165" y="7"/>
      <point x="165" y="33" type="curve" smooth="yes"/>
      <point x="165" y="59"/>
      <point x="144" y="78"/>
      <point x="121" y="78" type="curve" smooth="yes"/>
      <point x="96" y="78"/>
      <point x="76" y="59"/>
      <point x="76" y="33" type="curve" smooth="yes"/>
      <point x="76" y="7"/>
      <point x="96" y="-11"/>
      <point x="121" y="-11" type="curve" smooth="yes"/>
    </contour>
  </outline>
</glyph>
<glyph name="slash" format="1">
  <advance width="355"/>
  <unicode hex="002F"/>
  <note>
	slash
  </note>
  <outline>
    <contour>
      <point x="374" y="718" type="line"/>
      <point x="320" y="738" type="line"/>
      <point x="-24" y="-113" type="line"/>
      <point x="28" y="-132" type="line"/>
    </contour>
  </outline>
</glyph>
<glyph name="zero" format="1">
  <advance width="703"/>
  <unicode hex="0030"/>
  <note>
	zero
  </note>
  <outline>
    <contour>
      <point x="531" y="-11"/>
      <point x="642" y="132"/>
      <point x="642" y="342" type="curve" smooth="yes"/>
      <point x="642" y="552"/>
      <point x="531" y="696"/>
      <point x="351" y="696" type="curve" smooth="yes"/>
      <point x="172" y="696"/>
      <point x="61" y="552"/>
      <point x="61" y="342" type="curve" smooth="yes"/>
      <point x="61" y="132"/>
      <point x="172" y="-11"/>
      <point x="351" y="-11" type="curve" smooth="yes"/>
    </contour>
    <contour>
      <point x="210" y="32"/>
      <point x="123" y="160"/>
      <point x="123" y="342" type="curve" smooth="yes"/>
      <point x="123" y="524"/>
      <point x="210" y="653"/>
      <point x="352" y="653" type="curve" smooth="yes"/>
      <point x="494" y="653"/>
      <point x="580" y="524"/>
      <point x="580" y="342" type="curve" smooth="yes"/>
      <point x="580" y="160"/>
      <point x="494" y="32"/>
      <point x="352" y="32" type="curve" smooth="yes"/>
    </contour>
  </outline>
</glyph>
<glyph name="one" format="1">
  <advance width="427"/>
  <unicode hex="0031"/>
  <note>
	one
  </note>
  <outline>
    <contour>
      <point x="351" y="0" type="line" smooth="yes"/>
      <point x="358" y="0"/>
      <point x="361" y="7"/>
      <point x="361" y="13" type="curve" smooth="yes"/>
      <point x="361" y="23"/>
      <point x="356" y="31"/>
      <point x="333" y="33" type="curve" smooth="yes"/>
      <point x="243" y="41" type="line"/>
      <point x="243" y="685" type="line"/>
      <point x="182" y="685" type="line"/>
      <point x="92" y="657" type="line" smooth="yes"/>
      <point x="76" y="652"/>
      <point x="66" y="644"/>
      <point x="66" y="629" type="curve" smooth="yes"/>
      <point x="66" y="617"/>
      <point x="74" y="612"/>
      <point x="81" y="612" type="curve"/>
      <point x="183" y="643" type="line"/>
      <point x="183" y="41" type="line"/>
      <point x="84" y="41" type="line" smooth="yes"/>
      <point x="66" y="41"/>
      <point x="55" y="32"/>
      <point x="55" y="18" type="curve" smooth="yes"/>
      <point x="55" y="8"/>
      <point x="60" y="0"/>
      <point x="68" y="0" type="curve" smooth="yes"/>
    </contour>
  </outline>
</glyph>
<glyph name="two" format="1">
  <advance width="579"/>
  <unicode hex="0032"/>
  <note>
	two
  </note>
  <outline>
    <contour>
      <point x="513" y="0" type="line"/>
      <point x="513" y="43" type="line"/>
      <point x="136" y="43" type="line"/>
      <point x="136" y="47" type="line"/>
      <point x="349" y="263" type="line" smooth="yes"/>
      <point x="438" y="353"/>
      <point x="499" y="431"/>
      <point x="499" y="517" type="curve" smooth="yes"/>
      <point x="499" y="637"/>
      <point x="411" y="695"/>
      <point x="303" y="695" type="curve" smooth="yes"/>
      <point x="224" y="695"/>
      <point x="143" y="667"/>
      <point x="85" y="625" type="curve"/>
      <point x="85" y="518" type="line" smooth="yes"/>
      <point x="85" y="511"/>
      <point x="89" y="506"/>
      <point x="98" y="506" type="curve" smooth="yes"/>
      <point x="110" y="506"/>
      <point x="117" y="514"/>
      <point x="122" y="539" type="curve" smooth="yes"/>
      <point x="134" y="605" type="line"/>
      <point x="177" y="633"/>
      <point x="234" y="651"/>
      <point x="295" y="651" type="curve" smooth="yes"/>
      <point x="373" y="651"/>
      <point x="436" y="610"/>
      <point x="436" y="519" type="curve" smooth="yes"/>
      <point x="436" y="443"/>
      <point x="376" y="374"/>
      <point x="313" y="310" type="curve" smooth="yes"/>
      <point x="68" y="59" type="line"/>
      <point x="68" y="0" type="line"/>
    </contour>
  </outline>
</glyph>
<glyph name="three" format="1">
  <advance width="581"/>
  <unicode hex="0033"/>
  <note>
	three
  </note>
  <outline>
    <contour>
      <point x="410" y="-10"/>
      <point x="509" y="55"/>
      <point x="509" y="180" type="curve" smooth="yes"/>
      <point x="509" y="270"/>
      <point x="448" y="343"/>
      <point x="337" y="358" type="curve"/>
      <point x="426" y="383"/>
      <point x="482" y="443"/>
      <point x="482" y="528" type="curve" smooth="yes"/>
      <point x="482" y="645"/>
      <point x="390" y="695"/>
      <point x="287" y="695" type="curve" smooth="yes"/>
      <point x="208" y="695"/>
      <point x="127" y="667"/>
      <point x="69" y="625" type="curve"/>
      <point x="69" y="518" type="line" smooth="yes"/>
      <point x="69" y="511"/>
      <point x="73" y="506"/>
      <point x="81" y="506" type="curve" smooth="yes"/>
      <point x="94" y="506"/>
      <point x="100" y="514"/>
      <point x="105" y="539" type="curve" smooth="yes"/>
      <point x="117" y="605" type="line"/>
      <point x="161" y="633"/>
      <point x="218" y="651"/>
      <point x="278" y="651" type="curve" smooth="yes"/>
      <point x="359" y="651"/>
      <point x="421" y="614"/>
      <point x="421" y="524" type="curve" smooth="yes"/>
      <point x="421" y="427"/>
      <point x="338" y="383"/>
      <point x="251" y="372" type="curve" smooth="yes"/>
      <point x="175" y="362" type="line"/>
      <point x="175" y="319" type="line"/>
      <point x="246" y="328"/>
      <point x="263" y="331"/>
      <point x="283" y="331" type="curve" smooth="yes"/>
      <point x="380" y="331"/>
      <point x="447" y="268"/>
      <point x="447" y="184" type="curve" smooth="yes"/>
      <point x="447" y="85"/>
      <point x="377" y="33"/>
      <point x="257" y="33" type="curve" smooth="yes"/>
      <point x="190" y="33"/>
      <point x="116" y="51"/>
      <point x="58" y="75" type="curve"/>
      <point x="58" y="29" type="line"/>
      <point x="107" y="8"/>
      <point x="183" y="-10"/>
      <point x="263" y="-10" type="curve" smooth="yes"/>
    </contour>
  </outline>
</glyph>
<glyph name="four" format="1">
  <advance width="611"/>
  <unicode hex="0034"/>
  <note>
	four
  </note>
  <outline>
    <contour>
      <point x="449" y="0" type="line"/>
      <point x="449" y="168" type="line"/>
      <point x="550" y="168" type="line"/>
      <point x="550" y="211" type="line"/>
      <point x="449" y="211" type="line"/>
      <point x="449" y="685" type="line"/>
      <point x="368" y="685" type="line"/>
      <point x="41" y="223" type="line"/>
      <point x="41" y="168" type="line"/>
      <point x="389" y="168" type="line"/>
      <point x="389" y="0" type="line"/>
    </contour>
    <contour>
      <point x="389" y="635" type="line"/>
      <point x="389" y="211" type="line"/>
      <point x="90" y="211" type="line"/>
    </contour>
  </outline>
</glyph>
<glyph name="five" format="1">
  <advance width="539"/>
  <unicode hex="0035"/>
  <note>
	five
  </note>
  <outline>
    <contour>
      <point x="386" y="-10"/>
      <point x="488" y="64"/>
      <point x="488" y="199" type="curve" smooth="yes"/>
      <point x="488" y="344"/>
      <point x="384" y="408"/>
      <point x="263" y="408" type="curve" smooth="yes"/>
      <point x="224" y="408"/>
      <point x="174" y="401"/>
      <point x="135" y="391" type="curve"/>
      <point x="156" y="642" type="line"/>
      <point x="435" y="642" type="line"/>
      <point x="435" y="685" type="line"/>
      <point x="101" y="685" type="line"/>
      <point x="75" y="373" type="line"/>
      <point x="106" y="346" type="line"/>
      <point x="152" y="357"/>
      <point x="198" y="365"/>
      <point x="244" y="365" type="curve" smooth="yes"/>
      <point x="344" y="365"/>
      <point x="427" y="323"/>
      <point x="427" y="194" type="curve" smooth="yes"/>
      <point x="427" y="89"/>
      <point x="348" y="33"/>
      <point x="242" y="33" type="curve" smooth="yes"/>
      <point x="175" y="33"/>
      <point x="106" y="51"/>
      <point x="51" y="74" type="curve"/>
      <point x="51" y="28" type="line"/>
      <point x="102" y="6"/>
      <point x="171" y="-10"/>
      <point x="249" y="-10" type="curve" smooth="yes"/>
    </contour>
  </outline>
</glyph>
<glyph name="six" format="1">
  <advance width="576"/>
  <unicode hex="0036"/>
  <note>
	six
  </note>
  <outline>
    <contour>
      <point x="414" y="-10"/>
      <point x="515" y="68"/>
      <point x="515" y="214" type="curve" smooth="yes"/>
      <point x="515" y="335"/>
      <point x="441" y="408"/>
      <point x="316" y="408" type="curve" smooth="yes"/>
      <point x="235" y="408"/>
      <point x="172" y="376"/>
      <point x="121" y="340" type="curve"/>
      <point x="121" y="544"/>
      <point x="218" y="653"/>
      <point x="381" y="653" type="curve" smooth="yes"/>
      <point x="407" y="653"/>
      <point x="427" y="650"/>
      <point x="450" y="645" type="curve"/>
      <point x="450" y="686" type="line"/>
      <point x="429" y="692"/>
      <point x="405" y="695"/>
      <point x="378" y="695" type="curve" smooth="yes"/>
      <point x="157" y="695"/>
      <point x="61" y="533"/>
      <point x="61" y="321" type="curve" smooth="yes"/>
      <point x="61" y="120"/>
      <point x="136" y="-10"/>
      <point x="300" y="-10" type="curve" smooth="yes"/>
    </contour>
    <contour>
      <point x="180" y="33"/>
      <point x="122" y="146"/>
      <point x="122" y="294" type="curve"/>
      <point x="164" y="331"/>
      <point x="237" y="365"/>
      <point x="298" y="365" type="curve" smooth="yes"/>
      <point x="392" y="365"/>
      <point x="454" y="321"/>
      <point x="454" y="213" type="curve" smooth="yes"/>
      <point x="454" y="99"/>
      <point x="383" y="33"/>
      <point x="295" y="33" type="curve" smooth="yes"/>
    </contour>
  </outline>
</glyph>
<glyph name="seven" format="1">
  <advance width="548"/>
  <unicode hex="0037"/>
  <note>
	seven
  </note>
  <outline>
    <contour>
      <point x="235" y="0" type="line"/>
      <point x="497" y="646" type="line"/>
      <point x="497" y="685" type="line"/>
      <point x="51" y="685" type="line"/>
      <point x="51" y="573" type="line" smooth="yes"/>
      <point x="51" y="565"/>
      <point x="55" y="560"/>
      <point x="63" y="560" type="curve" smooth="yes"/>
      <point x="76" y="560"/>
      <point x="83" y="571"/>
      <point x="86" y="589" type="curve" smooth="yes"/>
      <point x="95" y="644" type="line"/>
      <point x="430" y="644" type="line"/>
      <point x="168" y="0" type="line"/>
    </contour>
  </outline>
</glyph>
<glyph name="eight" format="1">
  <advance width="606"/>
  <unicode hex="0038"/>
  <note>
	eight
  </note>
  <outline>
    <contour>
      <point x="443" y="-11"/>
      <point x="535" y="61"/>
      <point x="535" y="171" type="curve" smooth="yes"/>
      <point x="535" y="240"/>
      <point x="492" y="298"/>
      <point x="359" y="360" type="curve"/>
      <point x="465" y="412"/>
      <point x="510" y="472"/>
      <point x="510" y="540" type="curve" smooth="yes"/>
      <point x="510" y="630"/>
      <point x="433" y="696"/>
      <point x="303" y="696" type="curve" smooth="yes"/>
      <point x="178" y="696"/>
      <point x="96" y="629"/>
      <point x="96" y="539" type="curve" smooth="yes"/>
      <point x="96" y="464"/>
      <point x="150" y="411"/>
      <point x="248" y="360" type="curve"/>
      <point x="130" y="308"/>
      <point x="71" y="241"/>
      <point x="71" y="167" type="curve" smooth="yes"/>
      <point x="71" y="55"/>
      <point x="165" y="-11"/>
      <point x="305" y="-11" type="curve" smooth="yes"/>
    </contour>
    <contour>
      <point x="200" y="32"/>
      <point x="130" y="81"/>
      <point x="130" y="166" type="curve" smooth="yes"/>
      <point x="130" y="241"/>
      <point x="200" y="292"/>
      <point x="302" y="334" type="curve"/>
      <point x="409" y="289"/>
      <point x="473" y="240"/>
      <point x="473" y="168" type="curve" smooth="yes"/>
      <point x="473" y="82"/>
      <point x="402" y="32"/>
      <point x="302" y="32" type="curve" smooth="yes"/>
    </contour>
    <contour>
      <point x="222" y="426"/>
      <point x="157" y="467"/>
      <point x="157" y="537" type="curve" smooth="yes"/>
      <point x="157" y="611"/>
      <point x="219" y="653"/>
      <point x="302" y="653" type="curve" smooth="yes"/>
      <point x="388" y="653"/>
      <point x="451" y="612"/>
      <point x="451" y="537" type="curve" smooth="yes"/>
      <point x="451" y="472"/>
      <point x="392" y="423"/>
      <point x="306" y="383" type="curve"/>
    </contour>
  </outline>
</glyph>
<glyph name="nine" format="1">
  <advance width="576"/>
  <unicode hex="0039"/>
  <note>
	nine
  </note>
  <outline>
    <contour>
      <point x="421" y="-10"/>
      <point x="515" y="142"/>
      <point x="515" y="364" type="curve" smooth="yes"/>
      <point x="515" y="567"/>
      <point x="449" y="695"/>
      <point x="287" y="695" type="curve" smooth="yes"/>
      <point x="164" y="695"/>
      <point x="61" y="616"/>
      <point x="61" y="469" type="curve" smooth="yes"/>
      <point x="61" y="333"/>
      <point x="158" y="257"/>
      <point x="276" y="257" type="curve" smooth="yes"/>
      <point x="347" y="257"/>
      <point x="408" y="285"/>
      <point x="455" y="330" type="curve"/>
      <point x="454" y="128"/>
      <point x="358" y="32"/>
      <point x="203" y="32" type="curve" smooth="yes"/>
      <point x="177" y="32"/>
      <point x="148" y="35"/>
      <point x="124" y="41" type="curve"/>
      <point x="124" y="0" type="line"/>
      <point x="145" y="-6"/>
      <point x="180" y="-10"/>
      <point x="209" y="-10" type="curve" smooth="yes"/>
    </contour>
    <contour>
      <point x="195" y="300"/>
      <point x="122" y="353"/>
      <point x="122" y="470" type="curve" smooth="yes"/>
      <point x="122" y="586"/>
      <point x="195" y="652"/>
      <point x="291" y="652" type="curve" smooth="yes"/>
      <point x="404" y="652"/>
      <point x="454" y="537"/>
      <point x="454" y="378" type="curve"/>
      <point x="405" y="331"/>
      <point x="351" y="300"/>
      <point x="284" y="300" type="curve" smooth="yes"/>
    </contour>
  </outline>
</glyph>
<glyph name="colon" format="1">
  <advance width="246"/>
  <unicode hex="003A"/>
  <note>
	colon
  </note>
  <outline>
    <contour>
      <point x="149" y="402"/>
      <point x="170" y="421"/>
      <point x="170" y="449" type="curve" smooth="yes"/>
      <point x="170" y="477"/>
      <point x="149" y="496"/>
      <point x="123" y="496" type="curve" smooth="yes"/>
      <point x="97" y="496"/>
      <point x="76" y="477"/>
      <point x="76" y="449" type="curve" smooth="yes"/>
      <point x="76" y="421"/>
      <point x="97" y="402"/>
      <point x="123" y="402" type="curve" smooth="yes"/>
    </contour>
    <contour>
      <point x="149" y="42"/>
      <point x="170" y="61"/>
      <point x="170" y="89" type="curve" smooth="yes"/>
      <point x="170" y="117"/>
      <point x="149" y="136"/>
      <point x="123" y="136" type="curve" smooth="yes"/>
      <point x="97" y="136"/>
      <point x="76" y="117"/>
      <point x="76" y="89" type="curve" smooth="yes"/>
      <point x="76" y="61"/>
      <point x="97" y="42"/>
      <point x="123" y="42" type="curve" smooth="yes"/>
    </contour>
  </outline>
</glyph>
<glyph name="semicolon" format="1">
  <advance width="246"/>
  <unicode hex="003B"/>
  <note>
	semicolon
  </note>
  <outline>
    <contour>
      <point x="122" y="-56"/>
      <point x="160" y="25"/>
      <point x="175" y="93" type="curve"/>
      <point x="99" y="109" type="line"/>
      <point x="80" y="114"/>
      <point x="66" y="105"/>
      <point x="66" y="87" type="curve" smooth="yes"/>
      <point x="66" y="80"/>
      <point x="70" y="76"/>
      <point x="76" y="74" type="curve" smooth="yes"/>
      <point x="109" y="63" type="line"/>
      <point x="105" y="22"/>
      <point x="76" y="-49"/>
      <point x="48" y="-90" type="curve"/>
      <point x="81" y="-110" type="line"/>
    </contour>
    <contour>
      <point x="154" y="402"/>
      <point x="175" y="421"/>
      <point x="175" y="449" type="curve" smooth="yes"/>
      <point x="175" y="477"/>
      <point x="154" y="496"/>
      <point x="128" y="496" type="curve" smooth="yes"/>
      <point x="102" y="496"/>
      <point x="81" y="477"/>
      <point x="81" y="449" type="curve" smooth="yes"/>
      <point x="81" y="421"/>
      <point x="102" y="402"/>
      <point x="128" y="402" type="curve" smooth="yes"/>
    </contour>
  </outline>
</glyph>
<glyph name="less" format="1">
  <advance width="561"/>
  <unicode hex="003C"/>
  <note>
	less
  </note>
  <outline>
    <contour>
      <point x="485" y="64" type="line"/>
      <point x="122" y="289" type="line"/>
      <point x="485" y="514" type="line"/>
      <point x="461" y="559" type="line"/>
      <point x="66" y="314" type="line"/>
      <point x="66" y="264" type="line"/>
      <point x="461" y="19" type="line"/>
    </contour>
  </outline>
</glyph>
<glyph name="equal" format="1">
  <advance width="570"/>
  <unicode hex="003D"/>
  <note>
	equal
  </note>
  <outline>
    <contour>
      <point x="507" y="380" type="line"/>
      <point x="507" y="426" type="line"/>
      <point x="63" y="426" type="line"/>
      <point x="63" y="380" type="line"/>
    </contour>
    <contour>
      <point x="507" y="200" type="line"/>
      <point x="507" y="246" type="line"/>
      <point x="63" y="246" type="line"/>
      <point x="63" y="200" type="line"/>
    </contour>
  </outline>
</glyph>
<glyph name="greater" format="1">
  <advance width="561"/>
  <unicode hex="003E"/>
  <note>
	greater
  </note>
  <outline>
    <contour>
      <point x="495" y="264" type="line"/>
      <point x="495" y="314" type="line"/>
      <point x="100" y="559" type="line"/>
      <point x="76" y="514" type="line"/>
      <point x="440" y="289" type="line"/>
      <point x="76" y="64" type="line"/>
      <point x="100" y="19" type="line"/>
    </contour>
  </outline>
</glyph>
<glyph name="question" format="1">
  <advance width="469"/>
  <unicode hex="003F"/>
  <note>
	question
  </note>
  <outline>
    <contour>
      <point x="252" y="160" type="line"/>
      <point x="252" y="261" type="line" smooth="yes"/>
      <point x="252" y="339"/>
      <point x="269" y="367"/>
      <point x="321" y="414" type="curve" smooth="yes"/>
      <point x="366" y="454"/>
      <point x="413" y="499"/>
      <point x="413" y="578" type="curve" smooth="yes"/>
      <point x="413" y="672"/>
      <point x="343" y="716"/>
      <point x="248" y="716" type="curve" smooth="yes"/>
      <point x="185" y="716"/>
      <point x="120" y="688"/>
      <point x="81" y="657" type="curve"/>
      <point x="81" y="574" type="line" smooth="yes"/>
      <point x="81" y="569"/>
      <point x="85" y="564"/>
      <point x="93" y="564" type="curve" smooth="yes"/>
      <point x="104" y="564"/>
      <point x="109" y="571"/>
      <point x="112" y="588" type="curve" smooth="yes"/>
      <point x="121" y="637" type="line"/>
      <point x="155" y="662"/>
      <point x="203" y="675"/>
      <point x="244" y="675" type="curve" smooth="yes"/>
      <point x="311" y="675"/>
      <point x="357" y="641"/>
      <point x="357" y="576" type="curve" smooth="yes"/>
      <point x="357" y="512"/>
      <point x="321" y="477"/>
      <point x="282" y="440" type="curve" smooth="yes"/>
      <point x="229" y="389"/>
      <point x="201" y="354"/>
      <point x="201" y="274" type="curve" smooth="yes"/>
      <point x="201" y="160" type="line"/>
    </contour>
    <contour>
      <point x="248" y="-11"/>
      <point x="267" y="5"/>
      <point x="267" y="30" type="curve" smooth="yes"/>
      <point x="267" y="55"/>
      <point x="248" y="71"/>
      <point x="226" y="71" type="curve" smooth="yes"/>
      <point x="204" y="71"/>
      <point x="185" y="55"/>
      <point x="185" y="30" type="curve" smooth="yes"/>
      <point x="185" y="5"/>
      <point x="204" y="-11"/>
      <point x="226" y="-11" type="curve" smooth="yes"/>
    </contour>
  </outline>
</glyph>
<glyph name="at" format="1">
  <advance width="872"/>
  <unicode hex="0040"/>
  <note>
	at
  </note>
  <outline>
    <contour>
      <point x="502" y="-91"/>
      <point x="578" y="-75"/>
      <point x="642" y="-53" type="curve"/>
      <point x="642" y="-8" type="line"/>
      <point x="564" y="-37"/>
      <point x="495" y="-47"/>
      <point x="429" y="-47" type="curve" smooth="yes"/>
      <point x="228" y="-47"/>
      <point x="102" y="70"/>
      <point x="102" y="280" type="curve" smooth="yes"/>
      <point x="102" y="517"/>
      <point x="250" y="673"/>
      <point x="480" y="673" type="curve" smooth="yes"/>
      <point x="665" y="673"/>
      <point x="793" y="548"/>
      <point x="793" y="359" type="curve" smooth="yes"/>
      <point x="793" y="235"/>
      <point x="745" y="153"/>
      <point x="680" y="153" type="curve" smooth="yes"/>
      <point x="635" y="153"/>
      <point x="600" y="186"/>
      <point x="599" y="243" type="curve"/>
      <point x="616" y="491" type="line"/>
      <point x="567" y="506"/>
      <point x="511" y="515"/>
      <point x="467" y="515" type="curve" smooth="yes"/>
      <point x="342" y="515"/>
      <point x="265" y="423"/>
      <point x="265" y="293" type="curve" smooth="yes"/>
      <point x="265" y="169"/>
      <point x="329" y="110"/>
      <point x="424" y="110" type="curve" smooth="yes"/>
      <point x="482" y="110"/>
      <point x="532" y="137"/>
      <point x="569" y="194" type="curve"/>
      <point x="583" y="141"/>
      <point x="626" y="110"/>
      <point x="679" y="110" type="curve" smooth="yes"/>
      <point x="774" y="110"/>
      <point x="841" y="223"/>
      <point x="841" y="358" type="curve" smooth="yes"/>
      <point x="841" y="578"/>
      <point x="690" y="716"/>
      <point x="471" y="716" type="curve" smooth="yes"/>
      <point x="219" y="716"/>
      <point x="53" y="530"/>
      <point x="53" y="277" type="curve" smooth="yes"/>
      <point x="53" y="41"/>
      <point x="200" y="-91"/>
      <point x="429" y="-91" type="curve" smooth="yes"/>
    </contour>
    <contour>
      <point x="354" y="153"/>
      <point x="314" y="200"/>
      <point x="314" y="291" type="curve" smooth="yes"/>
      <point x="314" y="404"/>
      <point x="375" y="471"/>
      <point x="469" y="471" type="curve" smooth="yes"/>
      <point x="495" y="471"/>
      <point x="531" y="468"/>
      <point x="566" y="458" type="curve"/>
      <point x="551" y="236" type="line"/>
      <point x="525" y="190"/>
      <point x="494" y="153"/>
      <point x="426" y="153" type="curve" smooth="yes"/>
    </contour>
  </outline>
</glyph>
<glyph name="A" format="1">
  <advance width="694"/>
  <unicode hex="0041"/>
  <outline>
    <contour>
      <point x="198" y="0" type="line" smooth="yes"/>
      <point x="205" y="0"/>
      <point x="207" y="5"/>
      <point x="207" y="11" type="curve" smooth="yes"/>
      <point x="207" y="22"/>
      <point x="200" y="29"/>
      <point x="184" y="31" type="curve" smooth="yes"/>
      <point x="123" y="40" type="line"/>
      <point x="192" y="235" type="line"/>
      <point x="484" y="235" type="line"/>
      <point x="552" y="39" type="line"/>
      <point x="507" y="39" type="line" smooth="yes"/>
      <point x="489" y="39"/>
      <point x="479" y="31"/>
      <point x="479" y="17" type="curve" smooth="yes"/>
      <point x="479" y="7"/>
      <point x="485" y="0"/>
      <point x="493" y="0" type="curve" smooth="yes"/>
      <point x="674" y="0" type="line" smooth="yes"/>
      <point x="682" y="0"/>
      <point x="683" y="6"/>
      <point x="683" y="12" type="curve" smooth="yes"/>
      <point x="683" y="23"/>
      <point x="676" y="30"/>
      <point x="661" y="32" type="curve" smooth="yes"/>
      <point x="614" y="40" type="line"/>
      <point x="380" y="695" type="line"/>
      <point x="308" y="695" type="line"/>
      <point x="74" y="39" type="line"/>
      <point x="39" y="39" type="line" smooth="yes"/>
      <point x="21" y="39"/>
      <point x="11" y="31"/>
      <point x="11" y="17" type="curve" smooth="yes"/>
      <point x="11" y="7"/>
      <point x="16" y="0"/>
      <point x="24" y="0" type="curve" smooth="yes"/>
    </contour>
    <contour>
      <point x="337" y="644" type="line"/>
      <point x="467" y="277" type="line"/>
      <point x="207" y="277" type="line"/>
    </contour>
  </outline>
</glyph>
<glyph name="B" format="1">
  <advance width="670"/>
  <unicode hex="0042"/>
  <note>
	B
  </note>
  <outline>
    <contour>
      <point x="386" y="0" type="line" smooth="yes"/>
      <point x="520" y="0"/>
      <point x="609" y="63"/>
      <point x="609" y="190" type="curve" smooth="yes"/>
      <point x="609" y="286"/>
      <point x="550" y="343"/>
      <point x="466" y="366" type="curve"/>
      <point x="466" y="370" type="line"/>
      <point x="526" y="394"/>
      <point x="567" y="441"/>
      <point x="567" y="517" type="curve" smooth="yes"/>
      <point x="567" y="639"/>
      <point x="477" y="695"/>
      <point x="351" y="695" type="curve" smooth="yes"/>
      <point x="72" y="695" type="line" smooth="yes"/>
      <point x="66" y="695"/>
      <point x="61" y="690"/>
      <point x="61" y="682" type="curve" smooth="yes"/>
      <point x="61" y="668"/>
      <point x="71" y="661"/>
      <point x="91" y="658" type="curve" smooth="yes"/>
      <point x="129" y="652" type="line"/>
      <point x="129" y="43" type="line"/>
      <point x="91" y="37" type="line" smooth="yes"/>
      <point x="71" y="34"/>
      <point x="61" y="27"/>
      <point x="61" y="13" type="curve" smooth="yes"/>
      <point x="61" y="5"/>
      <point x="66" y="0"/>
      <point x="72" y="0" type="curve" smooth="yes"/>
    </contour>
    <contour>
      <point x="189" y="340" type="line"/>
      <point x="388" y="340" type="line" smooth="yes"/>
      <point x="491" y="340"/>
      <point x="548" y="281"/>
      <point x="548" y="191" type="curve" smooth="yes"/>
      <point x="548" y="100"/>
      <point x="493" y="42"/>
      <point x="378" y="42" type="curve" smooth="yes"/>
      <point x="189" y="42" type="line"/>
    </contour>
    <contour>
      <point x="189" y="653" type="line"/>
      <point x="345" y="653" type="line" smooth="yes"/>
      <point x="449" y="653"/>
      <point x="506" y="604"/>
      <point x="506" y="517" type="curve" smooth="yes"/>
      <point x="506" y="429"/>
      <point x="446" y="382"/>
      <point x="369" y="382" type="curve" smooth="yes"/>
      <point x="189" y="382" type="line"/>
    </contour>
  </outline>
</glyph>
<glyph name="C" format="1">
  <advance width="647"/>
  <unicode hex="0043"/>
  <note>
	C
  </note>
  <outline>
    <contour>
      <point x="458" y="-11"/>
      <point x="524" y="8"/>
      <point x="564" y="33" type="curve" smooth="yes"/>
      <point x="578" y="41"/>
      <point x="591" y="51"/>
      <point x="591" y="65" type="curve" smooth="yes"/>
      <point x="591" y="75"/>
      <point x="584" y="84"/>
      <point x="574" y="84" type="curve" smooth="yes"/>
      <point x="568" y="84"/>
      <point x="564" y="81"/>
      <point x="555" y="75" type="curve" smooth="yes"/>
      <point x="509" y="44"/>
      <point x="448" y="32"/>
      <point x="386" y="32" type="curve" smooth="yes"/>
      <point x="222" y="32"/>
      <point x="111" y="147"/>
      <point x="111" y="347" type="curve" smooth="yes"/>
      <point x="111" y="548"/>
      <point x="214" y="663"/>
      <point x="375" y="663" type="curve" smooth="yes"/>
      <point x="439" y="663"/>
      <point x="500" y="647"/>
      <point x="539" y="616" type="curve"/>
      <point x="552" y="547" type="line" smooth="yes"/>
      <point x="556" y="526"/>
      <point x="561" y="517"/>
      <point x="574" y="517" type="curve" smooth="yes"/>
      <point x="584" y="517"/>
      <point x="587" y="522"/>
      <point x="587" y="529" type="curve" smooth="yes"/>
      <point x="587" y="634" type="line"/>
      <point x="535" y="678"/>
      <point x="453" y="706"/>
      <point x="369" y="706" type="curve" smooth="yes"/>
      <point x="185" y="706"/>
      <point x="50" y="584"/>
      <point x="50" y="347" type="curve" smooth="yes"/>
      <point x="50" y="111"/>
      <point x="189" y="-11"/>
      <point x="382" y="-11" type="curve" smooth="yes"/>
    </contour>
  </outline>
</glyph>
<glyph name="D" format="1">
  <advance width="726"/>
  <unicode hex="0044"/>
  <note>
	D
  </note>
  <outline>
    <contour>
      <point x="349" y="0" type="line" smooth="yes"/>
      <point x="536" y="0"/>
      <point x="676" y="110"/>
      <point x="676" y="347" type="curve" smooth="yes"/>
      <point x="676" y="584"/>
      <point x="536" y="695"/>
      <point x="349" y="695" type="curve" smooth="yes"/>
      <point x="72" y="695" type="line" smooth="yes"/>
      <point x="66" y="695"/>
      <point x="61" y="690"/>
      <point x="61" y="682" type="curve" smooth="yes"/>
      <point x="61" y="668"/>
      <point x="72" y="661"/>
      <point x="91" y="658" type="curve" smooth="yes"/>
      <point x="129" y="652" type="line"/>
      <point x="129" y="43" type="line"/>
      <point x="91" y="37" type="line" smooth="yes"/>
      <point x="71" y="34"/>
      <point x="61" y="27"/>
      <point x="61" y="13" type="curve" smooth="yes"/>
      <point x="61" y="5"/>
      <point x="66" y="0"/>
      <point x="72" y="0" type="curve" smooth="yes"/>
    </contour>
    <contour>
      <point x="189" y="652" type="line"/>
      <point x="348" y="652" type="line" smooth="yes"/>
      <point x="511" y="652"/>
      <point x="614" y="542"/>
      <point x="614" y="347" type="curve" smooth="yes"/>
      <point x="614" y="152"/>
      <point x="511" y="43"/>
      <point x="348" y="43" type="curve" smooth="yes"/>
      <point x="189" y="43" type="line"/>
    </contour>
  </outline>
</glyph>
<glyph name="F" format="1">
  <advance width="642"/>
  <unicode hex="0046"/>
  <note>
	F
  </note>
  <outline>
    <contour>
      <point x="256" y="0" type="line" smooth="yes"/>
      <point x="264" y="0"/>
      <point x="265" y="5"/>
      <point x="265" y="11" type="curve" smooth="yes"/>
      <point x="265" y="21"/>
      <point x="260" y="28"/>
      <point x="243" y="31" type="curve" smooth="yes"/>
      <point x="189" y="40" type="line"/>
      <point x="189" y="321" type="line"/>
      <point x="479" y="321" type="line"/>
      <point x="488" y="272" type="line" smooth="yes"/>
      <point x="491" y="254"/>
      <point x="497" y="245"/>
      <point x="507" y="245" type="curve" smooth="yes"/>
      <point x="515" y="245"/>
      <point x="519" y="250"/>
      <point x="519" y="257" type="curve" smooth="yes"/>
      <point x="519" y="427" type="line" smooth="yes"/>
      <point x="519" y="434"/>
      <point x="515" y="439"/>
      <point x="507" y="439" type="curve" smooth="yes"/>
      <point x="497" y="439"/>
      <point x="491" y="431"/>
      <point x="488" y="413" type="curve" smooth="yes"/>
      <point x="479" y="364" type="line"/>
      <point x="189" y="364" type="line"/>
      <point x="189" y="652" type="line"/>
      <point x="530" y="652" type="line"/>
      <point x="539" y="597" type="line" smooth="yes"/>
      <point x="543" y="575"/>
      <point x="550" y="565"/>
      <point x="562" y="565" type="curve" smooth="yes"/>
      <point x="570" y="565"/>
      <point x="574" y="570"/>
      <point x="574" y="577" type="curve" smooth="yes"/>
      <point x="574" y="695" type="line"/>
      <point x="72" y="695" type="line" smooth="yes"/>
      <point x="66" y="695"/>
      <point x="61" y="690"/>
      <point x="61" y="682" type="curve" smooth="yes"/>
      <point x="61" y="668"/>
      <point x="70" y="661"/>
      <point x="91" y="658" type="curve" smooth="yes"/>
      <point x="129" y="652" type="line"/>
      <point x="129" y="39" type="line"/>
      <point x="92" y="39" type="line" smooth="yes"/>
      <point x="73" y="39"/>
      <point x="63" y="31"/>
      <point x="63" y="17" type="curve" smooth="yes"/>
      <point x="63" y="7"/>
      <point x="68" y="0"/>
      <point x="76" y="0" type="curve" smooth="yes"/>
    </contour>
  </outline>
</glyph>
<glyph name="H" format="1">
  <advance width="788"/>
  <unicode hex="0048"/>
  <note>
	H
  </note>
  <outline>
    <contour>
      <point x="254" y="0" type="line" smooth="yes"/>
      <point x="262" y="0"/>
      <point x="263" y="5"/>
      <point x="263" y="11" type="curve" smooth="yes"/>
      <point x="263" y="21"/>
      <point x="259" y="28"/>
      <point x="241" y="31" type="curve" smooth="yes"/>
      <point x="187" y="40" type="line"/>
      <point x="187" y="340" type="line"/>
      <point x="597" y="340" type="line"/>
      <point x="597" y="39" type="line"/>
      <point x="554" y="39" type="line" smooth="yes"/>
      <point x="536" y="39"/>
      <point x="526" y="31"/>
      <point x="526" y="17" type="curve" smooth="yes"/>
      <point x="526" y="7"/>
      <point x="531" y="0"/>
      <point x="539" y="0" type="curve" smooth="yes"/>
      <point x="718" y="0" type="line" smooth="yes"/>
      <point x="726" y="0"/>
      <point x="727" y="6"/>
      <point x="727" y="11" type="curve" smooth="yes"/>
      <point x="727" y="21"/>
      <point x="722" y="27"/>
      <point x="707" y="30" type="curve" smooth="yes"/>
      <point x="657" y="40" type="line"/>
      <point x="657" y="655" type="line"/>
      <point x="707" y="665" type="line" smooth="yes"/>
      <point x="720" y="668"/>
      <point x="727" y="674"/>
      <point x="727" y="684" type="curve" smooth="yes"/>
      <point x="727" y="689"/>
      <point x="726" y="695"/>
      <point x="718" y="695" type="curve" smooth="yes"/>
      <point x="554" y="695" type="line" smooth="yes"/>
      <point x="536" y="695"/>
      <point x="526" y="687"/>
      <point x="526" y="673" type="curve" smooth="yes"/>
      <point x="526" y="663"/>
      <point x="531" y="656"/>
      <point x="539" y="656" type="curve" smooth="yes"/>
      <point x="597" y="656" type="line"/>
      <point x="597" y="382" type="line"/>
      <point x="187" y="382" type="line"/>
      <point x="187" y="655" type="line"/>
      <point x="241" y="664" type="line" smooth="yes"/>
      <point x="256" y="667"/>
      <point x="263" y="674"/>
      <point x="263" y="684" type="curve" smooth="yes"/>
      <point x="263" y="690"/>
      <point x="262" y="695"/>
      <point x="254" y="695" type="curve" smooth="yes"/>
      <point x="89" y="695" type="line" smooth="yes"/>
      <point x="71" y="695"/>
      <point x="61" y="687"/>
      <point x="61" y="673" type="curve" smooth="yes"/>
      <point x="61" y="663"/>
      <point x="66" y="656"/>
      <point x="74" y="656" type="curve" smooth="yes"/>
      <point x="127" y="656" type="line"/>
      <point x="127" y="39" type="line"/>
      <point x="90" y="39" type="line" smooth="yes"/>
      <point x="71" y="39"/>
      <point x="61" y="31"/>
      <point x="61" y="17" type="curve" smooth="yes"/>
      <point x="61" y="7"/>
      <point x="66" y="0"/>
      <point x="74" y="0" type="curve" smooth="yes"/>
    </contour>
  </outline>
</glyph>
<glyph name="J" format="1">
  <advance width="361"/>
  <unicode hex="004A"/>
  <note>
	J
  </note>
  <outline>
    <contour>
      <point x="82" y="-11"/>
      <point x="94" y="-8"/>
      <point x="109" y="-2" type="curve" smooth="yes"/>
      <point x="197" y="37"/>
      <point x="238" y="104"/>
      <point x="238" y="216" type="curve" smooth="yes"/>
      <point x="238" y="655" type="line"/>
      <point x="291" y="664" type="line" smooth="yes"/>
      <point x="306" y="667"/>
      <point x="314" y="674"/>
      <point x="314" y="684" type="curve" smooth="yes"/>
      <point x="314" y="690"/>
      <point x="312" y="695"/>
      <point x="304" y="695" type="curve" smooth="yes"/>
      <point x="135" y="695" type="line" smooth="yes"/>
      <point x="117" y="695"/>
      <point x="107" y="687"/>
      <point x="107" y="673" type="curve" smooth="yes"/>
      <point x="107" y="663"/>
      <point x="112" y="656"/>
      <point x="120" y="656" type="curve" smooth="yes"/>
      <point x="178" y="656" type="line"/>
      <point x="178" y="220" type="line" smooth="yes"/>
      <point x="178" y="117"/>
      <point x="144" y="66"/>
      <point x="41" y="32" type="curve"/>
      <point x="42" y="1"/>
      <point x="56" y="-11"/>
      <point x="73" y="-11" type="curve" smooth="yes"/>
    </contour>
  </outline>
</glyph>
<glyph name="K" format="1">
  <advance width="662"/>
  <unicode hex="004B"/>
  <note>
	K
  </note>
  <outline>
    <contour>
      <point x="638" y="0" type="line" smooth="yes"/>
      <point x="646" y="0"/>
      <point x="648" y="6"/>
      <point x="648" y="11" type="curve" smooth="yes"/>
      <point x="648" y="22"/>
      <point x="640" y="29"/>
      <point x="625" y="31" type="curve" smooth="yes"/>
      <point x="574" y="39" type="line"/>
      <point x="256" y="369" type="line"/>
      <point x="566" y="657" type="line"/>
      <point x="607" y="662" type="line" smooth="yes"/>
      <point x="623" y="664"/>
      <point x="630" y="672"/>
      <point x="630" y="683" type="curve" smooth="yes"/>
      <point x="630" y="689"/>
      <point x="627" y="695"/>
      <point x="619" y="695" type="curve" smooth="yes"/>
      <point x="451" y="695" type="line" smooth="yes"/>
      <point x="433" y="695"/>
      <point x="423" y="687"/>
      <point x="423" y="673" type="curve" smooth="yes"/>
      <point x="423" y="663"/>
      <point x="429" y="656"/>
      <point x="437" y="656" type="curve" smooth="yes"/>
      <point x="503" y="656" type="line"/>
      <point x="187" y="362" type="line"/>
      <point x="528" y="0" type="line"/>
    </contour>
    <contour>
      <point x="254" y="0" type="line" smooth="yes"/>
      <point x="261" y="0"/>
      <point x="263" y="5"/>
      <point x="263" y="11" type="curve" smooth="yes"/>
      <point x="263" y="21"/>
      <point x="258" y="28"/>
      <point x="241" y="31" type="curve" smooth="yes"/>
      <point x="187" y="40" type="line"/>
      <point x="187" y="655" type="line"/>
      <point x="241" y="664" type="line" smooth="yes"/>
      <point x="256" y="667"/>
      <point x="263" y="674"/>
      <point x="263" y="684" type="curve" smooth="yes"/>
      <point x="263" y="690"/>
      <point x="260" y="695"/>
      <point x="253" y="695" type="curve" smooth="yes"/>
      <point x="89" y="695" type="line" smooth="yes"/>
      <point x="71" y="695"/>
      <point x="61" y="687"/>
      <point x="61" y="673" type="curve" smooth="yes"/>
      <point x="61" y="663"/>
      <point x="66" y="656"/>
      <point x="74" y="656" type="curve" smooth="yes"/>
      <point x="127" y="656" type="line"/>
      <point x="127" y="39" type="line"/>
      <point x="90" y="39" type="line" smooth="yes"/>
      <point x="72" y="39"/>
      <point x="61" y="31"/>
      <point x="61" y="17" type="curve" smooth="yes"/>
      <point x="61" y="7"/>
      <point x="66" y="0"/>
      <point x="74" y="0" type="curve" smooth="yes"/>
    </contour>
  </outline>
</glyph>
<glyph name="L" format="1">
  <advance width="585"/>
  <unicode hex="004C"/>
  <note>
	L
  </note>
  <outline>
    <contour>
      <point x="563" y="0" type="line"/>
      <point x="563" y="126" type="line" smooth="yes"/>
      <point x="563" y="133"/>
      <point x="560" y="138"/>
      <point x="551" y="138" type="curve" smooth="yes"/>
      <point x="540" y="138"/>
      <point x="533" y="128"/>
      <point x="529" y="105" type="curve" smooth="yes"/>
      <point x="518" y="43" type="line"/>
      <point x="189" y="43" type="line"/>
      <point x="189" y="655" type="line"/>
      <point x="245" y="664" type="line" smooth="yes"/>
      <point x="260" y="666"/>
      <point x="268" y="674"/>
      <point x="268" y="684" type="curve" smooth="yes"/>
      <point x="268" y="690"/>
      <point x="266" y="695"/>
      <point x="258" y="695" type="curve" smooth="yes"/>
      <point x="91" y="695" type="line" smooth="yes"/>
      <point x="73" y="695"/>
      <point x="63" y="687"/>
      <point x="63" y="673" type="curve" smooth="yes"/>
      <point x="63" y="663"/>
      <point x="68" y="656"/>
      <point x="76" y="656" type="curve" smooth="yes"/>
      <point x="129" y="656" type="line"/>
      <point x="129" y="43" type="line"/>
      <point x="91" y="37" type="line" smooth="yes"/>
      <point x="71" y="34"/>
      <point x="61" y="27"/>
      <point x="61" y="13" type="curve" smooth="yes"/>
      <point x="61" y="5"/>
      <point x="66" y="0"/>
      <point x="72" y="0" type="curve" smooth="yes"/>
    </contour>
  </outline>
</glyph>
<glyph name="M" format="1">
  <advance width="1013"/>
  <unicode hex="004D"/>
  <note>
	M
  </note>
  <outline>
    <contour>
      <point x="216" y="0" type="line" smooth="yes"/>
      <point x="223" y="0"/>
      <point x="225" y="5"/>
      <point x="225" y="11" type="curve" smooth="yes"/>
      <point x="225" y="22"/>
      <point x="219" y="28"/>
      <point x="202" y="31" type="curve" smooth="yes"/>
      <point x="144" y="40" type="line"/>
      <point x="255" y="592" type="line" smooth="yes"/>
      <point x="260" y="617"/>
      <point x="263" y="650"/>
      <point x="263" y="650" type="curve"/>
      <point x="268" y="650" type="line"/>
      <point x="268" y="650"/>
      <point x="276" y="617"/>
      <point x="283" y="592" type="curve" smooth="yes"/>
      <point x="465" y="0" type="line"/>
      <point x="538" y="0" type="line"/>
      <point x="710" y="592" type="line" smooth="yes"/>
      <point x="717" y="617"/>
      <point x="725" y="650"/>
      <point x="725" y="650" type="curve"/>
      <point x="731" y="650" type="line"/>
      <point x="731" y="650"/>
      <point x="734" y="617"/>
      <point x="739" y="592" type="curve" smooth="yes"/>
      <point x="857" y="39" type="line"/>
      <point x="811" y="39" type="line" smooth="yes"/>
      <point x="793" y="39"/>
      <point x="782" y="31"/>
      <point x="782" y="17" type="curve" smooth="yes"/>
      <point x="782" y="7"/>
      <point x="787" y="0"/>
      <point x="795" y="0" type="curve" smooth="yes"/>
      <point x="977" y="0" type="line" smooth="yes"/>
      <point x="985" y="0"/>
      <point x="986" y="6"/>
      <point x="986" y="12" type="curve" smooth="yes"/>
      <point x="986" y="23"/>
      <point x="979" y="29"/>
      <point x="964" y="32" type="curve" smooth="yes"/>
      <point x="917" y="40" type="line"/>
      <point x="785" y="652" type="line"/>
      <point x="823" y="657" type="line" smooth="yes"/>
      <point x="842" y="660"/>
      <point x="853" y="667"/>
      <point x="853" y="681" type="curve" smooth="yes"/>
      <point x="853" y="691"/>
      <point x="847" y="695"/>
      <point x="841" y="695" type="curve" smooth="yes"/>
      <point x="691" y="695" type="line"/>
      <point x="530" y="139" type="line" smooth="yes"/>
      <point x="519" y="101"/>
      <point x="511" y="48"/>
      <point x="511" y="48" type="curve" smooth="yes"/>
      <point x="505" y="48" type="line" smooth="yes"/>
      <point x="505" y="48"/>
      <point x="497" y="101"/>
      <point x="486" y="139" type="curve" smooth="yes"/>
      <point x="315" y="695" type="line"/>
      <point x="164" y="695" type="line" smooth="yes"/>
      <point x="158" y="695"/>
      <point x="152" y="691"/>
      <point x="152" y="681" type="curve" smooth="yes"/>
      <point x="152" y="667"/>
      <point x="163" y="659"/>
      <point x="182" y="657" type="curve" smooth="yes"/>
      <point x="221" y="652" type="line"/>
      <point x="97" y="39" type="line"/>
      <point x="59" y="39" type="line" smooth="yes"/>
      <point x="41" y="39"/>
      <point x="30" y="31"/>
      <point x="30" y="17" type="curve" smooth="yes"/>
      <point x="30" y="7"/>
      <point x="35" y="0"/>
      <point x="43" y="0" type="curve" smooth="yes"/>
    </contour>
  </outline>
</glyph>
<glyph name="O" format="1">
  <advance width="729"/>
  <unicode hex="004F"/>
  <note>
	O
  </note>
  <outline>
    <contour>
      <point x="552" y="-11"/>
      <point x="676" y="108"/>
      <point x="676" y="346" type="curve" smooth="yes"/>
      <point x="676" y="585"/>
      <point x="552" y="706"/>
      <point x="364" y="706" type="curve" smooth="yes"/>
      <point x="176" y="706"/>
      <point x="53" y="585"/>
      <point x="53" y="346" type="curve" smooth="yes"/>
      <point x="53" y="108"/>
      <point x="176" y="-11"/>
      <point x="364" y="-11" type="curve" smooth="yes"/>
    </contour>
    <contour>
      <point x="203" y="32"/>
      <point x="114" y="148"/>
      <point x="114" y="346" type="curve" smooth="yes"/>
      <point x="114" y="545"/>
      <point x="203" y="663"/>
      <point x="364" y="663" type="curve" smooth="yes"/>
      <point x="525" y="663"/>
      <point x="614" y="545"/>
      <point x="614" y="346" type="curve" smooth="yes"/>
      <point x="614" y="148"/>
      <point x="525" y="32"/>
      <point x="364" y="32" type="curve" smooth="yes"/>
    </contour>
  </outline>
</glyph>
<glyph name="P" format="1">
  <advance width="604"/>
  <unicode hex="0050"/>
  <note>
	P
  </note>
  <outline>
    <contour>
      <point x="258" y="0" type="line" smooth="yes"/>
      <point x="266" y="0"/>
      <point x="268" y="5"/>
      <point x="268" y="11" type="curve" smooth="yes"/>
      <point x="268" y="21"/>
      <point x="262" y="28"/>
      <point x="243" y="31" type="curve" smooth="yes"/>
      <point x="189" y="40" type="line"/>
      <point x="189" y="297" type="line"/>
      <point x="356" y="297" type="line" smooth="yes"/>
      <point x="480" y="297"/>
      <point x="572" y="363"/>
      <point x="572" y="496" type="curve" smooth="yes"/>
      <point x="572" y="629"/>
      <point x="480" y="695"/>
      <point x="356" y="695" type="curve" smooth="yes"/>
      <point x="72" y="695" type="line" smooth="yes"/>
      <point x="66" y="695"/>
      <point x="61" y="690"/>
      <point x="61" y="682" type="curve" smooth="yes"/>
      <point x="61" y="668"/>
      <point x="72" y="661"/>
      <point x="91" y="658" type="curve" smooth="yes"/>
      <point x="129" y="652" type="line"/>
      <point x="129" y="39" type="line"/>
      <point x="92" y="39" type="line" smooth="yes"/>
      <point x="74" y="39"/>
      <point x="63" y="31"/>
      <point x="63" y="17" type="curve" smooth="yes"/>
      <point x="63" y="7"/>
      <point x="68" y="0"/>
      <point x="76" y="0" type="curve" smooth="yes"/>
    </contour>
    <contour>
      <point x="189" y="652" type="line"/>
      <point x="355" y="652" type="line" smooth="yes"/>
      <point x="458" y="652"/>
      <point x="510" y="587"/>
      <point x="510" y="496" type="curve" smooth="yes"/>
      <point x="510" y="405"/>
      <point x="458" y="340"/>
      <point x="355" y="340" type="curve" smooth="yes"/>
      <point x="189" y="340" type="line"/>
    </contour>
  </outline>
</glyph>
<glyph name="Q" format="1">
  <advance width="729"/>
  <unicode hex="0051"/>
  <note>
	Q
  </note>
  <outline>
    <contour>
      <point x="567" y="-156"/>
      <point x="579" y="-147"/>
      <point x="579" y="-130" type="curve" smooth="yes"/>
      <point x="579" y="-116"/>
      <point x="569" y="-111"/>
      <point x="550" y="-105" type="curve" smooth="yes"/>
      <point x="516" y="-95"/>
      <point x="485" y="-80"/>
      <point x="457" y="-61" type="curve" smooth="yes"/>
      <point x="434" y="-46"/>
      <point x="413" y="-29"/>
      <point x="393" y="-10" type="curve"/>
      <point x="565" y="2"/>
      <point x="676" y="120"/>
      <point x="676" y="346" type="curve" smooth="yes"/>
      <point x="676" y="585"/>
      <point x="552" y="706"/>
      <point x="364" y="706" type="curve" smooth="yes"/>
      <point x="176" y="706"/>
      <point x="53" y="585"/>
      <point x="53" y="346" type="curve" smooth="yes"/>
      <point x="53" y="118"/>
      <point x="166" y="-1"/>
      <point x="340" y="-10" type="curve"/>
      <point x="364" y="-40"/>
      <point x="391" y="-69"/>
      <point x="421" y="-94" type="curve" smooth="yes"/>
      <point x="459" y="-125"/>
      <point x="509" y="-156"/>
      <point x="549" y="-156" type="curve" smooth="yes"/>
    </contour>
    <contour>
      <point x="203" y="32"/>
      <point x="114" y="148"/>
      <point x="114" y="346" type="curve" smooth="yes"/>
      <point x="114" y="545"/>
      <point x="203" y="663"/>
      <point x="364" y="663" type="curve" smooth="yes"/>
      <point x="525" y="663"/>
      <point x="614" y="545"/>
      <point x="614" y="346" type="curve" smooth="yes"/>
      <point x="614" y="148"/>
      <point x="525" y="32"/>
      <point x="364" y="32" type="curve" smooth="yes"/>
    </contour>
  </outline>
</glyph>
<glyph name="R" format="1">
  <advance width="649"/>
  <unicode hex="0052"/>
  <note>
	R
  </note>
  <outline>
    <contour>
      <point x="256" y="0" type="line" smooth="yes"/>
      <point x="264" y="0"/>
      <point x="265" y="5"/>
      <point x="265" y="11" type="curve" smooth="yes"/>
      <point x="265" y="21"/>
      <point x="259" y="28"/>
      <point x="243" y="31" type="curve" smooth="yes"/>
      <point x="189" y="40" type="line"/>
      <point x="189" y="336" type="line"/>
      <point x="507" y="0" type="line"/>
      <point x="617" y="0" type="line" smooth="yes"/>
      <point x="625" y="0"/>
      <point x="626" y="6"/>
      <point x="626" y="11" type="curve" smooth="yes"/>
      <point x="626" y="22"/>
      <point x="618" y="29"/>
      <point x="604" y="31" type="curve" smooth="yes"/>
      <point x="553" y="39" type="line"/>
      <point x="264" y="336" type="line"/>
      <point x="350" y="336" type="line" smooth="yes"/>
      <point x="473" y="336"/>
      <point x="565" y="384"/>
      <point x="565" y="514" type="curve" smooth="yes"/>
      <point x="565" y="645"/>
      <point x="473" y="695"/>
      <point x="350" y="695" type="curve" smooth="yes"/>
      <point x="72" y="695" type="line" smooth="yes"/>
      <point x="66" y="695"/>
      <point x="61" y="690"/>
      <point x="61" y="682" type="curve" smooth="yes"/>
      <point x="61" y="668"/>
      <point x="73" y="663"/>
      <point x="91" y="660" type="curve" smooth="yes"/>
      <point x="129" y="654" type="line"/>
      <point x="129" y="39" type="line"/>
      <point x="92" y="39" type="line" smooth="yes"/>
      <point x="74" y="39"/>
      <point x="63" y="31"/>
      <point x="63" y="17" type="curve" smooth="yes"/>
      <point x="63" y="7"/>
      <point x="68" y="0"/>
      <point x="76" y="0" type="curve" smooth="yes"/>
    </contour>
    <contour>
      <point x="189" y="654" type="line"/>
      <point x="349" y="654" type="line" smooth="yes"/>
      <point x="452" y="654"/>
      <point x="503" y="602"/>
      <point x="503" y="514" type="curve" smooth="yes"/>
      <point x="503" y="426"/>
      <point x="452" y="377"/>
      <point x="349" y="377" type="curve" smooth="yes"/>
      <point x="189" y="377" type="line"/>
    </contour>
  </outline>
</glyph>
<glyph name="T" format="1">
  <advance width="581"/>
  <unicode hex="0054"/>
  <note>
	T
  </note>
  <outline>
    <contour>
      <point x="387" y="0" type="line" smooth="yes"/>
      <point x="395" y="0"/>
      <point x="396" y="5"/>
      <point x="396" y="11" type="curve" smooth="yes"/>
      <point x="396" y="21"/>
      <point x="390" y="28"/>
      <point x="374" y="31" type="curve" smooth="yes"/>
      <point x="320" y="40" type="line"/>
      <point x="320" y="652" type="line"/>
      <point x="500" y="652" type="line"/>
      <point x="509" y="597" type="line" smooth="yes"/>
      <point x="512" y="577"/>
      <point x="519" y="567"/>
      <point x="531" y="567" type="curve" smooth="yes"/>
      <point x="539" y="567"/>
      <point x="545" y="571"/>
      <point x="545" y="580" type="curve" smooth="yes"/>
      <point x="545" y="695" type="line"/>
      <point x="36" y="695" type="line"/>
      <point x="36" y="580" type="line" smooth="yes"/>
      <point x="36" y="571"/>
      <point x="41" y="567"/>
      <point x="49" y="567" type="curve" smooth="yes"/>
      <point x="62" y="567"/>
      <point x="67" y="577"/>
      <point x="71" y="597" type="curve" smooth="yes"/>
      <point x="81" y="652" type="line"/>
      <point x="260" y="652" type="line"/>
      <point x="260" y="39" type="line"/>
      <point x="223" y="39" type="line" smooth="yes"/>
      <point x="205" y="39"/>
      <point x="194" y="31"/>
      <point x="194" y="17" type="curve" smooth="yes"/>
      <point x="194" y="7"/>
      <point x="199" y="0"/>
      <point x="207" y="0" type="curve" smooth="yes"/>
    </contour>
  </outline>
</glyph>
<glyph name="V" format="1">
  <advance width="699"/>
  <unicode hex="0056"/>
  <note>
	V
  </note>
  <outline>
    <contour>
      <point x="382" y="0" type="line"/>
      <point x="613" y="655" type="line"/>
      <point x="664" y="665" type="line" smooth="yes"/>
      <point x="677" y="668"/>
      <point x="685" y="674"/>
      <point x="685" y="684" type="curve" smooth="yes"/>
      <point x="685" y="689"/>
      <point x="683" y="695"/>
      <point x="675" y="695" type="curve" smooth="yes"/>
      <point x="517" y="695" type="line" smooth="yes"/>
      <point x="499" y="695"/>
      <point x="489" y="687"/>
      <point x="489" y="673" type="curve" smooth="yes"/>
      <point x="489" y="663"/>
      <point x="494" y="656"/>
      <point x="502" y="656" type="curve" smooth="yes"/>
      <point x="564" y="656" type="line"/>
      <point x="371" y="103" type="line" smooth="yes"/>
      <point x="360" y="74"/>
      <point x="355" y="43"/>
      <point x="355" y="43" type="curve" smooth="yes"/>
      <point x="349" y="43" type="line" smooth="yes"/>
      <point x="349" y="43"/>
      <point x="343" y="74"/>
      <point x="333" y="103" type="curve" smooth="yes"/>
      <point x="141" y="655" type="line"/>
      <point x="197" y="663" type="line" smooth="yes"/>
      <point x="213" y="665"/>
      <point x="221" y="673"/>
      <point x="221" y="684" type="curve" smooth="yes"/>
      <point x="221" y="690"/>
      <point x="219" y="695"/>
      <point x="212" y="695" type="curve" smooth="yes"/>
      <point x="42" y="695" type="line" smooth="yes"/>
      <point x="24" y="695"/>
      <point x="14" y="687"/>
      <point x="14" y="673" type="curve" smooth="yes"/>
      <point x="14" y="663"/>
      <point x="19" y="656"/>
      <point x="27" y="656" type="curve" smooth="yes"/>
      <point x="77" y="656" type="line"/>
      <point x="307" y="0" type="line"/>
    </contour>
  </outline>
</glyph>
<glyph name="X" format="1">
  <advance width="694"/>
  <unicode hex="0058"/>
  <note>
	X
  </note>
  <outline>
    <contour>
      <point x="206" y="0" type="line" smooth="yes"/>
      <point x="214" y="0"/>
      <point x="215" y="6"/>
      <point x="215" y="11" type="curve" smooth="yes"/>
      <point x="215" y="21"/>
      <point x="211" y="27"/>
      <point x="195" y="30" type="curve" smooth="yes"/>
      <point x="133" y="40" type="line"/>
      <point x="334" y="330" type="line"/>
      <point x="533" y="39" type="line"/>
      <point x="488" y="39" type="line" smooth="yes"/>
      <point x="470" y="39"/>
      <point x="460" y="31"/>
      <point x="460" y="17" type="curve" smooth="yes"/>
      <point x="460" y="7"/>
      <point x="465" y="0"/>
      <point x="474" y="0" type="curve" smooth="yes"/>
      <point x="666" y="0" type="line" smooth="yes"/>
      <point x="674" y="0"/>
      <point x="676" y="5"/>
      <point x="676" y="11" type="curve" smooth="yes"/>
      <point x="676" y="22"/>
      <point x="670" y="30"/>
      <point x="652" y="32" type="curve" smooth="yes"/>
      <point x="608" y="38" type="line"/>
      <point x="381" y="368" type="line"/>
      <point x="585" y="655" type="line"/>
      <point x="633" y="665" type="line" smooth="yes"/>
      <point x="646" y="668"/>
      <point x="654" y="674"/>
      <point x="654" y="684" type="curve" smooth="yes"/>
      <point x="654" y="689"/>
      <point x="652" y="695"/>
      <point x="644" y="695" type="curve" smooth="yes"/>
      <point x="489" y="695" type="line" smooth="yes"/>
      <point x="470" y="695"/>
      <point x="461" y="687"/>
      <point x="461" y="673" type="curve" smooth="yes"/>
      <point x="461" y="663"/>
      <point x="466" y="656"/>
      <point x="474" y="656" type="curve" smooth="yes"/>
      <point x="531" y="656" type="line"/>
      <point x="348" y="397" type="line"/>
      <point x="172" y="657" type="line"/>
      <point x="229" y="663" type="line" smooth="yes"/>
      <point x="245" y="665"/>
      <point x="253" y="673"/>
      <point x="253" y="684" type="curve" smooth="yes"/>
      <point x="253" y="690"/>
      <point x="251" y="695"/>
      <point x="244" y="695" type="curve" smooth="yes"/>
      <point x="69" y="695" type="line" smooth="yes"/>
      <point x="51" y="695"/>
      <point x="41" y="687"/>
      <point x="41" y="673" type="curve" smooth="yes"/>
      <point x="41" y="663"/>
      <point x="46" y="656"/>
      <point x="54" y="656" type="curve" smooth="yes"/>
      <point x="99" y="656" type="line"/>
      <point x="300" y="359" type="line"/>
      <point x="79" y="39" type="line"/>
      <point x="46" y="39" type="line" smooth="yes"/>
      <point x="28" y="39"/>
      <point x="18" y="31"/>
      <point x="18" y="17" type="curve" smooth="yes"/>
      <point x="18" y="7"/>
      <point x="23" y="0"/>
      <point x="31" y="0" type="curve" smooth="yes"/>
    </contour>
  </outline>
</glyph>
<glyph name="Y" format="1">
  <advance width="681"/>
  <unicode hex="0059"/>
  <note>
	Y
  </note>
  <outline>
    <contour>
      <point x="428" y="0" type="line" smooth="yes"/>
      <point x="436" y="0"/>
      <point x="437" y="5"/>
      <point x="437" y="11" type="curve" smooth="yes"/>
      <point x="437" y="21"/>
      <point x="432" y="28"/>
      <point x="415" y="31" type="curve" smooth="yes"/>
      <point x="361" y="40" type="line"/>
      <point x="361" y="305" type="line"/>
      <point x="597" y="655" type="line"/>
      <point x="646" y="665" type="line" smooth="yes"/>
      <point x="659" y="668"/>
      <point x="667" y="674"/>
      <point x="667" y="684" type="curve" smooth="yes"/>
      <point x="667" y="689"/>
      <point x="665" y="695"/>
      <point x="657" y="695" type="curve" smooth="yes"/>
      <point x="502" y="695" type="line" smooth="yes"/>
      <point x="484" y="695"/>
      <point x="474" y="687"/>
      <point x="474" y="673" type="curve" smooth="yes"/>
      <point x="474" y="663"/>
      <point x="479" y="656"/>
      <point x="487" y="656" type="curve" smooth="yes"/>
      <point x="545" y="656" type="line"/>
      <point x="340" y="352" type="line"/>
      <point x="148" y="655" type="line"/>
      <point x="207" y="663" type="line" smooth="yes"/>
      <point x="221" y="665"/>
      <point x="230" y="672"/>
      <point x="230" y="684" type="curve" smooth="yes"/>
      <point x="230" y="689"/>
      <point x="228" y="695"/>
      <point x="220" y="695" type="curve" smooth="yes"/>
      <point x="43" y="695" type="line" smooth="yes"/>
      <point x="25" y="695"/>
      <point x="15" y="687"/>
      <point x="15" y="673" type="curve" smooth="yes"/>
      <point x="15" y="663"/>
      <point x="20" y="656"/>
      <point x="28" y="656" type="curve" smooth="yes"/>
      <point x="73" y="656" type="line"/>
      <point x="301" y="302" type="line"/>
      <point x="301" y="39" type="line"/>
      <point x="264" y="39" type="line" smooth="yes"/>
      <point x="246" y="39"/>
      <point x="235" y="31"/>
      <point x="235" y="17" type="curve" smooth="yes"/>
      <point x="235" y="7"/>
      <point x="240" y="0"/>
      <point x="248" y="0" type="curve" smooth="yes"/>
    </contour>
  </outline>
</glyph>
<glyph name="Z" format="1">
  <advance width="625"/>
  <unicode hex="005A"/>
  <note>
	Z
  </note>
  <outline>
    <contour>
      <point x="567" y="0" type="line"/>
      <point x="567" y="119" type="line" smooth="yes"/>
      <point x="567" y="128"/>
      <point x="561" y="132"/>
      <point x="553" y="132" type="curve" smooth="yes"/>
      <point x="541" y="132"/>
      <point x="534" y="121"/>
      <point x="531" y="100" type="curve" smooth="yes"/>
      <point x="522" y="43" type="line"/>
      <point x="126" y="43" type="line"/>
      <point x="570" y="652" type="line"/>
      <point x="570" y="695" type="line"/>
      <point x="69" y="695" type="line"/>
      <point x="69" y="576" type="line" smooth="yes"/>
      <point x="69" y="567"/>
      <point x="75" y="563"/>
      <point x="83" y="563" type="curve" smooth="yes"/>
      <point x="95" y="563"/>
      <point x="102" y="574"/>
      <point x="105" y="595" type="curve" smooth="yes"/>
      <point x="114" y="652" type="line"/>
      <point x="496" y="652" type="line"/>
      <point x="52" y="43" type="line"/>
      <point x="52" y="0" type="line"/>
    </contour>
  </outline>
</glyph>
<glyph name="bracketleft" format="1">
  <advance width="281"/>
  <unicode hex="005B"/>
  <note>
	bracketleft
  </note>
  <outline>
    <contour>
      <point x="230" y="-136" type="line"/>
      <point x="230" y="-94" type="line"/>
      <point x="122" y="-94" type="line"/>
      <point x="122" y="696" type="line"/>
      <point x="230" y="696" type="line"/>
      <point x="230" y="739" type="line"/>
      <point x="64" y="739" type="line"/>
      <point x="64" y="-136" type="line"/>
    </contour>
  </outline>
</glyph>
<glyph name="backslash" format="1">
  <advance width="352"/>
  <unicode hex="005C"/>
  <note>
	backslash
  </note>
  <outline>
    <contour>
      <point x="375" y="-114" type="line"/>
      <point x="29" y="738" type="line"/>
      <point x="-24" y="718" type="line"/>
      <point x="323" y="-134" type="line"/>
    </contour>
  </outline>
</glyph>
<glyph name="bracketright" format="1">
  <advance width="281"/>
  <unicode hex="005D"/>
  <note>
	bracketright
  </note>
  <outline>
    <contour>
      <point x="217" y="-136" type="line"/>
      <point x="217" y="739" type="line"/>
      <point x="51" y="739" type="line"/>
      <point x="51" y="696" type="line"/>
      <point x="159" y="696" type="line"/>
      <point x="159" y="-94" type="line"/>
      <point x="51" y="-94" type="line"/>
      <point x="51" y="-136" type="line"/>
    </contour>
  </outline>
</glyph>
<glyph name="asciicircum" format="1">
  <advance width="563"/>
  <unicode hex="005E"/>
  <note>
	asciicircum
  </note>
  <outline>
    <contour>
      <point x="281" y="616" type="line"/>
      <point x="452" y="335" type="line"/>
      <point x="496" y="360" type="line"/>
      <point x="303" y="676" type="line"/>
      <point x="259" y="676" type="line"/>
      <point x="66" y="360" type="line"/>
      <point x="110" y="335" type="line"/>
    </contour>
  </outline>
</glyph>
<glyph name="underscore" format="1">
  <advance width="507"/>
  <unicode hex="005F"/>
  <note>
	underscore
  </note>
  <outline>
    <contour>
      <point x="512" y="-211" type="line"/>
      <point x="512" y="-164" type="line"/>
      <point x="-5" y="-164" type="line"/>
      <point x="-5" y="-211" type="line"/>
    </contour>
  </outline>
</glyph>
<glyph name="grave" format="1">
  <advance width="279"/>
  <unicode hex="0060"/>
  <note>
	grave
  </note>
  <outline>
    <contour>
      <point x="204" y="557" type="line"/>
      <point x="123" y="691" type="line"/>
      <point x="76" y="661" type="line"/>
      <point x="169" y="535" type="line"/>
    </contour>
  </outline>
</glyph>
<glyph name="a" format="1">
  <advance width="518"/>
  <unicode hex="0061"/>
  <note>
	a
  </note>
  <outline>
    <contour>
      <point x="282" y="-11"/>
      <point x="339" y="28"/>
      <point x="373" y="77" type="curve"/>
      <point x="377" y="77" type="line"/>
      <point x="377" y="0" type="line"/>
      <point x="484" y="0" type="line" smooth="yes"/>
      <point x="492" y="0"/>
      <point x="493" y="5"/>
      <point x="493" y="10" type="curve" smooth="yes"/>
      <point x="493" y="21"/>
      <point x="487" y="26"/>
      <point x="470" y="29" type="curve" smooth="yes"/>
      <point x="431" y="37" type="line"/>
      <point x="431" y="342" type="line" smooth="yes"/>
      <point x="431" y="443"/>
      <point x="356" y="498"/>
      <point x="262" y="498" type="curve" smooth="yes"/>
      <point x="197" y="498"/>
      <point x="123" y="473"/>
      <point x="73" y="442" type="curve"/>
      <point x="73" y="359" type="line" smooth="yes"/>
      <point x="73" y="353"/>
      <point x="77" y="348"/>
      <point x="85" y="348" type="curve" smooth="yes"/>
      <point x="96" y="348"/>
      <point x="102" y="356"/>
      <point x="105" y="372" type="curve" smooth="yes"/>
      <point x="113" y="418" type="line"/>
      <point x="149" y="441"/>
      <point x="211" y="459"/>
      <point x="254" y="459" type="curve" smooth="yes"/>
      <point x="332" y="459"/>
      <point x="375" y="408"/>
      <point x="375" y="342" type="curve" smooth="yes"/>
      <point x="375" y="294" type="line"/>
      <point x="223" y="271" type="line" smooth="yes"/>
      <point x="131" y="257"/>
      <point x="47" y="222"/>
      <point x="47" y="124" type="curve" smooth="yes"/>
      <point x="47" y="34"/>
      <point x="121" y="-11"/>
      <point x="199" y="-11" type="curve" smooth="yes"/>
    </contour>
    <contour>
      <point x="155" y="29"/>
      <point x="105" y="59"/>
      <point x="105" y="128" type="curve" smooth="yes"/>
      <point x="105" y="195"/>
      <point x="162" y="223"/>
      <point x="238" y="235" type="curve" smooth="yes"/>
      <point x="375" y="256" type="line"/>
      <point x="375" y="170" type="line" smooth="yes"/>
      <point x="375" y="90"/>
      <point x="294" y="29"/>
      <point x="216" y="29" type="curve" smooth="yes"/>
    </contour>
  </outline>
</glyph>
<glyph name="b" format="1">
  <advance width="564"/>
  <unicode hex="0062"/>
  <note>
	b
  </note>
  <outline>
    <contour>
      <point x="420" y="-11"/>
      <point x="520" y="66"/>
      <point x="520" y="240" type="curve" smooth="yes"/>
      <point x="520" y="417"/>
      <point x="433" y="498"/>
      <point x="313" y="498" type="curve" smooth="yes"/>
      <point x="246" y="498"/>
      <point x="187" y="471"/>
      <point x="146" y="418" type="curve"/>
      <point x="143" y="419" type="line"/>
      <point x="143" y="710" type="line"/>
      <point x="52" y="710" type="line" smooth="yes"/>
      <point x="36" y="710"/>
      <point x="24" y="704"/>
      <point x="24" y="689" type="curve" smooth="yes"/>
      <point x="24" y="678"/>
      <point x="29" y="673"/>
      <point x="37" y="673" type="curve" smooth="yes"/>
      <point x="89" y="673" type="line"/>
      <point x="89" y="47" type="line"/>
      <point x="142" y="13"/>
      <point x="222" y="-11"/>
      <point x="286" y="-11" type="curve" smooth="yes"/>
    </contour>
    <contour>
      <point x="238" y="28"/>
      <point x="181" y="44"/>
      <point x="145" y="67" type="curve"/>
      <point x="145" y="326" type="line" smooth="yes"/>
      <point x="145" y="398"/>
      <point x="218" y="459"/>
      <point x="300" y="459" type="curve" smooth="yes"/>
      <point x="391" y="459"/>
      <point x="462" y="402"/>
      <point x="462" y="239" type="curve" smooth="yes"/>
      <point x="462" y="110"/>
      <point x="413" y="28"/>
      <point x="282" y="28" type="curve" smooth="yes"/>
    </contour>
  </outline>
</glyph>
<glyph name="f" format="1">
  <advance width="376"/>
  <unicode hex="0066"/>
  <note>
	f
  </note>
  <outline>
    <contour>
      <point x="240" y="0" type="line" smooth="yes"/>
      <point x="248" y="0"/>
      <point x="250" y="5"/>
      <point x="250" y="10" type="curve" smooth="yes"/>
      <point x="250" y="21"/>
      <point x="245" y="26"/>
      <point x="228" y="29" type="curve" smooth="yes"/>
      <point x="176" y="38" type="line"/>
      <point x="176" y="446" type="line"/>
      <point x="274" y="453" type="line" smooth="yes"/>
      <point x="301" y="455"/>
      <point x="312" y="462"/>
      <point x="312" y="475" type="curve" smooth="yes"/>
      <point x="312" y="482"/>
      <point x="309" y="487"/>
      <point x="301" y="487" type="curve" smooth="yes"/>
      <point x="176" y="487" type="line"/>
      <point x="176" y="592" type="line" smooth="yes"/>
      <point x="176" y="647"/>
      <point x="207" y="678"/>
      <point x="255" y="678" type="curve" smooth="yes"/>
      <point x="280" y="678"/>
      <point x="306" y="673"/>
      <point x="326" y="659" type="curve"/>
      <point x="334" y="610" type="line" smooth="yes"/>
      <point x="337" y="594"/>
      <point x="342" y="586"/>
      <point x="353" y="586" type="curve" smooth="yes"/>
      <point x="361" y="586"/>
      <point x="365" y="591"/>
      <point x="365" y="596" type="curve" smooth="yes"/>
      <point x="365" y="678" type="line"/>
      <point x="342" y="699"/>
      <point x="295" y="718"/>
      <point x="248" y="718" type="curve" smooth="yes"/>
      <point x="172" y="718"/>
      <point x="120" y="672"/>
      <point x="120" y="589" type="curve" smooth="yes"/>
      <point x="120" y="487" type="line"/>
      <point x="76" y="487" type="line" smooth="yes"/>
      <point x="59" y="487"/>
      <point x="48" y="478"/>
      <point x="48" y="463" type="curve" smooth="yes"/>
      <point x="48" y="453"/>
      <point x="54" y="446"/>
      <point x="61" y="446" type="curve" smooth="yes"/>
      <point x="120" y="446" type="line"/>
      <point x="120" y="37" type="line"/>
      <point x="83" y="37" type="line" smooth="yes"/>
      <point x="67" y="37"/>
      <point x="55" y="31"/>
      <point x="55" y="16" type="curve" smooth="yes"/>
      <point x="55" y="6"/>
      <point x="60" y="0"/>
      <point x="68" y="0" type="curve" smooth="yes"/>
    </contour>
  </outline>
</glyph>
<glyph name="h" format="1">
  <advance width="614"/>
  <unicode hex="0068"/>
  <note>
	h
  </note>
  <outline>
    <contour>
      <point x="239" y="0" type="line" smooth="yes"/>
      <point x="247" y="0"/>
      <point x="249" y="5"/>
      <point x="249" y="10" type="curve" smooth="yes"/>
      <point x="249" y="21"/>
      <point x="243" y="26"/>
      <point x="227" y="29" type="curve" smooth="yes"/>
      <point x="175" y="38" type="line"/>
      <point x="175" y="371" type="line"/>
      <point x="219" y="422"/>
      <point x="279" y="457"/>
      <point x="338" y="457" type="curve" smooth="yes"/>
      <point x="415" y="457"/>
      <point x="458" y="408"/>
      <point x="458" y="341" type="curve" smooth="yes"/>
      <point x="458" y="37" type="line"/>
      <point x="421" y="37" type="line" smooth="yes"/>
      <point x="405" y="37"/>
      <point x="393" y="31"/>
      <point x="393" y="16" type="curve" smooth="yes"/>
      <point x="393" y="6"/>
      <point x="398" y="0"/>
      <point x="406" y="0" type="curve" smooth="yes"/>
      <point x="578" y="0" type="line" smooth="yes"/>
      <point x="586" y="0"/>
      <point x="588" y="5"/>
      <point x="588" y="10" type="curve" smooth="yes"/>
      <point x="588" y="21"/>
      <point x="580" y="27"/>
      <point x="566" y="29" type="curve" smooth="yes"/>
      <point x="514" y="38" type="line"/>
      <point x="514" y="345" type="line" smooth="yes"/>
      <point x="514" y="443"/>
      <point x="441" y="498"/>
      <point x="352" y="498" type="curve" smooth="yes"/>
      <point x="281" y="498"/>
      <point x="223" y="463"/>
      <point x="175" y="417" type="curve"/>
      <point x="173" y="419" type="line"/>
      <point x="173" y="710" type="line"/>
      <point x="82" y="710" type="line" smooth="yes"/>
      <point x="66" y="710"/>
      <point x="54" y="704"/>
      <point x="54" y="689" type="curve" smooth="yes"/>
      <point x="54" y="678"/>
      <point x="59" y="673"/>
      <point x="67" y="673" type="curve" smooth="yes"/>
      <point x="119" y="673" type="line"/>
      <point x="119" y="37" type="line"/>
      <point x="82" y="37" type="line" smooth="yes"/>
      <point x="66" y="37"/>
      <point x="54" y="31"/>
      <point x="54" y="16" type="curve" smooth="yes"/>
      <point x="54" y="6"/>
      <point x="59" y="0"/>
      <point x="67" y="0" type="curve" smooth="yes"/>
    </contour>
  </outline>
</glyph>
<glyph name="i" format="1">
  <advance width="264"/>
  <unicode hex="0069"/>
  <note>
	i
  </note>
  <outline>
    <contour>
      <point x="231" y="0" type="line" smooth="yes"/>
      <point x="239" y="0"/>
      <point x="241" y="5"/>
      <point x="241" y="10" type="curve" smooth="yes"/>
      <point x="241" y="21"/>
      <point x="233" y="26"/>
      <point x="219" y="29" type="curve" smooth="yes"/>
      <point x="168" y="38" type="line"/>
      <point x="168" y="488" type="line"/>
      <point x="74" y="488" type="line" smooth="yes"/>
      <point x="58" y="488"/>
      <point x="46" y="482"/>
      <point x="46" y="467" type="curve" smooth="yes"/>
      <point x="46" y="457"/>
      <point x="51" y="451"/>
      <point x="59" y="451" type="curve" smooth="yes"/>
      <point x="112" y="451" type="line"/>
      <point x="112" y="37" type="line"/>
      <point x="74" y="37" type="line" smooth="yes"/>
      <point x="58" y="37"/>
      <point x="46" y="31"/>
      <point x="46" y="16" type="curve" smooth="yes"/>
      <point x="46" y="6"/>
      <point x="51" y="0"/>
      <point x="59" y="0" type="curve" smooth="yes"/>
    </contour>
    <contour>
      <point x="163" y="573"/>
      <point x="182" y="590"/>
      <point x="182" y="618" type="curve" smooth="yes"/>
      <point x="182" y="645"/>
      <point x="163" y="662"/>
      <point x="138" y="662" type="curve" smooth="yes"/>
      <point x="114" y="662"/>
      <point x="94" y="645"/>
      <point x="94" y="618" type="curve" smooth="yes"/>
      <point x="94" y="590"/>
      <point x="114" y="573"/>
      <point x="138" y="573" type="curve" smooth="yes"/>
    </contour>
  </outline>
</glyph>
<glyph name="j" format="1">
  <advance width="277"/>
  <unicode hex="006A"/>
  <note>
	j
  </note>
  <outline>
    <contour>
      <point x="54" y="-227"/>
      <point x="64" y="-225"/>
      <point x="78" y="-218" type="curve" smooth="yes"/>
      <point x="167" y="-177"/>
      <point x="206" y="-111"/>
      <point x="206" y="0" type="curve" smooth="yes"/>
      <point x="206" y="488" type="line"/>
      <point x="112" y="488" type="line" smooth="yes"/>
      <point x="96" y="488"/>
      <point x="84" y="482"/>
      <point x="84" y="467" type="curve" smooth="yes"/>
      <point x="84" y="457"/>
      <point x="89" y="451"/>
      <point x="97" y="451" type="curve" smooth="yes"/>
      <point x="150" y="451" type="line"/>
      <point x="150" y="4" type="line" smooth="yes"/>
      <point x="150" y="-98"/>
      <point x="116" y="-150"/>
      <point x="13" y="-184" type="curve"/>
      <point x="14" y="-215"/>
      <point x="28" y="-227"/>
      <point x="45" y="-227" type="curve" smooth="yes"/>
    </contour>
    <contour>
      <point x="196" y="573"/>
      <point x="215" y="590"/>
      <point x="215" y="618" type="curve" smooth="yes"/>
      <point x="215" y="645"/>
      <point x="196" y="662"/>
      <point x="171" y="662" type="curve" smooth="yes"/>
      <point x="147" y="662"/>
      <point x="127" y="645"/>
      <point x="127" y="618" type="curve" smooth="yes"/>
      <point x="127" y="590"/>
      <point x="147" y="573"/>
      <point x="171" y="573" type="curve" smooth="yes"/>
    </contour>
  </outline>
</glyph>
<glyph name="l" format="1">
  <advance width="282"/>
  <unicode hex="006C"/>
  <note>
	l
  </note>
  <outline>
    <contour>
      <point x="241" y="0" type="line" smooth="yes"/>
      <point x="249" y="0"/>
      <point x="251" y="5"/>
      <point x="251" y="10" type="curve" smooth="yes"/>
      <point x="251" y="21"/>
      <point x="245" y="26"/>
      <point x="229" y="29" type="curve" smooth="yes"/>
      <point x="177" y="38" type="line"/>
      <point x="177" y="710" type="line"/>
      <point x="84" y="710" type="line" smooth="yes"/>
      <point x="68" y="710"/>
      <point x="56" y="704"/>
      <point x="56" y="689" type="curve" smooth="yes"/>
      <point x="56" y="678"/>
      <point x="61" y="673"/>
      <point x="69" y="673" type="curve" smooth="yes"/>
      <point x="121" y="673" type="line"/>
      <point x="121" y="37" type="line"/>
      <point x="84" y="37" type="line" smooth="yes"/>
      <point x="68" y="37"/>
      <point x="56" y="31"/>
      <point x="56" y="16" type="curve" smooth="yes"/>
      <point x="56" y="6"/>
      <point x="61" y="0"/>
      <point x="69" y="0" type="curve" smooth="yes"/>
    </contour>
  </outline>
</glyph>
<glyph name="m" format="1">
  <advance width="886"/>
  <unicode hex="006D"/>
  <note>
	m
  </note>
  <outline>
    <contour>
      <point x="236" y="0" type="line" smooth="yes"/>
      <point x="244" y="0"/>
      <point x="245" y="5"/>
      <point x="245" y="10" type="curve" smooth="yes"/>
      <point x="245" y="21"/>
      <point x="239" y="27"/>
      <point x="224" y="29" type="curve" smooth="yes"/>
      <point x="172" y="37" type="line"/>
      <point x="172" y="375" type="line"/>
      <point x="214" y="420"/>
      <point x="267" y="456"/>
      <point x="323" y="456" type="curve" smooth="yes"/>
      <point x="381" y="456"/>
      <point x="424" y="419"/>
      <point x="424" y="345" type="curve" smooth="yes"/>
      <point x="424" y="37" type="line"/>
      <point x="388" y="37" type="line" smooth="yes"/>
      <point x="372" y="37"/>
      <point x="360" y="31"/>
      <point x="360" y="16" type="curve" smooth="yes"/>
      <point x="360" y="6"/>
      <point x="365" y="0"/>
      <point x="373" y="0" type="curve" smooth="yes"/>
      <point x="544" y="0" type="line" smooth="yes"/>
      <point x="552" y="0"/>
      <point x="553" y="5"/>
      <point x="553" y="10" type="curve" smooth="yes"/>
      <point x="553" y="21"/>
      <point x="547" y="27"/>
      <point x="532" y="29" type="curve" smooth="yes"/>
      <point x="480" y="37" type="line"/>
      <point x="480" y="376" type="line"/>
      <point x="521" y="420"/>
      <point x="574" y="456"/>
      <point x="630" y="456" type="curve" smooth="yes"/>
      <point x="688" y="456"/>
      <point x="733" y="419"/>
      <point x="733" y="345" type="curve" smooth="yes"/>
      <point x="733" y="37" type="line"/>
      <point x="694" y="37" type="line" smooth="yes"/>
      <point x="678" y="37"/>
      <point x="666" y="31"/>
      <point x="666" y="16" type="curve" smooth="yes"/>
      <point x="666" y="6"/>
      <point x="671" y="0"/>
      <point x="679" y="0" type="curve" smooth="yes"/>
      <point x="850" y="0" type="line" smooth="yes"/>
      <point x="858" y="0"/>
      <point x="859" y="5"/>
      <point x="859" y="10" type="curve" smooth="yes"/>
      <point x="859" y="21"/>
      <point x="854" y="26"/>
      <point x="838" y="29" type="curve" smooth="yes"/>
      <point x="789" y="37" type="line"/>
      <point x="789" y="348" type="line" smooth="yes"/>
      <point x="789" y="450"/>
      <point x="722" y="498"/>
      <point x="644" y="498" type="curve" smooth="yes"/>
      <point x="570" y="498"/>
      <point x="514" y="454"/>
      <point x="470" y="412" type="curve"/>
      <point x="449" y="470"/>
      <point x="396" y="498"/>
      <point x="338" y="498" type="curve" smooth="yes"/>
      <point x="268" y="498"/>
      <point x="213" y="457"/>
      <point x="172" y="417" type="curve"/>
      <point x="168" y="417" type="line"/>
      <point x="168" y="488" type="line"/>
      <point x="79" y="488" type="line" smooth="yes"/>
      <point x="63" y="488"/>
      <point x="51" y="482"/>
      <point x="51" y="467" type="curve" smooth="yes"/>
      <point x="51" y="457"/>
      <point x="56" y="451"/>
      <point x="64" y="451" type="curve" smooth="yes"/>
      <point x="116" y="451" type="line"/>
      <point x="116" y="37" type="line"/>
      <point x="79" y="37" type="line" smooth="yes"/>
      <point x="63" y="37"/>
      <point x="51" y="31"/>
      <point x="51" y="16" type="curve" smooth="yes"/>
      <point x="51" y="6"/>
      <point x="56" y="0"/>
      <point x="64" y="0" type="curve" smooth="yes"/>
    </contour>
  </outline>
</glyph>
<glyph name="n" format="1">
  <advance width="611"/>
  <unicode hex="006E"/>
  <note>
	n
  </note>
  <outline>
    <contour>
      <point x="236" y="0" type="line" smooth="yes"/>
      <point x="244" y="0"/>
      <point x="246" y="5"/>
      <point x="246" y="10" type="curve" smooth="yes"/>
      <point x="246" y="21"/>
      <point x="239" y="26"/>
      <point x="224" y="29" type="curve" smooth="yes"/>
      <point x="172" y="38" type="line"/>
      <point x="172" y="371" type="line"/>
      <point x="216" y="421"/>
      <point x="276" y="456"/>
      <point x="335" y="456" type="curve" smooth="yes"/>
      <point x="412" y="456"/>
      <point x="455" y="408"/>
      <point x="455" y="341" type="curve" smooth="yes"/>
      <point x="455" y="37" type="line"/>
      <point x="418" y="37" type="line" smooth="yes"/>
      <point x="402" y="37"/>
      <point x="390" y="31"/>
      <point x="390" y="16" type="curve" smooth="yes"/>
      <point x="390" y="6"/>
      <point x="395" y="0"/>
      <point x="403" y="0" type="curve" smooth="yes"/>
      <point x="575" y="0" type="line" smooth="yes"/>
      <point x="583" y="0"/>
      <point x="585" y="5"/>
      <point x="585" y="10" type="curve" smooth="yes"/>
      <point x="585" y="21"/>
      <point x="578" y="26"/>
      <point x="563" y="29" type="curve" smooth="yes"/>
      <point x="511" y="38" type="line"/>
      <point x="511" y="345" type="line" smooth="yes"/>
      <point x="511" y="443"/>
      <point x="438" y="498"/>
      <point x="349" y="498" type="curve" smooth="yes"/>
      <point x="278" y="498"/>
      <point x="220" y="462"/>
      <point x="172" y="416" type="curve"/>
      <point x="168" y="416" type="line"/>
      <point x="168" y="488" type="line"/>
      <point x="79" y="488" type="line" smooth="yes"/>
      <point x="63" y="488"/>
      <point x="51" y="482"/>
      <point x="51" y="467" type="curve" smooth="yes"/>
      <point x="51" y="457"/>
      <point x="56" y="451"/>
      <point x="64" y="451" type="curve" smooth="yes"/>
      <point x="116" y="451" type="line"/>
      <point x="116" y="37" type="line"/>
      <point x="79" y="37" type="line" smooth="yes"/>
      <point x="63" y="37"/>
      <point x="51" y="31"/>
      <point x="51" y="16" type="curve" smooth="yes"/>
      <point x="51" y="6"/>
      <point x="56" y="0"/>
      <point x="64" y="0" type="curve" smooth="yes"/>
    </contour>
  </outline>
</glyph>
<glyph name="p" format="1">
  <advance width="596"/>
  <unicode hex="0070"/>
  <note>
	p
  </note>
  <outline>
    <contour>
      <point x="239" y="-213" type="line" smooth="yes"/>
      <point x="247" y="-213"/>
      <point x="249" y="-208"/>
      <point x="249" y="-203" type="curve" smooth="yes"/>
      <point x="249" y="-192"/>
      <point x="243" y="-187"/>
      <point x="226" y="-184" type="curve" smooth="yes"/>
      <point x="175" y="-175" type="line"/>
      <point x="175" y="27" type="line"/>
      <point x="219" y="4"/>
      <point x="278" y="-11"/>
      <point x="322" y="-11" type="curve" smooth="yes"/>
      <point x="457" y="-11"/>
      <point x="552" y="71"/>
      <point x="552" y="240" type="curve" smooth="yes"/>
      <point x="552" y="417"/>
      <point x="464" y="498"/>
      <point x="344" y="498" type="curve" smooth="yes"/>
      <point x="275" y="498"/>
      <point x="216" y="469"/>
      <point x="175" y="415" type="curve"/>
      <point x="172" y="416" type="line"/>
      <point x="172" y="488" type="line"/>
      <point x="82" y="488" type="line" smooth="yes"/>
      <point x="66" y="488"/>
      <point x="54" y="482"/>
      <point x="54" y="467" type="curve" smooth="yes"/>
      <point x="54" y="457"/>
      <point x="59" y="451"/>
      <point x="67" y="451" type="curve" smooth="yes"/>
      <point x="119" y="451" type="line"/>
      <point x="119" y="-176" type="line"/>
      <point x="82" y="-176" type="line" smooth="yes"/>
      <point x="66" y="-176"/>
      <point x="54" y="-182"/>
      <point x="54" y="-197" type="curve" smooth="yes"/>
      <point x="54" y="-207"/>
      <point x="59" y="-213"/>
      <point x="67" y="-213" type="curve" smooth="yes"/>
    </contour>
    <contour>
      <point x="270" y="28"/>
      <point x="210" y="47"/>
      <point x="175" y="70" type="curve"/>
      <point x="175" y="326" type="line" smooth="yes"/>
      <point x="175" y="398"/>
      <point x="248" y="459"/>
      <point x="331" y="459" type="curve" smooth="yes"/>
      <point x="423" y="459"/>
      <point x="494" y="402"/>
      <point x="494" y="239" type="curve" smooth="yes"/>
      <point x="494" y="113"/>
      <point x="444" y="28"/>
      <point x="313" y="28" type="curve" smooth="yes"/>
    </contour>
  </outline>
</glyph>
<glyph name="q" format="1">
  <advance width="566"/>
  <unicode hex="0071"/>
  <note>
	q
  </note>
  <outline>
    <contour>
      <point x="533" y="-213" type="line" smooth="yes"/>
      <point x="541" y="-213"/>
      <point x="543" y="-208"/>
      <point x="543" y="-203" type="curve" smooth="yes"/>
      <point x="543" y="-192"/>
      <point x="536" y="-187"/>
      <point x="520" y="-184" type="curve" smooth="yes"/>
      <point x="476" y="-176" type="line"/>
      <point x="476" y="488" type="line"/>
      <point x="450" y="488" type="line" smooth="yes"/>
      <point x="430" y="488"/>
      <point x="422" y="473"/>
      <point x="421" y="447" type="curve"/>
      <point x="383" y="474"/>
      <point x="329" y="498"/>
      <point x="263" y="498" type="curve" smooth="yes"/>
      <point x="140" y="498"/>
      <point x="42" y="399"/>
      <point x="42" y="240" type="curve" smooth="yes"/>
      <point x="42" y="66"/>
      <point x="142" y="-11"/>
      <point x="257" y="-11" type="curve" smooth="yes"/>
      <point x="339" y="-11"/>
      <point x="390" y="29"/>
      <point x="420" y="73" type="curve"/>
      <point x="423" y="73" type="line"/>
      <point x="423" y="-176" type="line"/>
      <point x="379" y="-176" type="line" smooth="yes"/>
      <point x="363" y="-176"/>
      <point x="352" y="-182"/>
      <point x="352" y="-197" type="curve" smooth="yes"/>
      <point x="352" y="-207"/>
      <point x="357" y="-213"/>
      <point x="365" y="-213" type="curve" smooth="yes"/>
    </contour>
    <contour>
      <point x="158" y="28"/>
      <point x="100" y="111"/>
      <point x="100" y="239" type="curve" smooth="yes"/>
      <point x="100" y="387"/>
      <point x="182" y="459"/>
      <point x="274" y="459" type="curve" smooth="yes"/>
      <point x="329" y="459"/>
      <point x="381" y="437"/>
      <point x="421" y="402" type="curve"/>
      <point x="421" y="170" type="line" smooth="yes"/>
      <point x="421" y="87"/>
      <point x="349" y="28"/>
      <point x="270" y="28" type="curve" smooth="yes"/>
    </contour>
  </outline>
</glyph>
<glyph name="r" format="1">
  <advance width="390"/>
  <unicode hex="0072"/>
  <note>
	r
  </note>
  <outline>
    <contour>
      <point x="236" y="0" type="line" smooth="yes"/>
      <point x="244" y="0"/>
      <point x="246" y="5"/>
      <point x="246" y="10" type="curve" smooth="yes"/>
      <point x="246" y="21"/>
      <point x="240" y="26"/>
      <point x="224" y="29" type="curve" smooth="yes"/>
      <point x="172" y="38" type="line"/>
      <point x="172" y="345" type="line"/>
      <point x="228" y="404"/>
      <point x="292" y="440"/>
      <point x="364" y="440" type="curve"/>
      <point x="370" y="447"/>
      <point x="374" y="457"/>
      <point x="374" y="468" type="curve" smooth="yes"/>
      <point x="374" y="486"/>
      <point x="361" y="498"/>
      <point x="339" y="498" type="curve" smooth="yes"/>
      <point x="288" y="498"/>
      <point x="220" y="446"/>
      <point x="172" y="390" type="curve"/>
      <point x="168" y="390" type="line"/>
      <point x="168" y="488" type="line"/>
      <point x="79" y="488" type="line" smooth="yes"/>
      <point x="63" y="488"/>
      <point x="51" y="482"/>
      <point x="51" y="467" type="curve" smooth="yes"/>
      <point x="51" y="457"/>
      <point x="56" y="451"/>
      <point x="64" y="451" type="curve" smooth="yes"/>
      <point x="116" y="451" type="line"/>
      <point x="116" y="37" type="line"/>
      <point x="79" y="37" type="line" smooth="yes"/>
      <point x="63" y="37"/>
      <point x="51" y="31"/>
      <point x="51" y="16" type="curve" smooth="yes"/>
      <point x="51" y="6"/>
      <point x="56" y="0"/>
      <point x="64" y="0" type="curve" smooth="yes"/>
    </contour>
  </outline>
</glyph>
<glyph name="v" format="1">
  <advance width="531"/>
  <unicode hex="0076"/>
  <note>
	v
  </note>
  <outline>
    <contour>
      <point x="300" y="0" type="line"/>
      <point x="458" y="450" type="line"/>
      <point x="501" y="459" type="line" smooth="yes"/>
      <point x="512" y="461"/>
      <point x="523" y="467"/>
      <point x="523" y="478" type="curve" smooth="yes"/>
      <point x="523" y="483"/>
      <point x="522" y="488"/>
      <point x="514" y="488" type="curve" smooth="yes"/>
      <point x="363" y="488" type="line" smooth="yes"/>
      <point x="347" y="488"/>
      <point x="335" y="482"/>
      <point x="335" y="467" type="curve" smooth="yes"/>
      <point x="335" y="457"/>
      <point x="340" y="451"/>
      <point x="348" y="451" type="curve" smooth="yes"/>
      <point x="414" y="451" type="line"/>
      <point x="278" y="63" type="line" smooth="yes"/>
      <point x="272" y="48"/>
      <point x="269" y="27"/>
      <point x="269" y="27" type="curve" smooth="yes"/>
      <point x="265" y="27" type="line" smooth="yes"/>
      <point x="265" y="27"/>
      <point x="262" y="48"/>
      <point x="257" y="63" type="curve" smooth="yes"/>
      <point x="123" y="450" type="line"/>
      <point x="181" y="459" type="line" smooth="yes"/>
      <point x="194" y="461"/>
      <point x="203" y="467"/>
      <point x="203" y="478" type="curve" smooth="yes"/>
      <point x="203" y="483"/>
      <point x="201" y="488"/>
      <point x="193" y="488" type="curve" smooth="yes"/>
      <point x="36" y="488" type="line" smooth="yes"/>
      <point x="20" y="488"/>
      <point x="8" y="482"/>
      <point x="8" y="467" type="curve" smooth="yes"/>
      <point x="8" y="457"/>
      <point x="13" y="451"/>
      <point x="21" y="451" type="curve" smooth="yes"/>
      <point x="63" y="451" type="line"/>
      <point x="222" y="0" type="line"/>
    </contour>
  </outline>
</glyph>
<glyph name="w" format="1">
  <advance width="809"/>
  <unicode hex="0077"/>
  <note>
	w
  </note>
  <outline>
    <contour>
      <point x="276" y="0" type="line"/>
      <point x="391" y="388" type="line" smooth="yes"/>
      <point x="397" y="412"/>
      <point x="399" y="444"/>
      <point x="399" y="444" type="curve"/>
      <point x="402" y="444" type="line"/>
      <point x="402" y="444"/>
      <point x="403" y="412"/>
      <point x="410" y="388" type="curve" smooth="yes"/>
      <point x="529" y="0" type="line"/>
      <point x="607" y="0" type="line"/>
      <point x="736" y="450" type="line"/>
      <point x="779" y="459" type="line" smooth="yes"/>
      <point x="791" y="462"/>
      <point x="801" y="467"/>
      <point x="801" y="478" type="curve" smooth="yes"/>
      <point x="801" y="483"/>
      <point x="800" y="488"/>
      <point x="792" y="488" type="curve" smooth="yes"/>
      <point x="641" y="488" type="line" smooth="yes"/>
      <point x="625" y="488"/>
      <point x="613" y="482"/>
      <point x="613" y="467" type="curve" smooth="yes"/>
      <point x="613" y="457"/>
      <point x="618" y="451"/>
      <point x="626" y="451" type="curve" smooth="yes"/>
      <point x="693" y="451" type="line"/>
      <point x="583" y="64" type="line" smooth="yes"/>
      <point x="579" y="47"/>
      <point x="577" y="29"/>
      <point x="577" y="29" type="curve" smooth="yes"/>
      <point x="573" y="29" type="line" smooth="yes"/>
      <point x="573" y="29"/>
      <point x="572" y="47"/>
      <point x="567" y="64" type="curve" smooth="yes"/>
      <point x="436" y="488" type="line"/>
      <point x="377" y="488" type="line"/>
      <point x="252" y="64" type="line" smooth="yes"/>
      <point x="247" y="47"/>
      <point x="246" y="29"/>
      <point x="246" y="29" type="curve" smooth="yes"/>
      <point x="242" y="29" type="line" smooth="yes"/>
      <point x="242" y="29"/>
      <point x="240" y="47"/>
      <point x="236" y="64" type="curve" smooth="yes"/>
      <point x="121" y="450" type="line"/>
      <point x="181" y="459" type="line" smooth="yes"/>
      <point x="194" y="461"/>
      <point x="203" y="467"/>
      <point x="203" y="478" type="curve" smooth="yes"/>
      <point x="203" y="483"/>
      <point x="201" y="488"/>
      <point x="193" y="488" type="curve" smooth="yes"/>
      <point x="36" y="488" type="line" smooth="yes"/>
      <point x="20" y="488"/>
      <point x="8" y="482"/>
      <point x="8" y="467" type="curve" smooth="yes"/>
      <point x="8" y="457"/>
      <point x="13" y="451"/>
      <point x="21" y="451" type="curve" smooth="yes"/>
      <point x="63" y="451" type="line"/>
      <point x="199" y="0" type="line"/>
    </contour>
  </outline>
</glyph>
<glyph name="x" format="1">
  <advance width="527"/>
  <unicode hex="0078"/>
  <note>
	x
  </note>
  <outline>
    <contour>
      <point x="194" y="0" type="line" smooth="yes"/>
      <point x="201" y="0"/>
      <point x="203" y="6"/>
      <point x="203" y="10" type="curve" smooth="yes"/>
      <point x="203" y="20"/>
      <point x="198" y="26"/>
      <point x="181" y="29" type="curve" smooth="yes"/>
      <point x="122" y="38" type="line"/>
      <point x="249" y="223" type="line"/>
      <point x="402" y="0" type="line"/>
      <point x="499" y="0" type="line" smooth="yes"/>
      <point x="507" y="0"/>
      <point x="508" y="6"/>
      <point x="508" y="10" type="curve" smooth="yes"/>
      <point x="508" y="20"/>
      <point x="501" y="26"/>
      <point x="486" y="29" type="curve" smooth="yes"/>
      <point x="443" y="38" type="line"/>
      <point x="296" y="252" type="line"/>
      <point x="436" y="450" type="line"/>
      <point x="479" y="459" type="line" smooth="yes"/>
      <point x="491" y="462"/>
      <point x="501" y="468"/>
      <point x="501" y="478" type="curve" smooth="yes"/>
      <point x="501" y="482"/>
      <point x="499" y="488"/>
      <point x="492" y="488" type="curve" smooth="yes"/>
      <point x="343" y="488" type="line" smooth="yes"/>
      <point x="329" y="488"/>
      <point x="317" y="481"/>
      <point x="317" y="467" type="curve" smooth="yes"/>
      <point x="317" y="457"/>
      <point x="322" y="451"/>
      <point x="330" y="451" type="curve" smooth="yes"/>
      <point x="389" y="451" type="line"/>
      <point x="267" y="279" type="line"/>
      <point x="127" y="488" type="line"/>
      <point x="53" y="488" type="line" smooth="yes"/>
      <point x="39" y="488"/>
      <point x="27" y="481"/>
      <point x="27" y="467" type="curve" smooth="yes"/>
      <point x="27" y="457"/>
      <point x="32" y="451"/>
      <point x="40" y="451" type="curve" smooth="yes"/>
      <point x="84" y="451" type="line"/>
      <point x="220" y="250" type="line"/>
      <point x="74" y="37" type="line"/>
      <point x="45" y="37" type="line" smooth="yes"/>
      <point x="31" y="37"/>
      <point x="19" y="30"/>
      <point x="19" y="16" type="curve" smooth="yes"/>
      <point x="19" y="6"/>
      <point x="24" y="0"/>
      <point x="32" y="0" type="curve" smooth="yes"/>
    </contour>
  </outline>
</glyph>
<glyph name="z" format="1">
  <advance width="464"/>
  <unicode hex="007A"/>
  <note>
	z
  </note>
  <outline>
    <contour>
      <point x="419" y="0" type="line"/>
      <point x="419" y="102" type="line" smooth="yes"/>
      <point x="419" y="110"/>
      <point x="414" y="115"/>
      <point x="406" y="115" type="curve" smooth="yes"/>
      <point x="393" y="115"/>
      <point x="386" y="107"/>
      <point x="384" y="90" type="curve" smooth="yes"/>
      <point x="377" y="39" type="line"/>
      <point x="114" y="39" type="line"/>
      <point x="414" y="447" type="line"/>
      <point x="414" y="488" type="line"/>
      <point x="58" y="488" type="line"/>
      <point x="58" y="388" type="line" smooth="yes"/>
      <point x="58" y="380"/>
      <point x="64" y="375"/>
      <point x="72" y="375" type="curve" smooth="yes"/>
      <point x="85" y="375"/>
      <point x="91" y="383"/>
      <point x="94" y="400" type="curve" smooth="yes"/>
      <point x="101" y="449" type="line"/>
      <point x="345" y="449" type="line"/>
      <point x="45" y="41" type="line"/>
      <point x="45" y="0" type="line"/>
    </contour>
  </outline>
</glyph>
<glyph name="braceleft" format="1">
  <advance width="430"/>
  <unicode hex="007B"/>
  <note>
	braceleft
  </note>
  <outline>
    <contour>
      <point x="379" y="-148" type="line"/>
      <point x="379" y="-105" type="line"/>
      <point x="314" y="-105" type="line" smooth="yes"/>
      <point x="268" y="-105"/>
      <point x="235" y="-81"/>
      <point x="235" y="-23" type="curve" smooth="yes"/>
      <point x="235" y="153" type="line" smooth="yes"/>
      <point x="235" y="231"/>
      <point x="199" y="279"/>
      <point x="129" y="300" type="curve"/>
      <point x="200" y="326"/>
      <point x="235" y="372"/>
      <point x="235" y="450" type="curve" smooth="yes"/>
      <point x="235" y="624" type="line" smooth="yes"/>
      <point x="235" y="683"/>
      <point x="268" y="706"/>
      <point x="314" y="706" type="curve" smooth="yes"/>
      <point x="379" y="706" type="line"/>
      <point x="379" y="749" type="line"/>
      <point x="309" y="749" type="line" smooth="yes"/>
      <point x="239" y="749"/>
      <point x="177" y="720"/>
      <point x="177" y="622" type="curve" smooth="yes"/>
      <point x="177" y="461" type="line" smooth="yes"/>
      <point x="177" y="388"/>
      <point x="145" y="338"/>
      <point x="58" y="327" type="curve"/>
      <point x="58" y="274" type="line"/>
      <point x="145" y="265"/>
      <point x="177" y="226"/>
      <point x="177" y="139" type="curve" smooth="yes"/>
      <point x="177" y="-21" type="line" smooth="yes"/>
      <point x="177" y="-118"/>
      <point x="239" y="-148"/>
      <point x="309" y="-148" type="curve" smooth="yes"/>
    </contour>
  </outline>
</glyph>
<glyph name="bar" format="1">
  <advance width="278"/>
  <unicode hex="007C"/>
  <note>
	bar
  </note>
  <outline>
    <contour>
      <point x="168" y="-132" type="line"/>
      <point x="168" y="724" type="line"/>
      <point x="110" y="724" type="line"/>
      <point x="110" y="-132" type="line"/>
    </contour>
  </outline>
</glyph>
<glyph name="braceright" format="1">
  <advance width="430"/>
  <unicode hex="007D"/>
  <note>
	braceright
  </note>
  <outline>
    <contour>
      <point x="121" y="-148" type="line" smooth="yes"/>
      <point x="191" y="-148"/>
      <point x="253" y="-118"/>
      <point x="253" y="-21" type="curve" smooth="yes"/>
      <point x="253" y="139" type="line" smooth="yes"/>
      <point x="253" y="226"/>
      <point x="285" y="265"/>
      <point x="372" y="274" type="curve"/>
      <point x="372" y="327" type="line"/>
      <point x="285" y="338"/>
      <point x="253" y="388"/>
      <point x="253" y="461" type="curve" smooth="yes"/>
      <point x="253" y="622" type="line" smooth="yes"/>
      <point x="253" y="720"/>
      <point x="191" y="749"/>
      <point x="121" y="749" type="curve" smooth="yes"/>
      <point x="51" y="749" type="line"/>
      <point x="51" y="706" type="line"/>
      <point x="116" y="706" type="line" smooth="yes"/>
      <point x="162" y="706"/>
      <point x="196" y="683"/>
      <point x="196" y="624" type="curve" smooth="yes"/>
      <point x="196" y="450" type="line" smooth="yes"/>
      <point x="196" y="372"/>
      <point x="230" y="326"/>
      <point x="302" y="300" type="curve"/>
      <point x="231" y="279"/>
      <point x="196" y="231"/>
      <point x="196" y="153" type="curve" smooth="yes"/>
      <point x="196" y="-23" type="line" smooth="yes"/>
      <point x="196" y="-81"/>
      <point x="162" y="-105"/>
      <point x="116" y="-105" type="curve" smooth="yes"/>
      <point x="51" y="-105" type="line"/>
      <point x="51" y="-148" type="line"/>
    </contour>
  </outline>
</glyph>
<glyph name="asciitilde" format="1">
  <advance width="609"/>
  <unicode hex="007E"/>
  <note>
	asciitilde
  </note>
  <outline>
    <contour>
      <point x="457" y="245"/>
      <point x="508" y="269"/>
      <point x="544" y="295" type="curve"/>
      <point x="523" y="336" type="line"/>
      <point x="486" y="311"/>
      <point x="443" y="295"/>
      <point x="410" y="295" type="curve" smooth="yes"/>
      <point x="378" y="295"/>
      <point x="352" y="301"/>
      <point x="310" y="319" type="curve" smooth="yes"/>
      <point x="260" y="341"/>
      <point x="230" y="347"/>
      <point x="196" y="347" type="curve" smooth="yes"/>
      <point x="147" y="347"/>
      <point x="94" y="323"/>
      <point x="59" y="297" type="curve"/>
      <point x="79" y="256" type="line"/>
      <point x="117" y="282"/>
      <point x="160" y="297"/>
      <point x="194" y="297" type="curve" smooth="yes"/>
      <point x="226" y="297"/>
      <point x="251" y="291"/>
      <point x="293" y="273" type="curve" smooth="yes"/>
      <point x="342" y="251"/>
      <point x="374" y="245"/>
      <point x="408" y="245" type="curve" smooth="yes"/>
    </contour>
  </outline>
</glyph>
<glyph name="exclamdown" format="1">
  <advance width="305"/>
  <unicode hex="00A1"/>
  <note>
	exclamdown
  </note>
  <outline>
    <contour>
      <point x="187" y="-220" type="line"/>
      <point x="172" y="327" type="line"/>
      <point x="133" y="327" type="line"/>
      <point x="117" y="-220" type="line"/>
    </contour>
    <contour>
      <point x="174" y="406"/>
      <point x="193" y="422"/>
      <point x="193" y="447" type="curve" smooth="yes"/>
      <point x="193" y="472"/>
      <point x="174" y="488"/>
      <point x="152" y="488" type="curve" smooth="yes"/>
      <point x="130" y="488"/>
      <point x="111" y="472"/>
      <point x="111" y="447" type="curve" smooth="yes"/>
      <point x="111" y="422"/>
      <point x="130" y="406"/>
      <point x="152" y="406" type="curve" smooth="yes"/>
    </contour>
  </outline>
</glyph>
<glyph name="cent" format="1">
  <advance width="557"/>
  <unicode hex="00A2"/>
  <note>
	cent
  </note>
  <outline>
    <contour>
      <point x="323" y="-57" type="line"/>
      <point x="323" y="18" type="line"/>
      <point x="373" y="20"/>
      <point x="422" y="33"/>
      <point x="456" y="56" type="curve" smooth="yes"/>
      <point x="473" y="67"/>
      <point x="487" y="79"/>
      <point x="487" y="91" type="curve" smooth="yes"/>
      <point x="487" y="101"/>
      <point x="480" y="112"/>
      <point x="469" y="112" type="curve" smooth="yes"/>
      <point x="463" y="112"/>
      <point x="459" y="108"/>
      <point x="452" y="103" type="curve" smooth="yes"/>
      <point x="415" y="75"/>
      <point x="371" y="60"/>
      <point x="315" y="60" type="curve" smooth="yes"/>
      <point x="203" y="60"/>
      <point x="125" y="143"/>
      <point x="125" y="290" type="curve" smooth="yes"/>
      <point x="125" y="436"/>
      <point x="200" y="517"/>
      <point x="310" y="517" type="curve" smooth="yes"/>
      <point x="355" y="517"/>
      <point x="411" y="503"/>
      <point x="439" y="476" type="curve"/>
      <point x="447" y="423" type="line" smooth="yes"/>
      <point x="450" y="405"/>
      <point x="456" y="397"/>
      <point x="468" y="397" type="curve" smooth="yes"/>
      <point x="476" y="397"/>
      <point x="481" y="402"/>
      <point x="481" y="409" type="curve" smooth="yes"/>
      <point x="481" y="497" type="line"/>
      <point x="452" y="526"/>
      <point x="389" y="552"/>
      <point x="329" y="558" type="curve"/>
      <point x="329" y="633" type="line"/>
      <point x="282" y="633" type="line"/>
      <point x="282" y="558" type="line"/>
      <point x="145" y="547"/>
      <point x="66" y="443"/>
      <point x="66" y="291" type="curve" smooth="yes"/>
      <point x="66" y="141"/>
      <point x="141" y="36"/>
      <point x="276" y="20" type="curve"/>
      <point x="276" y="-57" type="line"/>
    </contour>
  </outline>
</glyph>
<glyph name="sterling" format="1">
  <advance width="644"/>
  <unicode hex="00A3"/>
  <note>
	sterling
  </note>
  <outline>
    <contour>
      <point x="528" y="0" type="line"/>
      <point x="528" y="110" type="line" smooth="yes"/>
      <point x="528" y="119"/>
      <point x="522" y="125"/>
      <point x="513" y="125" type="curve" smooth="yes"/>
      <point x="501" y="125"/>
      <point x="492" y="117"/>
      <point x="489" y="95" type="curve" smooth="yes"/>
      <point x="482" y="43" type="line"/>
      <point x="201" y="43" type="line"/>
      <point x="235" y="73"/>
      <point x="260" y="117"/>
      <point x="260" y="173" type="curve" smooth="yes"/>
      <point x="260" y="207"/>
      <point x="250" y="238"/>
      <point x="237" y="269" type="curve"/>
      <point x="450" y="278" type="line" smooth="yes"/>
      <point x="464" y="279"/>
      <point x="476" y="284"/>
      <point x="476" y="299" type="curve" smooth="yes"/>
      <point x="476" y="305"/>
      <point x="473" y="312"/>
      <point x="463" y="312" type="curve" smooth="yes"/>
      <point x="218" y="312" type="line"/>
      <point x="200" y="350"/>
      <point x="184" y="388"/>
      <point x="184" y="427" type="curve" smooth="yes"/>
      <point x="184" y="510"/>
      <point x="242" y="550"/>
      <point x="322" y="550" type="curve" smooth="yes"/>
      <point x="378" y="550"/>
      <point x="422" y="535"/>
      <point x="462" y="507" type="curve"/>
      <point x="472" y="444" type="line" smooth="yes"/>
      <point x="475" y="424"/>
      <point x="483" y="414"/>
      <point x="496" y="414" type="curve" smooth="yes"/>
      <point x="505" y="414"/>
      <point x="511" y="419"/>
      <point x="511" y="429" type="curve" smooth="yes"/>
      <point x="511" y="525" type="line"/>
      <point x="462" y="564"/>
      <point x="394" y="592"/>
      <point x="320" y="592" type="curve" smooth="yes"/>
      <point x="212" y="592"/>
      <point x="127" y="538"/>
      <point x="127" y="428" type="curve" smooth="yes"/>
      <point x="127" y="387"/>
      <point x="141" y="348"/>
      <point x="157" y="312" type="curve"/>
      <point x="111" y="312" type="line" smooth="yes"/>
      <point x="94" y="312"/>
      <point x="83" y="301"/>
      <point x="83" y="287" type="curve" smooth="yes"/>
      <point x="83" y="276"/>
      <point x="90" y="269"/>
      <point x="99" y="269" type="curve" smooth="yes"/>
      <point x="176" y="269" type="line"/>
      <point x="190" y="237"/>
      <point x="202" y="206"/>
      <point x="202" y="176" type="curve" smooth="yes"/>
      <point x="202" y="122"/>
      <point x="186" y="85"/>
      <point x="136" y="43" type="curve"/>
      <point x="86" y="43" type="line" smooth="yes"/>
      <point x="69" y="43"/>
      <point x="58" y="32"/>
      <point x="58" y="18" type="curve" smooth="yes"/>
      <point x="58" y="8"/>
      <point x="64" y="0"/>
      <point x="73" y="0" type="curve" smooth="yes"/>
    </contour>
  </outline>
</glyph>
<glyph name="currency" format="1">
  <advance width="576"/>
  <unicode hex="00A4"/>
  <note>
	currency
  </note>
  <outline>
    <contour>
      <point x="183" y="145" type="line"/>
      <point x="212" y="125"/>
      <point x="247" y="115"/>
      <point x="288" y="115" type="curve" smooth="yes"/>
      <point x="329" y="115"/>
      <point x="364" y="125"/>
      <point x="393" y="145" type="curve"/>
      <point x="452" y="75" type="line"/>
      <point x="495" y="105" type="line"/>
      <point x="432" y="178" type="line"/>
      <point x="465" y="214"/>
      <point x="484" y="263"/>
      <point x="484" y="318" type="curve" smooth="yes"/>
      <point x="484" y="373"/>
      <point x="464" y="422"/>
      <point x="432" y="458" type="curve"/>
      <point x="495" y="531" type="line"/>
      <point x="452" y="562" type="line"/>
      <point x="393" y="491" type="line"/>
      <point x="364" y="511"/>
      <point x="329" y="521"/>
      <point x="288" y="521" type="curve" smooth="yes"/>
      <point x="247" y="521"/>
      <point x="212" y="511"/>
      <point x="183" y="491" type="curve"/>
      <point x="124" y="562" type="line"/>
      <point x="81" y="531" type="line"/>
      <point x="144" y="458" type="line"/>
      <point x="110" y="421"/>
      <point x="92" y="373"/>
      <point x="92" y="318" type="curve" smooth="yes"/>
      <point x="92" y="263"/>
      <point x="111" y="214"/>
      <point x="144" y="178" type="curve"/>
      <point x="81" y="105" type="line"/>
      <point x="124" y="74" type="line"/>
    </contour>
    <contour>
      <point x="206" y="163"/>
      <point x="144" y="225"/>
      <point x="144" y="318" type="curve" smooth="yes"/>
      <point x="144" y="411"/>
      <point x="206" y="473"/>
      <point x="288" y="473" type="curve" smooth="yes"/>
      <point x="370" y="473"/>
      <point x="432" y="411"/>
      <point x="432" y="318" type="curve" smooth="yes"/>
      <point x="432" y="225"/>
      <point x="370" y="163"/>
      <point x="288" y="163" type="curve" smooth="yes"/>
    </contour>
  </outline>
</glyph>
<glyph name="yen" format="1">
  <advance width="620"/>
  <unicode hex="00A5"/>
  <note>
	yen
  </note>
  <outline>
    <contour>
      <point x="400" y="0" type="line" smooth="yes"/>
      <point x="408" y="0"/>
      <point x="410" y="5"/>
      <point x="410" y="11" type="curve" smooth="yes"/>
      <point x="410" y="21"/>
      <point x="404" y="28"/>
      <point x="388" y="31" type="curve" smooth="yes"/>
      <point x="335" y="40" type="line"/>
      <point x="335" y="202" type="line"/>
      <point x="517" y="202" type="line"/>
      <point x="517" y="243" type="line"/>
      <point x="335" y="243" type="line"/>
      <point x="335" y="306" type="line"/>
      <point x="360" y="344" type="line"/>
      <point x="517" y="344" type="line"/>
      <point x="517" y="385" type="line"/>
      <point x="388" y="385" type="line"/>
      <point x="566" y="649" type="line"/>
      <point x="615" y="659" type="line" smooth="yes"/>
      <point x="628" y="662"/>
      <point x="636" y="668"/>
      <point x="636" y="678" type="curve" smooth="yes"/>
      <point x="636" y="683"/>
      <point x="634" y="689"/>
      <point x="626" y="689" type="curve" smooth="yes"/>
      <point x="472" y="689" type="line" smooth="yes"/>
      <point x="454" y="689"/>
      <point x="444" y="681"/>
      <point x="444" y="667" type="curve" smooth="yes"/>
      <point x="444" y="657"/>
      <point x="449" y="650"/>
      <point x="457" y="650" type="curve" smooth="yes"/>
      <point x="515" y="650" type="line"/>
      <point x="314" y="351" type="line"/>
      <point x="124" y="649" type="line"/>
      <point x="183" y="657" type="line" smooth="yes"/>
      <point x="197" y="659"/>
      <point x="206" y="666"/>
      <point x="206" y="678" type="curve" smooth="yes"/>
      <point x="206" y="683"/>
      <point x="204" y="689"/>
      <point x="196" y="689" type="curve" smooth="yes"/>
      <point x="20" y="689" type="line" smooth="yes"/>
      <point x="2" y="689"/>
      <point x="-8" y="681"/>
      <point x="-8" y="667" type="curve" smooth="yes"/>
      <point x="-8" y="657"/>
      <point x="-3" y="650"/>
      <point x="5" y="650" type="curve" smooth="yes"/>
      <point x="50" y="650" type="line"/>
      <point x="220" y="385" type="line"/>
      <point x="93" y="385" type="line"/>
      <point x="93" y="344" type="line"/>
      <point x="246" y="344" type="line"/>
      <point x="275" y="299" type="line"/>
      <point x="275" y="243" type="line"/>
      <point x="93" y="243" type="line"/>
      <point x="93" y="202" type="line"/>
      <point x="275" y="202" type="line"/>
      <point x="275" y="39" type="line"/>
      <point x="237" y="39" type="line" smooth="yes"/>
      <point x="219" y="39"/>
      <point x="208" y="31"/>
      <point x="208" y="17" type="curve" smooth="yes"/>
      <point x="208" y="7"/>
      <point x="213" y="0"/>
      <point x="221" y="0" type="curve" smooth="yes"/>
    </contour>
  </outline>
</glyph>
<glyph name="section" format="1">
  <advance width="588"/>
  <unicode hex="00A7"/>
  <note>
	section
  </note>
  <outline>
    <contour>
      <point x="389" y="-109"/>
      <point x="487" y="-65"/>
      <point x="487" y="42" type="curve" smooth="yes"/>
      <point x="487" y="68"/>
      <point x="482" y="89"/>
      <point x="472" y="108" type="curve"/>
      <point x="497" y="132"/>
      <point x="512" y="164"/>
      <point x="512" y="205" type="curve" smooth="yes"/>
      <point x="512" y="299"/>
      <point x="446" y="341"/>
      <point x="331" y="387" type="curve" smooth="yes"/>
      <point x="221" y="431"/>
      <point x="159" y="456"/>
      <point x="159" y="527" type="curve" smooth="yes"/>
      <point x="159" y="599"/>
      <point x="224" y="626"/>
      <point x="297" y="626" type="curve" smooth="yes"/>
      <point x="350" y="626"/>
      <point x="405" y="614"/>
      <point x="440" y="584" type="curve"/>
      <point x="450" y="530" type="line" smooth="yes"/>
      <point x="454" y="509"/>
      <point x="460" y="501"/>
      <point x="470" y="501" type="curve" smooth="yes"/>
      <point x="478" y="501"/>
      <point x="481" y="507"/>
      <point x="481" y="512" type="curve" smooth="yes"/>
      <point x="481" y="603" type="line"/>
      <point x="438" y="641"/>
      <point x="364" y="666"/>
      <point x="296" y="666" type="curve" smooth="yes"/>
      <point x="200" y="666"/>
      <point x="102" y="625"/>
      <point x="102" y="520" type="curve" smooth="yes"/>
      <point x="102" y="496"/>
      <point x="108" y="475"/>
      <point x="120" y="456" type="curve"/>
      <point x="94" y="434"/>
      <point x="77" y="401"/>
      <point x="77" y="357" type="curve" smooth="yes"/>
      <point x="77" y="271"/>
      <point x="153" y="224"/>
      <point x="257" y="184" type="curve" smooth="yes"/>
      <point x="380" y="135"/>
      <point x="430" y="111"/>
      <point x="430" y="38" type="curve" smooth="yes"/>
      <point x="430" y="-44"/>
      <point x="353" y="-69"/>
      <point x="275" y="-69" type="curve" smooth="yes"/>
      <point x="228" y="-69"/>
      <point x="163" y="-58"/>
      <point x="124" y="-30" type="curve"/>
      <point x="113" y="35" type="line" smooth="yes"/>
      <point x="109" y="58"/>
      <point x="103" y="66"/>
      <point x="91" y="66" type="curve" smooth="yes"/>
      <point x="83" y="66"/>
      <point x="79" y="61"/>
      <point x="79" y="54" type="curve" smooth="yes"/>
      <point x="79" y="-51" type="line"/>
      <point x="128" y="-92"/>
      <point x="218" y="-109"/>
      <point x="278" y="-109" type="curve" smooth="yes"/>
    </contour>
    <contour>
      <point x="410" y="175"/>
      <point x="362" y="199"/>
      <point x="297" y="225" type="curve" smooth="yes"/>
      <point x="191" y="266"/>
      <point x="136" y="289"/>
      <point x="134" y="357" type="curve" smooth="yes"/>
      <point x="133" y="382"/>
      <point x="140" y="402"/>
      <point x="151" y="419" type="curve"/>
      <point x="183" y="391"/>
      <point x="234" y="367"/>
      <point x="287" y="345" type="curve" smooth="yes"/>
      <point x="408" y="299"/>
      <point x="455" y="277"/>
      <point x="457" y="206" type="curve" smooth="yes"/>
      <point x="457" y="183"/>
      <point x="451" y="159"/>
      <point x="441" y="144" type="curve"/>
    </contour>
  </outline>
</glyph>
<glyph name="dieresis" format="1">
  <advance width="383"/>
  <unicode hex="00A8"/>
  <note>
	dieresis
  </note>
  <outline>
    <contour>
      <point x="308" y="548"/>
      <point x="327" y="566"/>
      <point x="327" y="590" type="curve" smooth="yes"/>
      <point x="327" y="615"/>
      <point x="308" y="633"/>
      <point x="285" y="633" type="curve" smooth="yes"/>
      <point x="263" y="633"/>
      <point x="243" y="615"/>
      <point x="243" y="590" type="curve" smooth="yes"/>
      <point x="243" y="566"/>
      <point x="263" y="548"/>
      <point x="285" y="548" type="curve" smooth="yes"/>
    </contour>
    <contour>
      <point x="122" y="548"/>
      <point x="141" y="566"/>
      <point x="141" y="590" type="curve" smooth="yes"/>
      <point x="141" y="615"/>
      <point x="122" y="633"/>
      <point x="99" y="633" type="curve" smooth="yes"/>
      <point x="77" y="633"/>
      <point x="57" y="615"/>
      <point x="57" y="590" type="curve" smooth="yes"/>
      <point x="57" y="566"/>
      <point x="77" y="548"/>
      <point x="99" y="548" type="curve" smooth="yes"/>
    </contour>
  </outline>
</glyph>
<glyph name="copyright" format="1">
  <advance width="791"/>
  <unicode hex="00A9"/>
  <note>
	copyright
  </note>
  <outline>
    <contour>
      <point x="605" y="-11"/>
      <point x="742" y="132"/>
      <point x="742" y="337" type="curve" smooth="yes"/>
      <point x="742" y="542"/>
      <point x="605" y="685"/>
      <point x="395" y="685" type="curve" smooth="yes"/>
      <point x="187" y="685"/>
      <point x="49" y="542"/>
      <point x="49" y="337" type="curve" smooth="yes"/>
      <point x="49" y="132"/>
      <point x="187" y="-11"/>
      <point x="395" y="-11" type="curve" smooth="yes"/>
    </contour>
    <contour>
      <point x="448" y="139"/>
      <point x="483" y="149"/>
      <point x="512" y="168" type="curve" smooth="yes"/>
      <point x="524" y="175"/>
      <point x="534" y="186"/>
      <point x="534" y="196" type="curve" smooth="yes"/>
      <point x="534" y="206"/>
      <point x="529" y="213"/>
      <point x="521" y="213" type="curve" smooth="yes"/>
      <point x="517" y="213"/>
      <point x="514" y="211"/>
      <point x="508" y="206" type="curve" smooth="yes"/>
      <point x="482" y="187"/>
      <point x="450" y="175"/>
      <point x="409" y="175" type="curve" smooth="yes"/>
      <point x="328" y="175"/>
      <point x="274" y="230"/>
      <point x="274" y="337" type="curve" smooth="yes"/>
      <point x="274" y="444"/>
      <point x="326" y="498"/>
      <point x="405" y="498" type="curve" smooth="yes"/>
      <point x="438" y="498"/>
      <point x="479" y="487"/>
      <point x="498" y="468" type="curve"/>
      <point x="506" y="430" type="line" smooth="yes"/>
      <point x="509" y="416"/>
      <point x="513" y="409"/>
      <point x="522" y="409" type="curve" smooth="yes"/>
      <point x="529" y="409"/>
      <point x="533" y="413"/>
      <point x="533" y="420" type="curve" smooth="yes"/>
      <point x="533" y="486" type="line"/>
      <point x="509" y="510"/>
      <point x="455" y="534"/>
      <point x="402" y="534" type="curve" smooth="yes"/>
      <point x="292" y="534"/>
      <point x="224" y="456"/>
      <point x="224" y="337" type="curve" smooth="yes"/>
      <point x="224" y="219"/>
      <point x="292" y="139"/>
      <point x="407" y="139" type="curve" smooth="yes"/>
    </contour>
    <contour>
      <point x="211" y="25"/>
      <point x="91" y="156"/>
      <point x="91" y="337" type="curve" smooth="yes"/>
      <point x="91" y="518"/>
      <point x="211" y="649"/>
      <point x="394" y="649" type="curve" smooth="yes"/>
      <point x="578" y="649"/>
      <point x="699" y="518"/>
      <point x="699" y="337" type="curve" smooth="yes"/>
      <point x="699" y="156"/>
      <point x="578" y="25"/>
      <point x="394" y="25" type="curve" smooth="yes"/>
    </contour>
  </outline>
</glyph>
<glyph name="ordfeminine" format="1">
  <advance width="401"/>
  <unicode hex="00AA"/>
  <note>
	ordfeminine
  </note>
  <outline>
    <contour>
      <point x="213" y="318"/>
      <point x="249" y="345"/>
      <point x="270" y="375" type="curve"/>
      <point x="273" y="375" type="line"/>
      <point x="273" y="325" type="line"/>
      <point x="352" y="325" type="line" smooth="yes"/>
      <point x="358" y="325"/>
      <point x="360" y="328"/>
      <point x="360" y="335" type="curve" smooth="yes"/>
      <point x="360" y="343"/>
      <point x="355" y="348"/>
      <point x="342" y="351" type="curve" smooth="yes"/>
      <point x="315" y="357" type="line"/>
      <point x="315" y="544" type="line" smooth="yes"/>
      <point x="315" y="608"/>
      <point x="271" y="643"/>
      <point x="204" y="643" type="curve" smooth="yes"/>
      <point x="162" y="643"/>
      <point x="111" y="626"/>
      <point x="80" y="606" type="curve"/>
      <point x="80" y="548" type="line" smooth="yes"/>
      <point x="80" y="541"/>
      <point x="84" y="537"/>
      <point x="91" y="537" type="curve" smooth="yes"/>
      <point x="98" y="537"/>
      <point x="105" y="542"/>
      <point x="107" y="554" type="curve" smooth="yes"/>
      <point x="112" y="585" type="line"/>
      <point x="134" y="598"/>
      <point x="171" y="610"/>
      <point x="199" y="610" type="curve" smooth="yes"/>
      <point x="249" y="610"/>
      <point x="272" y="586"/>
      <point x="272" y="544" type="curve" smooth="yes"/>
      <point x="272" y="517" type="line"/>
      <point x="177" y="503" type="line" smooth="yes"/>
      <point x="111" y="493"/>
      <point x="59" y="467"/>
      <point x="59" y="406" type="curve" smooth="yes"/>
      <point x="59" y="345"/>
      <point x="107" y="318"/>
      <point x="159" y="318" type="curve" smooth="yes"/>
    </contour>
    <contour>
      <point x="129" y="352"/>
      <point x="103" y="371"/>
      <point x="103" y="406" type="curve" smooth="yes"/>
      <point x="103" y="444"/>
      <point x="134" y="462"/>
      <point x="180" y="469" type="curve" smooth="yes"/>
      <point x="272" y="484" type="line"/>
      <point x="272" y="443" type="line" smooth="yes"/>
      <point x="272" y="392"/>
      <point x="220" y="352"/>
      <point x="170" y="352" type="curve" smooth="yes"/>
    </contour>
  </outline>
</glyph>
<glyph name="guillemotleft" format="1">
  <advance width="481"/>
  <unicode hex="00AB"/>
  <note>
	guillemotleft
  </note>
  <outline>
    <contour>
      <point x="401" y="76" type="line"/>
      <point x="298" y="237" type="line"/>
      <point x="401" y="398" type="line"/>
      <point x="366" y="425" type="line"/>
      <point x="241" y="250" type="line"/>
      <point x="241" y="224" type="line"/>
      <point x="366" y="49" type="line"/>
    </contour>
    <contour>
      <point x="231" y="76" type="line"/>
      <point x="128" y="237" type="line"/>
      <point x="231" y="398" type="line"/>
      <point x="196" y="425" type="line"/>
      <point x="71" y="250" type="line"/>
      <point x="71" y="224" type="line"/>
      <point x="196" y="49" type="line"/>
    </contour>
  </outline>
</glyph>
<glyph name="logicalnot" format="1">
  <advance width="643"/>
  <unicode hex="00AC"/>
  <note>
	logicalnot
  </note>
  <outline>
    <contour>
      <point x="554" y="141" type="line"/>
      <point x="554" y="365" type="line"/>
      <point x="80" y="365" type="line"/>
      <point x="80" y="316" type="line"/>
      <point x="498" y="316" type="line"/>
      <point x="498" y="141" type="line"/>
    </contour>
  </outline>
</glyph>
<glyph name="softhyphen" format="1">
  <advance width="289"/>
  <unicode hex="00AD"/>
  <note>
	softhyphen
  </note>
  <outline>
    <contour>
      <point x="238" y="251" type="line"/>
      <point x="238" y="294" type="line"/>
      <point x="51" y="294" type="line"/>
      <point x="51" y="251" type="line"/>
    </contour>
  </outline>
</glyph>
<glyph name="registered" format="1">
  <advance width="473"/>
  <unicode hex="00AE"/>
  <note>
	registered
  </note>
  <outline>
    <contour>
      <point x="364" y="339"/>
      <point x="451" y="429"/>
      <point x="451" y="552" type="curve" smooth="yes"/>
      <point x="451" y="676"/>
      <point x="364" y="766"/>
      <point x="236" y="766" type="curve" smooth="yes"/>
      <point x="111" y="766"/>
      <point x="23" y="676"/>
      <point x="23" y="552" type="curve" smooth="yes"/>
      <point x="23" y="429"/>
      <point x="111" y="339"/>
      <point x="236" y="339" type="curve" smooth="yes"/>
    </contour>
    <contour>
      <point x="133" y="371"/>
      <point x="59" y="442"/>
      <point x="59" y="552" type="curve" smooth="yes"/>
      <point x="59" y="663"/>
      <point x="133" y="734"/>
      <point x="235" y="734" type="curve" smooth="yes"/>
      <point x="339" y="734"/>
      <point x="414" y="663"/>
      <point x="414" y="552" type="curve" smooth="yes"/>
      <point x="414" y="442"/>
      <point x="339" y="371"/>
      <point x="235" y="371" type="curve" smooth="yes"/>
    </contour>
    <contour>
      <point x="229" y="449" type="line" smooth="yes"/>
      <point x="233" y="449"/>
      <point x="235" y="451"/>
      <point x="235" y="455" type="curve" smooth="yes"/>
      <point x="235" y="461"/>
      <point x="231" y="463"/>
      <point x="218" y="467" type="curve" smooth="yes"/>
      <point x="203" y="471" type="line"/>
      <point x="203" y="539" type="line"/>
      <point x="288" y="449" type="line"/>
      <point x="338" y="449" type="line" smooth="yes"/>
      <point x="342" y="449"/>
      <point x="344" y="452"/>
      <point x="344" y="455" type="curve" smooth="yes"/>
      <point x="344" y="461"/>
      <point x="340" y="464"/>
      <point x="327" y="467" type="curve" smooth="yes"/>
      <point x="311" y="471" type="line"/>
      <point x="239" y="544" type="line"/>
      <point x="255" y="544" type="line" smooth="yes"/>
      <point x="295" y="544"/>
      <point x="319" y="564"/>
      <point x="319" y="601" type="curve" smooth="yes"/>
      <point x="319" y="637"/>
      <point x="293" y="659"/>
      <point x="249" y="659" type="curve" smooth="yes"/>
      <point x="149" y="659" type="line" smooth="yes"/>
      <point x="142" y="659"/>
      <point x="139" y="656"/>
      <point x="139" y="651" type="curve" smooth="yes"/>
      <point x="139" y="644"/>
      <point x="146" y="641"/>
      <point x="158" y="638" type="curve" smooth="yes"/>
      <point x="171" y="634" type="line"/>
      <point x="171" y="471" type="line"/>
      <point x="155" y="471" type="line" smooth="yes"/>
      <point x="145" y="471"/>
      <point x="139" y="467"/>
      <point x="139" y="458" type="curve" smooth="yes"/>
      <point x="139" y="452"/>
      <point x="143" y="449"/>
      <point x="148" y="449" type="curve" smooth="yes"/>
    </contour>
    <contour>
      <point x="203" y="633" type="line"/>
      <point x="247" y="633" type="line" smooth="yes"/>
      <point x="272" y="633"/>
      <point x="286" y="623"/>
      <point x="286" y="601" type="curve" smooth="yes"/>
      <point x="286" y="578"/>
      <point x="272" y="567"/>
      <point x="247" y="567" type="curve" smooth="yes"/>
      <point x="203" y="567" type="line"/>
    </contour>
  </outline>
</glyph>
<glyph name="macron" format="1">
  <advance width="381"/>
  <unicode hex="00AF"/>
  <note>
	macron
  </note>
  <outline>
    <contour>
      <point x="329" y="561" type="line"/>
      <point x="329" y="603" type="line"/>
      <point x="52" y="603" type="line"/>
      <point x="52" y="561" type="line"/>
    </contour>
  </outline>
</glyph>
<glyph name="degree" format="1">
  <advance width="353"/>
  <unicode hex="00B0"/>
  <note>
	degree
  </note>
  <outline>
    <contour>
      <point x="247" y="552"/>
      <point x="301" y="599"/>
      <point x="301" y="672" type="curve" smooth="yes"/>
      <point x="301" y="745"/>
      <point x="247" y="792"/>
      <point x="176" y="792" type="curve" smooth="yes"/>
      <point x="105" y="792"/>
      <point x="51" y="745"/>
      <point x="51" y="672" type="curve" smooth="yes"/>
      <point x="51" y="599"/>
      <point x="105" y="552"/>
      <point x="176" y="552" type="curve" smooth="yes"/>
    </contour>
    <contour>
      <point x="133" y="588"/>
      <point x="95" y="617"/>
      <point x="95" y="672" type="curve" smooth="yes"/>
      <point x="95" y="727"/>
      <point x="133" y="756"/>
      <point x="176" y="756" type="curve" smooth="yes"/>
      <point x="219" y="756"/>
      <point x="257" y="727"/>
      <point x="257" y="672" type="curve" smooth="yes"/>
      <point x="257" y="617"/>
      <point x="219" y="588"/>
      <point x="176" y="588" type="curve" smooth="yes"/>
    </contour>
  </outline>
</glyph>
<glyph name="plusminus" format="1">
  <advance width="554"/>
  <unicode hex="00B1"/>
  <note>
	plusminus
  </note>
  <outline>
    <contour>
      <point x="305" y="185" type="line"/>
      <point x="305" y="370" type="line"/>
      <point x="491" y="370" type="line"/>
      <point x="491" y="413" type="line"/>
      <point x="305" y="413" type="line"/>
      <point x="305" y="600" type="line"/>
      <point x="250" y="600" type="line"/>
      <point x="250" y="413" type="line"/>
      <point x="63" y="413" type="line"/>
      <point x="63" y="370" type="line"/>
      <point x="250" y="370" type="line"/>
      <point x="250" y="185" type="line"/>
    </contour>
    <contour>
      <point x="491" y="0" type="line"/>
      <point x="491" y="43" type="line"/>
      <point x="63" y="43" type="line"/>
      <point x="63" y="0" type="line"/>
    </contour>
  </outline>
</glyph>
<glyph name="twosuperior" format="1">
  <advance width="320"/>
  <unicode hex="00B2"/>
  <note>
	twosuperior
  </note>
  <outline>
    <contour>
      <point x="284" y="392" type="line"/>
      <point x="284" y="425" type="line"/>
      <point x="90" y="425" type="line"/>
      <point x="197" y="535" type="line" smooth="yes"/>
      <point x="243" y="582"/>
      <point x="277" y="626"/>
      <point x="277" y="669" type="curve" smooth="yes"/>
      <point x="277" y="735"/>
      <point x="228" y="769"/>
      <point x="168" y="769" type="curve" smooth="yes"/>
      <point x="125" y="769"/>
      <point x="84" y="754"/>
      <point x="47" y="730" type="curve"/>
      <point x="47" y="671" type="line" smooth="yes"/>
      <point x="47" y="663"/>
      <point x="52" y="659"/>
      <point x="59" y="659" type="curve" smooth="yes"/>
      <point x="70" y="659"/>
      <point x="73" y="665"/>
      <point x="77" y="681" type="curve" smooth="yes"/>
      <point x="84" y="714" type="line"/>
      <point x="106" y="727"/>
      <point x="134" y="736"/>
      <point x="164" y="736" type="curve" smooth="yes"/>
      <point x="202" y="736"/>
      <point x="232" y="715"/>
      <point x="232" y="670" type="curve" smooth="yes"/>
      <point x="232" y="636"/>
      <point x="203" y="598"/>
      <point x="169" y="563" type="curve" smooth="yes"/>
      <point x="38" y="429" type="line"/>
      <point x="38" y="392" type="line"/>
    </contour>
  </outline>
</glyph>
<glyph name="threesuperior" format="1">
  <advance width="321"/>
  <unicode hex="00B3"/>
  <note>
	threesuperior
  </note>
  <outline>
    <contour>
      <point x="223" y="383"/>
      <point x="278" y="416"/>
      <point x="278" y="488" type="curve" smooth="yes"/>
      <point x="278" y="536"/>
      <point x="251" y="572"/>
      <point x="198" y="585" type="curve"/>
      <point x="240" y="600"/>
      <point x="265" y="632"/>
      <point x="265" y="675" type="curve" smooth="yes"/>
      <point x="265" y="741"/>
      <point x="213" y="769"/>
      <point x="156" y="769" type="curve" smooth="yes"/>
      <point x="111" y="769"/>
      <point x="66" y="752"/>
      <point x="34" y="730" type="curve"/>
      <point x="34" y="667" type="line" smooth="yes"/>
      <point x="34" y="660"/>
      <point x="38" y="656"/>
      <point x="44" y="656" type="curve" smooth="yes"/>
      <point x="54" y="656"/>
      <point x="59" y="662"/>
      <point x="61" y="677" type="curve" smooth="yes"/>
      <point x="67" y="712" type="line"/>
      <point x="90" y="727"/>
      <point x="118" y="736"/>
      <point x="150" y="736" type="curve" smooth="yes"/>
      <point x="192" y="736"/>
      <point x="223" y="718"/>
      <point x="223" y="672" type="curve" smooth="yes"/>
      <point x="223" y="623"/>
      <point x="180" y="600"/>
      <point x="135" y="595" type="curve" smooth="yes"/>
      <point x="91" y="590" type="line"/>
      <point x="91" y="558" type="line"/>
      <point x="133" y="563"/>
      <point x="143" y="565"/>
      <point x="153" y="565" type="curve" smooth="yes"/>
      <point x="203" y="565"/>
      <point x="236" y="533"/>
      <point x="236" y="491" type="curve" smooth="yes"/>
      <point x="236" y="440"/>
      <point x="200" y="416"/>
      <point x="140" y="416" type="curve" smooth="yes"/>
      <point x="104" y="416"/>
      <point x="62" y="426"/>
      <point x="28" y="440" type="curve"/>
      <point x="28" y="406" type="line"/>
      <point x="54" y="394"/>
      <point x="98" y="383"/>
      <point x="143" y="383" type="curve" smooth="yes"/>
    </contour>
  </outline>
</glyph>
<glyph name="acute" format="1">
  <advance width="278"/>
  <unicode hex="00B4"/>
  <note>
	acute
  </note>
  <outline>
    <contour>
      <point x="207" y="661" type="line"/>
      <point x="160" y="691" type="line"/>
      <point x="79" y="557" type="line"/>
      <point x="114" y="535" type="line"/>
    </contour>
  </outline>
</glyph>
<glyph name="mu" format="1">
  <advance width="606"/>
  <unicode hex="00B5"/>
  <note>
	mu
  </note>
  <outline>
    <contour>
      <point x="151" y="-240" type="line"/>
      <point x="144" y="43" type="line"/>
      <point x="172" y="8"/>
      <point x="217" y="-11"/>
      <point x="263" y="-11" type="curve" smooth="yes"/>
      <point x="334" y="-11"/>
      <point x="389" y="26"/>
      <point x="432" y="71" type="curve"/>
      <point x="435" y="71" type="line"/>
      <point x="435" y="50" type="line" smooth="yes"/>
      <point x="435" y="7"/>
      <point x="466" y="-11"/>
      <point x="501" y="-11" type="curve" smooth="yes"/>
      <point x="529" y="-11"/>
      <point x="561" y="1"/>
      <point x="577" y="12" type="curve"/>
      <point x="577" y="49" type="line"/>
      <point x="561" y="39"/>
      <point x="540" y="29"/>
      <point x="518" y="29" type="curve" smooth="yes"/>
      <point x="498" y="29"/>
      <point x="484" y="38"/>
      <point x="484" y="65" type="curve" smooth="yes"/>
      <point x="484" y="488" type="line"/>
      <point x="428" y="488" type="line"/>
      <point x="428" y="118" type="line"/>
      <point x="383" y="66"/>
      <point x="327" y="31"/>
      <point x="266" y="31" type="curve" smooth="yes"/>
      <point x="190" y="31"/>
      <point x="147" y="79"/>
      <point x="147" y="140" type="curve" smooth="yes"/>
      <point x="147" y="488" type="line"/>
      <point x="90" y="488" type="line"/>
      <point x="90" y="48" type="line"/>
      <point x="83" y="-240" type="line"/>
    </contour>
  </outline>
</glyph>
<glyph name="paragraph" format="1">
  <advance width="670"/>
  <unicode hex="00B6"/>
  <note>
	paragraph
  </note>
  <outline>
    <contour>
      <point x="544" y="-160" type="line" smooth="yes"/>
      <point x="552" y="-160"/>
      <point x="554" y="-154"/>
      <point x="554" y="-149" type="curve" smooth="yes"/>
      <point x="554" y="-138"/>
      <point x="545" y="-131"/>
      <point x="526" y="-130" type="curve" smooth="yes"/>
      <point x="369" y="-122" type="line"/>
      <point x="369" y="657" type="line"/>
      <point x="434" y="657" type="line"/>
      <point x="434" y="-67" type="line"/>
      <point x="481" y="-67" type="line"/>
      <point x="481" y="656" type="line"/>
      <point x="528" y="665" type="line" smooth="yes"/>
      <point x="542" y="668"/>
      <point x="550" y="675"/>
      <point x="550" y="685" type="curve" smooth="yes"/>
      <point x="550" y="690"/>
      <point x="548" y="695"/>
      <point x="541" y="695" type="curve" smooth="yes"/>
      <point x="293" y="695" type="line" smooth="yes"/>
      <point x="180" y="695"/>
      <point x="96" y="649"/>
      <point x="96" y="537" type="curve" smooth="yes"/>
      <point x="96" y="435"/>
      <point x="170" y="379"/>
      <point x="271" y="379" type="curve" smooth="yes"/>
      <point x="322" y="379" type="line"/>
      <point x="322" y="-122" type="line"/>
      <point x="274" y="-122" type="line" smooth="yes"/>
      <point x="256" y="-122"/>
      <point x="245" y="-129"/>
      <point x="245" y="-144" type="curve" smooth="yes"/>
      <point x="245" y="-154"/>
      <point x="250" y="-160"/>
      <point x="258" y="-160" type="curve" smooth="yes"/>
    </contour>
  </outline>
</glyph>
<glyph name="periodcentered" format="1">
  <advance width="279"/>
  <unicode hex="00B7"/>
  <note>
	periodcentered
  </note>
  <outline>
    <contour>
      <point x="168" y="288"/>
      <point x="191" y="309"/>
      <point x="191" y="341" type="curve" smooth="yes"/>
      <point x="191" y="372"/>
      <point x="168" y="393"/>
      <point x="140" y="393" type="curve" smooth="yes"/>
      <point x="111" y="393"/>
      <point x="88" y="372"/>
      <point x="88" y="341" type="curve" smooth="yes"/>
      <point x="88" y="309"/>
      <point x="111" y="288"/>
      <point x="140" y="288" type="curve" smooth="yes"/>
    </contour>
  </outline>
</glyph>
<glyph name="cedilla" format="1">
  <advance width="378"/>
  <unicode hex="00B8"/>
  <note>
	cedilla
  </note>
  <outline>
    <contour>
      <point x="192" y="-192"/>
      <point x="243" y="-158"/>
      <point x="243" y="-113" type="curve" smooth="yes"/>
      <point x="243" y="-74"/>
      <point x="219" y="-55"/>
      <point x="194" y="-45" type="curve"/>
      <point x="215" y="0" type="line"/>
      <point x="172" y="0" type="line"/>
      <point x="151" y="-57" type="line"/>
      <point x="186" y="-67"/>
      <point x="198" y="-85"/>
      <point x="198" y="-112" type="curve" smooth="yes"/>
      <point x="198" y="-140"/>
      <point x="175" y="-165"/>
      <point x="129" y="-180" type="curve"/>
      <point x="139" y="-205" type="line"/>
    </contour>
  </outline>
</glyph>
<glyph name="onesuperior" format="1">
  <advance width="234"/>
  <unicode hex="00B9"/>
  <note>
	onesuperior
  </note>
  <outline>
    <contour>
      <point x="190" y="392" type="line" smooth="yes"/>
      <point x="196" y="392"/>
      <point x="198" y="396"/>
      <point x="198" y="401" type="curve" smooth="yes"/>
      <point x="198" y="410"/>
      <point x="193" y="415"/>
      <point x="178" y="416" type="curve" smooth="yes"/>
      <point x="137" y="420" type="line"/>
      <point x="137" y="761" type="line"/>
      <point x="94" y="761" type="line"/>
      <point x="29" y="738" type="line"/>
      <point x="29" y="708" type="line"/>
      <point x="91" y="729" type="line"/>
      <point x="91" y="421" type="line"/>
      <point x="44" y="421" type="line" smooth="yes"/>
      <point x="32" y="421"/>
      <point x="24" y="415"/>
      <point x="24" y="404" type="curve" smooth="yes"/>
      <point x="24" y="396"/>
      <point x="29" y="392"/>
      <point x="35" y="392" type="curve" smooth="yes"/>
    </contour>
  </outline>
</glyph>
<glyph name="ordmasculine" format="1">
  <advance width="394"/>
  <unicode hex="00BA"/>
  <note>
	ordmasculine
  </note>
  <outline>
    <contour>
      <point x="287" y="318"/>
      <point x="341" y="383"/>
      <point x="341" y="481" type="curve" smooth="yes"/>
      <point x="341" y="578"/>
      <point x="287" y="643"/>
      <point x="197" y="643" type="curve" smooth="yes"/>
      <point x="107" y="643"/>
      <point x="53" y="578"/>
      <point x="53" y="481" type="curve" smooth="yes"/>
      <point x="53" y="383"/>
      <point x="107" y="318"/>
      <point x="197" y="318" type="curve" smooth="yes"/>
    </contour>
    <contour>
      <point x="133" y="351"/>
      <point x="97" y="400"/>
      <point x="97" y="481" type="curve" smooth="yes"/>
      <point x="97" y="561"/>
      <point x="133" y="610"/>
      <point x="197" y="610" type="curve" smooth="yes"/>
      <point x="260" y="610"/>
      <point x="297" y="561"/>
      <point x="297" y="481" type="curve" smooth="yes"/>
      <point x="297" y="400"/>
      <point x="260" y="351"/>
      <point x="197" y="351" type="curve" smooth="yes"/>
    </contour>
  </outline>
</glyph>
<glyph name="guillemotright" format="1">
  <advance width="481"/>
  <unicode hex="00BB"/>
  <note>
	guillemotright
  </note>
  <outline>
    <contour>
      <point x="411" y="224" type="line"/>
      <point x="411" y="250" type="line"/>
      <point x="286" y="425" type="line"/>
      <point x="251" y="398" type="line"/>
      <point x="354" y="237" type="line"/>
      <point x="251" y="76" type="line"/>
      <point x="286" y="49" type="line"/>
    </contour>
    <contour>
      <point x="241" y="224" type="line"/>
      <point x="241" y="250" type="line"/>
      <point x="116" y="425" type="line"/>
      <point x="81" y="398" type="line"/>
      <point x="184" y="237" type="line"/>
      <point x="81" y="76" type="line"/>
      <point x="116" y="49" type="line"/>
    </contour>
  </outline>
</glyph>
<glyph name="onequarter" format="1">
  <advance width="796"/>
  <unicode hex="00BC"/>
  <note>
	onequarter
  </note>
  <outline>
    <contour>
      <point x="655" y="670" type="line"/>
      <point x="617" y="695" type="line"/>
      <point x="142" y="8" type="line"/>
      <point x="179" y="-17" type="line"/>
    </contour>
    <contour>
      <point x="206" y="307" type="line" smooth="yes"/>
      <point x="212" y="307"/>
      <point x="214" y="311"/>
      <point x="214" y="316" type="curve" smooth="yes"/>
      <point x="214" y="326"/>
      <point x="209" y="330"/>
      <point x="194" y="331" type="curve" smooth="yes"/>
      <point x="153" y="335" type="line"/>
      <point x="153" y="676" type="line"/>
      <point x="110" y="676" type="line"/>
      <point x="45" y="653" type="line"/>
      <point x="45" y="624" type="line"/>
      <point x="107" y="644" type="line"/>
      <point x="107" y="336" type="line"/>
      <point x="60" y="336" type="line" smooth="yes"/>
      <point x="48" y="336"/>
      <point x="40" y="330"/>
      <point x="40" y="319" type="curve" smooth="yes"/>
      <point x="40" y="311"/>
      <point x="45" y="307"/>
      <point x="51" y="307" type="curve" smooth="yes"/>
    </contour>
    <contour>
      <point x="713" y="0" type="line"/>
      <point x="713" y="89" type="line"/>
      <point x="765" y="89" type="line"/>
      <point x="765" y="122" type="line"/>
      <point x="713" y="122" type="line"/>
      <point x="713" y="369" type="line"/>
      <point x="661" y="369" type="line"/>
      <point x="487" y="124" type="line"/>
      <point x="487" y="89" type="line"/>
      <point x="670" y="89" type="line"/>
      <point x="670" y="0" type="line"/>
    </contour>
    <contour>
      <point x="668" y="322" type="line"/>
      <point x="668" y="122" type="line"/>
      <point x="525" y="122" type="line"/>
    </contour>
  </outline>
</glyph>
<glyph name="onehalf" format="1">
  <advance width="828"/>
  <unicode hex="00BD"/>
  <note>
	onehalf
  </note>
  <outline>
    <contour>
      <point x="655" y="670" type="line"/>
      <point x="617" y="695" type="line"/>
      <point x="142" y="8" type="line"/>
      <point x="179" y="-17" type="line"/>
    </contour>
    <contour>
      <point x="206" y="307" type="line" smooth="yes"/>
      <point x="212" y="307"/>
      <point x="214" y="311"/>
      <point x="214" y="316" type="curve" smooth="yes"/>
      <point x="214" y="326"/>
      <point x="209" y="330"/>
      <point x="194" y="331" type="curve" smooth="yes"/>
      <point x="153" y="335" type="line"/>
      <point x="153" y="676" type="line"/>
      <point x="110" y="676" type="line"/>
      <point x="45" y="653" type="line"/>
      <point x="45" y="624" type="line"/>
      <point x="107" y="644" type="line"/>
      <point x="107" y="336" type="line"/>
      <point x="60" y="336" type="line" smooth="yes"/>
      <point x="48" y="336"/>
      <point x="40" y="330"/>
      <point x="40" y="319" type="curve" smooth="yes"/>
      <point x="40" y="311"/>
      <point x="45" y="307"/>
      <point x="51" y="307" type="curve" smooth="yes"/>
    </contour>
    <contour>
      <point x="792" y="0" type="line"/>
      <point x="792" y="33" type="line"/>
      <point x="598" y="33" type="line"/>
      <point x="704" y="142" type="line" smooth="yes"/>
      <point x="750" y="190"/>
      <point x="785" y="232"/>
      <point x="785" y="277" type="curve" smooth="yes"/>
      <point x="785" y="343"/>
      <point x="736" y="377"/>
      <point x="676" y="377" type="curve" smooth="yes"/>
      <point x="633" y="377"/>
      <point x="592" y="362"/>
      <point x="555" y="338" type="curve"/>
      <point x="555" y="279" type="line" smooth="yes"/>
      <point x="555" y="271"/>
      <point x="560" y="267"/>
      <point x="567" y="267" type="curve" smooth="yes"/>
      <point x="578" y="267"/>
      <point x="582" y="273"/>
      <point x="585" y="289" type="curve" smooth="yes"/>
      <point x="592" y="322" type="line"/>
      <point x="614" y="335"/>
      <point x="642" y="344"/>
      <point x="672" y="344" type="curve" smooth="yes"/>
      <point x="710" y="344"/>
      <point x="740" y="323"/>
      <point x="740" y="278" type="curve" smooth="yes"/>
      <point x="740" y="243"/>
      <point x="711" y="206"/>
      <point x="676" y="171" type="curve" smooth="yes"/>
      <point x="546" y="37" type="line"/>
      <point x="546" y="0" type="line"/>
    </contour>
  </outline>
</glyph>
<glyph name="threequarters" format="1">
  <advance width="804"/>
  <unicode hex="00BE"/>
  <note>
	threequarters
  </note>
  <outline>
    <contour>
      <point x="663" y="670" type="line"/>
      <point x="625" y="695" type="line"/>
      <point x="150" y="8" type="line"/>
      <point x="187" y="-17" type="line"/>
    </contour>
    <contour>
      <point x="225" y="298"/>
      <point x="280" y="331"/>
      <point x="280" y="403" type="curve" smooth="yes"/>
      <point x="280" y="451"/>
      <point x="253" y="487"/>
      <point x="200" y="500" type="curve"/>
      <point x="242" y="515"/>
      <point x="267" y="547"/>
      <point x="267" y="590" type="curve" smooth="yes"/>
      <point x="267" y="656"/>
      <point x="215" y="684"/>
      <point x="158" y="684" type="curve" smooth="yes"/>
      <point x="113" y="684"/>
      <point x="68" y="667"/>
      <point x="36" y="645" type="curve"/>
      <point x="36" y="582" type="line" smooth="yes"/>
      <point x="36" y="575"/>
      <point x="40" y="571"/>
      <point x="46" y="571" type="curve" smooth="yes"/>
      <point x="56" y="571"/>
      <point x="60" y="577"/>
      <point x="63" y="592" type="curve" smooth="yes"/>
      <point x="69" y="627" type="line"/>
      <point x="92" y="642"/>
      <point x="120" y="651"/>
      <point x="152" y="651" type="curve" smooth="yes"/>
      <point x="194" y="651"/>
      <point x="225" y="632"/>
      <point x="225" y="586" type="curve" smooth="yes"/>
      <point x="225" y="538"/>
      <point x="182" y="515"/>
      <point x="137" y="510" type="curve" smooth="yes"/>
      <point x="93" y="505" type="line"/>
      <point x="93" y="473" type="line"/>
      <point x="143" y="479"/>
      <point x="147" y="479"/>
      <point x="155" y="479" type="curve" smooth="yes"/>
      <point x="205" y="479"/>
      <point x="238" y="448"/>
      <point x="238" y="406" type="curve" smooth="yes"/>
      <point x="238" y="355"/>
      <point x="202" y="331"/>
      <point x="142" y="331" type="curve" smooth="yes"/>
      <point x="106" y="331"/>
      <point x="64" y="341"/>
      <point x="30" y="355" type="curve"/>
      <point x="30" y="321" type="line"/>
      <point x="56" y="309"/>
      <point x="100" y="298"/>
      <point x="145" y="298" type="curve" smooth="yes"/>
    </contour>
    <contour>
      <point x="721" y="0" type="line"/>
      <point x="721" y="89" type="line"/>
      <point x="773" y="89" type="line"/>
      <point x="773" y="122" type="line"/>
      <point x="721" y="122" type="line"/>
      <point x="721" y="369" type="line"/>
      <point x="669" y="369" type="line"/>
      <point x="495" y="124" type="line"/>
      <point x="495" y="89" type="line"/>
      <point x="678" y="89" type="line"/>
      <point x="678" y="0" type="line"/>
    </contour>
    <contour>
      <point x="676" y="322" type="line"/>
      <point x="676" y="122" type="line"/>
      <point x="533" y="122" type="line"/>
    </contour>
  </outline>
</glyph>
<glyph name="questiondown" format="1">
  <advance width="469"/>
  <unicode hex="00BF"/>
  <note>
	questiondown
  </note>
  <outline>
    <contour>
      <point x="284" y="-227"/>
      <point x="349" y="-199"/>
      <point x="388" y="-168" type="curve"/>
      <point x="388" y="-86" type="line" smooth="yes"/>
      <point x="388" y="-80"/>
      <point x="384" y="-75"/>
      <point x="376" y="-75" type="curve" smooth="yes"/>
      <point x="365" y="-75"/>
      <point x="359" y="-83"/>
      <point x="356" y="-99" type="curve" smooth="yes"/>
      <point x="348" y="-148" type="line"/>
      <point x="314" y="-173"/>
      <point x="267" y="-187"/>
      <point x="225" y="-187" type="curve" smooth="yes"/>
      <point x="158" y="-187"/>
      <point x="112" y="-153"/>
      <point x="112" y="-87" type="curve" smooth="yes"/>
      <point x="112" y="-24"/>
      <point x="148" y="12"/>
      <point x="186" y="49" type="curve" smooth="yes"/>
      <point x="240" y="100"/>
      <point x="268" y="135"/>
      <point x="268" y="215" type="curve" smooth="yes"/>
      <point x="268" y="327" type="line"/>
      <point x="217" y="327" type="line"/>
      <point x="217" y="228" type="line" smooth="yes"/>
      <point x="217" y="149"/>
      <point x="200" y="122"/>
      <point x="148" y="75" type="curve" smooth="yes"/>
      <point x="103" y="34"/>
      <point x="56" y="-11"/>
      <point x="56" y="-89" type="curve" smooth="yes"/>
      <point x="56" y="-183"/>
      <point x="126" y="-227"/>
      <point x="221" y="-227" type="curve" smooth="yes"/>
    </contour>
    <contour>
      <point x="264" y="406"/>
      <point x="283" y="422"/>
      <point x="283" y="447" type="curve" smooth="yes"/>
      <point x="283" y="472"/>
      <point x="264" y="488"/>
      <point x="242" y="488" type="curve" smooth="yes"/>
      <point x="220" y="488"/>
      <point x="201" y="472"/>
      <point x="201" y="447" type="curve" smooth="yes"/>
      <point x="201" y="422"/>
      <point x="220" y="406"/>
      <point x="242" y="406" type="curve" smooth="yes"/>
    </contour>
  </outline>
</glyph>
<glyph name="Agrave" format="1">
  <advance width="694"/>
  <unicode hex="00C0"/>
  <note>
	Agrave
  </note>
  <outline>
    <contour>
      <point x="390" y="773" type="line"/>
      <point x="309" y="907" type="line"/>
      <point x="262" y="877" type="line"/>
      <point x="355" y="751" type="line"/>
    </contour>
    <component base="A"/>
  </outline>
</glyph>
<glyph name="Aacute" format="1">
  <advance width="694"/>
  <unicode hex="00C1"/>
  <note>
	Aacute
  </note>
  <outline>
    <contour>
      <point x="425" y="876" type="line"/>
      <point x="378" y="906" type="line"/>
      <point x="297" y="772" type="line"/>
      <point x="332" y="750" type="line"/>
    </contour>
    <component base="A"/>
  </outline>
</glyph>
<glyph name="Acircumflex" format="1">
  <advance width="694"/>
  <unicode hex="00C2"/>
  <note>
	Acircumflex
  </note>
  <outline>
    <contour>
      <point x="339" y="846" type="line"/>
      <point x="428" y="750" type="line"/>
      <point x="458" y="773" type="line"/>
      <point x="357" y="901" type="line"/>
      <point x="322" y="901" type="line"/>
      <point x="220" y="773" type="line"/>
      <point x="250" y="750" type="line"/>
    </contour>
    <component base="A"/>
  </outline>
</glyph>
<glyph name="Atilde" format="1">
  <advance width="694"/>
  <unicode hex="00C3"/>
  <note>
	Atilde
  </note>
  <outline>
    <contour>
      <point x="429" y="761"/>
      <point x="462" y="780"/>
      <point x="487" y="804" type="curve"/>
      <point x="465" y="833" type="line"/>
      <point x="443" y="817"/>
      <point x="422" y="806"/>
      <point x="398" y="806" type="curve" smooth="yes"/>
      <point x="366" y="806"/>
      <point x="327" y="839"/>
      <point x="289" y="839" type="curve" smooth="yes"/>
      <point x="259" y="839"/>
      <point x="224" y="819"/>
      <point x="199" y="796" type="curve"/>
      <point x="221" y="767" type="line"/>
      <point x="242" y="783"/>
      <point x="263" y="794"/>
      <point x="289" y="794" type="curve" smooth="yes"/>
      <point x="328" y="794"/>
      <point x="358" y="761"/>
      <point x="399" y="761" type="curve" smooth="yes"/>
    </contour>
    <component base="A"/>
  </outline>
</glyph>
<glyph name="Adieresis" format="1">
  <advance width="694"/>
  <unicode hex="00C4"/>
  <note>
	Adieresis
  </note>
  <outline>
    <contour>
      <point x="457" y="761"/>
      <point x="476" y="779"/>
      <point x="476" y="803" type="curve" smooth="yes"/>
      <point x="476" y="828"/>
      <point x="457" y="846"/>
      <point x="434" y="846" type="curve" smooth="yes"/>
      <point x="412" y="846"/>
      <point x="392" y="828"/>
      <point x="392" y="803" type="curve" smooth="yes"/>
      <point x="392" y="779"/>
      <point x="412" y="761"/>
      <point x="434" y="761" type="curve" smooth="yes"/>
    </contour>
    <contour>
      <point x="271" y="761"/>
      <point x="290" y="779"/>
      <point x="290" y="803" type="curve" smooth="yes"/>
      <point x="290" y="828"/>
      <point x="271" y="846"/>
      <point x="248" y="846" type="curve" smooth="yes"/>
      <point x="226" y="846"/>
      <point x="206" y="828"/>
      <point x="206" y="803" type="curve" smooth="yes"/>
      <point x="206" y="779"/>
      <point x="226" y="761"/>
      <point x="248" y="761" type="curve" smooth="yes"/>
    </contour>
    <component base="A"/>
  </outline>
</glyph>
<glyph name="Aring" format="1">
  <advance width="694"/>
  <unicode hex="00C5"/>
  <note>
	Aring
  </note>
  <outline>
    <contour>
      <point x="396" y="735"/>
      <point x="428" y="772"/>
      <point x="428" y="816" type="curve" smooth="yes"/>
      <point x="428" y="860"/>
      <point x="396" y="896"/>
      <point x="344" y="896" type="curve" smooth="yes"/>
      <point x="291" y="896"/>
      <point x="259" y="860"/>
      <point x="259" y="816" type="curve" smooth="yes"/>
      <point x="259" y="772"/>
      <point x="291" y="735"/>
      <point x="344" y="735" type="curve" smooth="yes"/>
    </contour>
    <contour>
      <point x="318" y="768"/>
      <point x="297" y="785"/>
      <point x="297" y="816" type="curve" smooth="yes"/>
      <point x="297" y="847"/>
      <point x="318" y="864"/>
      <point x="344" y="864" type="curve" smooth="yes"/>
      <point x="370" y="864"/>
      <point x="390" y="847"/>
      <point x="390" y="816" type="curve" smooth="yes"/>
      <point x="390" y="785"/>
      <point x="370" y="768"/>
      <point x="344" y="768" type="curve" smooth="yes"/>
    </contour>
    <component base="A"/>
  </outline>
</glyph>
<glyph name="AE" format="1">
  <advance width="1111"/>
  <unicode hex="00C6"/>
  <note>
	AE
  </note>
  <outline>
    <contour>
      <point x="210" y="0" type="line" smooth="yes"/>
      <point x="217" y="0"/>
      <point x="220" y="5"/>
      <point x="220" y="11" type="curve" smooth="yes"/>
      <point x="220" y="22"/>
      <point x="215" y="28"/>
      <point x="197" y="31" type="curve" smooth="yes"/>
      <point x="136" y="40" type="line"/>
      <point x="276" y="235" type="line"/>
      <point x="570" y="235" type="line"/>
      <point x="570" y="43" type="line"/>
      <point x="532" y="37" type="line" smooth="yes"/>
      <point x="513" y="34"/>
      <point x="502" y="27"/>
      <point x="502" y="13" type="curve" smooth="yes"/>
      <point x="502" y="5"/>
      <point x="507" y="0"/>
      <point x="513" y="0" type="curve" smooth="yes"/>
      <point x="1038" y="0" type="line"/>
      <point x="1038" y="118" type="line" smooth="yes"/>
      <point x="1038" y="125"/>
      <point x="1034" y="131"/>
      <point x="1026" y="131" type="curve" smooth="yes"/>
      <point x="1014" y="131"/>
      <point x="1006" y="122"/>
      <point x="1003" y="98" type="curve" smooth="yes"/>
      <point x="995" y="42" type="line"/>
      <point x="630" y="42" type="line"/>
      <point x="630" y="335" type="line"/>
      <point x="931" y="335" type="line"/>
      <point x="941" y="287" type="line" smooth="yes"/>
      <point x="945" y="268"/>
      <point x="951" y="262"/>
      <point x="960" y="262" type="curve" smooth="yes"/>
      <point x="968" y="262"/>
      <point x="972" y="266"/>
      <point x="972" y="273" type="curve" smooth="yes"/>
      <point x="972" y="438" type="line" smooth="yes"/>
      <point x="972" y="445"/>
      <point x="968" y="450"/>
      <point x="960" y="450" type="curve" smooth="yes"/>
      <point x="951" y="450"/>
      <point x="945" y="443"/>
      <point x="941" y="424" type="curve" smooth="yes"/>
      <point x="931" y="377" type="line"/>
      <point x="630" y="377" type="line"/>
      <point x="630" y="653" type="line"/>
      <point x="983" y="653" type="line"/>
      <point x="991" y="602" type="line" smooth="yes"/>
      <point x="995" y="578"/>
      <point x="1002" y="569"/>
      <point x="1013" y="569" type="curve" smooth="yes"/>
      <point x="1022" y="569"/>
      <point x="1025" y="574"/>
      <point x="1025" y="581" type="curve" smooth="yes"/>
      <point x="1025" y="695" type="line"/>
      <point x="455" y="695" type="line" smooth="yes"/>
      <point x="449" y="695"/>
      <point x="444" y="690"/>
      <point x="444" y="682" type="curve" smooth="yes"/>
      <point x="444" y="668"/>
      <point x="454" y="661"/>
      <point x="473" y="658" type="curve" smooth="yes"/>
      <point x="512" y="652" type="line"/>
      <point x="76" y="39" type="line"/>
      <point x="41" y="39" type="line" smooth="yes"/>
      <point x="23" y="39"/>
      <point x="13" y="31"/>
      <point x="13" y="17" type="curve" smooth="yes"/>
      <point x="13" y="7"/>
      <point x="18" y="0"/>
      <point x="26" y="0" type="curve" smooth="yes"/>
    </contour>
    <contour>
      <point x="571" y="652" type="line"/>
      <point x="571" y="277" type="line"/>
      <point x="304" y="277" type="line"/>
    </contour>
  </outline>
</glyph>
<glyph name="Ccedilla" format="1">
  <advance width="647"/>
  <unicode hex="00C7"/>
  <note>
	Ccedilla
  </note>
  <outline>
    <contour>
      <point x="368" y="-198"/>
      <point x="419" y="-163"/>
      <point x="419" y="-118" type="curve" smooth="yes"/>
      <point x="419" y="-79"/>
      <point x="395" y="-61"/>
      <point x="370" y="-50" type="curve"/>
      <point x="389" y="-11" type="line"/>
      <point x="462" y="-10"/>
      <point x="525" y="9"/>
      <point x="564" y="33" type="curve" smooth="yes"/>
      <point x="578" y="41"/>
      <point x="591" y="51"/>
      <point x="591" y="65" type="curve" smooth="yes"/>
      <point x="591" y="75"/>
      <point x="584" y="84"/>
      <point x="574" y="84" type="curve" smooth="yes"/>
      <point x="568" y="84"/>
      <point x="564" y="81"/>
      <point x="555" y="75" type="curve" smooth="yes"/>
      <point x="509" y="44"/>
      <point x="448" y="32"/>
      <point x="386" y="32" type="curve" smooth="yes"/>
      <point x="222" y="32"/>
      <point x="111" y="147"/>
      <point x="111" y="347" type="curve" smooth="yes"/>
      <point x="111" y="548"/>
      <point x="214" y="663"/>
      <point x="375" y="663" type="curve" smooth="yes"/>
      <point x="439" y="663"/>
      <point x="500" y="647"/>
      <point x="539" y="616" type="curve"/>
      <point x="552" y="547" type="line" smooth="yes"/>
      <point x="556" y="526"/>
      <point x="561" y="517"/>
      <point x="574" y="517" type="curve" smooth="yes"/>
      <point x="584" y="517"/>
      <point x="587" y="522"/>
      <point x="587" y="529" type="curve" smooth="yes"/>
      <point x="587" y="634" type="line"/>
      <point x="535" y="678"/>
      <point x="453" y="706"/>
      <point x="369" y="706" type="curve" smooth="yes"/>
      <point x="185" y="706"/>
      <point x="50" y="584"/>
      <point x="50" y="347" type="curve" smooth="yes"/>
      <point x="50" y="126"/>
      <point x="172" y="5"/>
      <point x="347" y="-10" type="curve"/>
      <point x="327" y="-62" type="line"/>
      <point x="362" y="-73"/>
      <point x="374" y="-91"/>
      <point x="374" y="-117" type="curve" smooth="yes"/>
      <point x="374" y="-145"/>
      <point x="351" y="-171"/>
      <point x="305" y="-186" type="curve"/>
      <point x="315" y="-211" type="line"/>
    </contour>
  </outline>
</glyph>
<glyph name="Iacute" format="1">
  <advance width="334"/>
  <unicode hex="00CD"/>
  <note>
	Iacute
  </note>
  <outline>
    <contour>
      <point x="259" y="0" type="line" smooth="yes"/>
      <point x="267" y="0"/>
      <point x="268" y="5"/>
      <point x="268" y="11" type="curve" smooth="yes"/>
      <point x="268" y="21"/>
      <point x="264" y="28"/>
      <point x="246" y="31" type="curve" smooth="yes"/>
      <point x="192" y="40" type="line"/>
      <point x="192" y="655" type="line"/>
      <point x="246" y="664" type="line" smooth="yes"/>
      <point x="262" y="667"/>
      <point x="268" y="674"/>
      <point x="268" y="684" type="curve" smooth="yes"/>
      <point x="268" y="690"/>
      <point x="267" y="695"/>
      <point x="259" y="695" type="curve" smooth="yes"/>
      <point x="94" y="695" type="line" smooth="yes"/>
      <point x="76" y="695"/>
      <point x="66" y="687"/>
      <point x="66" y="673" type="curve" smooth="yes"/>
      <point x="66" y="663"/>
      <point x="71" y="656"/>
      <point x="79" y="656" type="curve" smooth="yes"/>
      <point x="132" y="656" type="line"/>
      <point x="132" y="39" type="line"/>
      <point x="95" y="39" type="line" smooth="yes"/>
      <point x="77" y="39"/>
      <point x="66" y="31"/>
      <point x="66" y="17" type="curve" smooth="yes"/>
      <point x="66" y="7"/>
      <point x="71" y="0"/>
      <point x="79" y="0" type="curve" smooth="yes"/>
    </contour>
    <contour>
      <point x="240" y="877" type="line"/>
      <point x="193" y="907" type="line"/>
      <point x="112" y="773" type="line"/>
      <point x="147" y="751" type="line"/>
    </contour>
  </outline>
</glyph>
<glyph name="Icircumflex" format="1">
  <advance width="323"/>
  <unicode hex="00CE"/>
  <note>
	Icircumflex
  </note>
  <outline>
    <contour>
      <point x="256" y="0" type="line" smooth="yes"/>
      <point x="264" y="0"/>
      <point x="265" y="5"/>
      <point x="265" y="11" type="curve" smooth="yes"/>
      <point x="265" y="21"/>
      <point x="261" y="28"/>
      <point x="243" y="31" type="curve" smooth="yes"/>
      <point x="189" y="40" type="line"/>
      <point x="189" y="655" type="line"/>
      <point x="243" y="664" type="line" smooth="yes"/>
      <point x="259" y="667"/>
      <point x="265" y="674"/>
      <point x="265" y="684" type="curve" smooth="yes"/>
      <point x="265" y="690"/>
      <point x="264" y="695"/>
      <point x="256" y="695" type="curve" smooth="yes"/>
      <point x="91" y="695" type="line" smooth="yes"/>
      <point x="73" y="695"/>
      <point x="63" y="687"/>
      <point x="63" y="673" type="curve" smooth="yes"/>
      <point x="63" y="663"/>
      <point x="68" y="656"/>
      <point x="76" y="656" type="curve" smooth="yes"/>
      <point x="129" y="656" type="line"/>
      <point x="129" y="39" type="line"/>
      <point x="92" y="39" type="line" smooth="yes"/>
      <point x="74" y="39"/>
      <point x="63" y="31"/>
      <point x="63" y="17" type="curve" smooth="yes"/>
      <point x="63" y="7"/>
      <point x="68" y="0"/>
      <point x="76" y="0" type="curve" smooth="yes"/>
    </contour>
    <contour>
      <point x="161" y="846" type="line"/>
      <point x="250" y="750" type="line"/>
      <point x="280" y="773" type="line"/>
      <point x="179" y="901" type="line"/>
      <point x="144" y="901" type="line"/>
      <point x="42" y="773" type="line"/>
      <point x="72" y="750" type="line"/>
    </contour>
  </outline>
</glyph>
<glyph name="Idieresis" format="1">
  <advance width="324"/>
  <unicode hex="00CF"/>
  <note>
	Idieresis
  </note>
  <outline>
    <contour>
      <point x="258" y="0" type="line" smooth="yes"/>
      <point x="266" y="0"/>
      <point x="267" y="5"/>
      <point x="267" y="11" type="curve" smooth="yes"/>
      <point x="267" y="21"/>
      <point x="263" y="28"/>
      <point x="245" y="31" type="curve" smooth="yes"/>
      <point x="191" y="40" type="line"/>
      <point x="191" y="655" type="line"/>
      <point x="245" y="664" type="line" smooth="yes"/>
      <point x="261" y="667"/>
      <point x="267" y="674"/>
      <point x="267" y="684" type="curve" smooth="yes"/>
      <point x="267" y="690"/>
      <point x="266" y="695"/>
      <point x="258" y="695" type="curve" smooth="yes"/>
      <point x="93" y="695" type="line" smooth="yes"/>
      <point x="75" y="695"/>
      <point x="65" y="687"/>
      <point x="65" y="673" type="curve" smooth="yes"/>
      <point x="65" y="663"/>
      <point x="70" y="656"/>
      <point x="78" y="656" type="curve" smooth="yes"/>
      <point x="131" y="656" type="line"/>
      <point x="131" y="39" type="line"/>
      <point x="94" y="39" type="line" smooth="yes"/>
      <point x="76" y="39"/>
      <point x="65" y="31"/>
      <point x="65" y="17" type="curve" smooth="yes"/>
      <point x="65" y="7"/>
      <point x="70" y="0"/>
      <point x="78" y="0" type="curve" smooth="yes"/>
    </contour>
    <contour>
      <point x="92" y="761"/>
      <point x="111" y="779"/>
      <point x="111" y="803" type="curve" smooth="yes"/>
      <point x="111" y="828"/>
      <point x="92" y="846"/>
      <point x="69" y="846" type="curve" smooth="yes"/>
      <point x="47" y="846"/>
      <point x="27" y="828"/>
      <point x="27" y="803" type="curve" smooth="yes"/>
      <point x="27" y="779"/>
      <point x="47" y="761"/>
      <point x="69" y="761" type="curve" smooth="yes"/>
    </contour>
    <contour>
      <point x="278" y="761"/>
      <point x="297" y="779"/>
      <point x="297" y="803" type="curve" smooth="yes"/>
      <point x="297" y="828"/>
      <point x="278" y="846"/>
      <point x="255" y="846" type="curve" smooth="yes"/>
      <point x="233" y="846"/>
      <point x="213" y="828"/>
      <point x="213" y="803" type="curve" smooth="yes"/>
      <point x="213" y="779"/>
      <point x="233" y="761"/>
      <point x="255" y="761" type="curve" smooth="yes"/>
    </contour>
  </outline>
</glyph>
<glyph name="Eth" format="1">
  <advance width="728"/>
  <unicode hex="00D0"/>
  <note>
	Eth
  </note>
  <outline>
    <contour>
      <point x="351" y="0" type="line" smooth="yes"/>
      <point x="538" y="0"/>
      <point x="678" y="110"/>
      <point x="678" y="347" type="curve" smooth="yes"/>
      <point x="678" y="584"/>
      <point x="538" y="695"/>
      <point x="351" y="695" type="curve" smooth="yes"/>
      <point x="74" y="695" type="line" smooth="yes"/>
      <point x="68" y="695"/>
      <point x="63" y="690"/>
      <point x="63" y="682" type="curve" smooth="yes"/>
      <point x="63" y="668"/>
      <point x="73" y="661"/>
      <point x="93" y="658" type="curve" smooth="yes"/>
      <point x="131" y="652" type="line"/>
      <point x="131" y="376" type="line"/>
      <point x="65" y="376" type="line"/>
      <point x="65" y="332" type="line"/>
      <point x="131" y="332" type="line"/>
      <point x="131" y="43" type="line"/>
      <point x="93" y="37" type="line" smooth="yes"/>
      <point x="73" y="34"/>
      <point x="63" y="27"/>
      <point x="63" y="13" type="curve" smooth="yes"/>
      <point x="63" y="5"/>
      <point x="68" y="0"/>
      <point x="74" y="0" type="curve" smooth="yes"/>
    </contour>
    <contour>
      <point x="191" y="332" type="line"/>
      <point x="389" y="332" type="line"/>
      <point x="389" y="376" type="line"/>
      <point x="191" y="376" type="line"/>
      <point x="191" y="652" type="line"/>
      <point x="350" y="652" type="line" smooth="yes"/>
      <point x="513" y="652"/>
      <point x="616" y="542"/>
      <point x="616" y="347" type="curve" smooth="yes"/>
      <point x="616" y="152"/>
      <point x="513" y="43"/>
      <point x="350" y="43" type="curve" smooth="yes"/>
      <point x="191" y="43" type="line"/>
    </contour>
  </outline>
</glyph>
<glyph name="Ntilde" format="1">
  <advance width="777"/>
  <unicode hex="00D1"/>
  <note>
	Ntilde
  </note>
  <outline>
    <contour>
      <point x="246" y="0" type="line" smooth="yes"/>
      <point x="254" y="0"/>
      <point x="256" y="5"/>
      <point x="256" y="11" type="curve" smooth="yes"/>
      <point x="256" y="21"/>
      <point x="251" y="28"/>
      <point x="234" y="31" type="curve" smooth="yes"/>
      <point x="178" y="40" type="line"/>
      <point x="178" y="613" type="line"/>
      <point x="193" y="580"/>
      <point x="206" y="557"/>
      <point x="223" y="532" type="curve" smooth="yes"/>
      <point x="593" y="0" type="line"/>
      <point x="648" y="0" type="line"/>
      <point x="648" y="655" type="line"/>
      <point x="695" y="664" type="line" smooth="yes"/>
      <point x="711" y="667"/>
      <point x="719" y="674"/>
      <point x="719" y="684" type="curve" smooth="yes"/>
      <point x="719" y="690"/>
      <point x="717" y="695"/>
      <point x="709" y="695" type="curve" smooth="yes"/>
      <point x="553" y="695" type="line" smooth="yes"/>
      <point x="535" y="695"/>
      <point x="525" y="687"/>
      <point x="525" y="673" type="curve" smooth="yes"/>
      <point x="525" y="663"/>
      <point x="530" y="656"/>
      <point x="538" y="656" type="curve" smooth="yes"/>
      <point x="598" y="656" type="line"/>
      <point x="598" y="80" type="line"/>
      <point x="583" y="113"/>
      <point x="568" y="141"/>
      <point x="549" y="169" type="curve" smooth="yes"/>
      <point x="184" y="695" type="line"/>
      <point x="74" y="695" type="line" smooth="yes"/>
      <point x="67" y="695"/>
      <point x="61" y="691"/>
      <point x="61" y="681" type="curve" smooth="yes"/>
      <point x="61" y="667"/>
      <point x="70" y="660"/>
      <point x="90" y="657" type="curve" smooth="yes"/>
      <point x="128" y="651" type="line"/>
      <point x="128" y="39" type="line"/>
      <point x="91" y="39" type="line" smooth="yes"/>
      <point x="73" y="39"/>
      <point x="62" y="31"/>
      <point x="62" y="17" type="curve" smooth="yes"/>
      <point x="62" y="7"/>
      <point x="67" y="0"/>
      <point x="75" y="0" type="curve" smooth="yes"/>
    </contour>
    <contour>
      <point x="469" y="761"/>
      <point x="502" y="780"/>
      <point x="527" y="804" type="curve"/>
      <point x="505" y="833" type="line"/>
      <point x="483" y="817"/>
      <point x="462" y="806"/>
      <point x="438" y="806" type="curve" smooth="yes"/>
      <point x="406" y="806"/>
      <point x="367" y="839"/>
      <point x="329" y="839" type="curve" smooth="yes"/>
      <point x="299" y="839"/>
      <point x="264" y="819"/>
      <point x="239" y="796" type="curve"/>
      <point x="261" y="767" type="line"/>
      <point x="283" y="783"/>
      <point x="303" y="794"/>
      <point x="329" y="794" type="curve" smooth="yes"/>
      <point x="368" y="794"/>
      <point x="398" y="761"/>
      <point x="439" y="761" type="curve" smooth="yes"/>
    </contour>
  </outline>
</glyph>
<glyph name="Otilde" format="1">
  <advance width="729"/>
  <unicode hex="00D5"/>
  <note>
	Otilde
  </note>
  <outline>
    <contour>
      <point x="552" y="-11"/>
      <point x="676" y="108"/>
      <point x="676" y="346" type="curve" smooth="yes"/>
      <point x="676" y="585"/>
      <point x="552" y="706"/>
      <point x="364" y="706" type="curve" smooth="yes"/>
      <point x="176" y="706"/>
      <point x="53" y="585"/>
      <point x="53" y="346" type="curve" smooth="yes"/>
      <point x="53" y="108"/>
      <point x="176" y="-11"/>
      <point x="364" y="-11" type="curve" smooth="yes"/>
    </contour>
    <contour>
      <point x="203" y="32"/>
      <point x="114" y="148"/>
      <point x="114" y="346" type="curve" smooth="yes"/>
      <point x="114" y="545"/>
      <point x="203" y="663"/>
      <point x="364" y="663" type="curve" smooth="yes"/>
      <point x="525" y="663"/>
      <point x="614" y="545"/>
      <point x="614" y="346" type="curve" smooth="yes"/>
      <point x="614" y="148"/>
      <point x="525" y="32"/>
      <point x="364" y="32" type="curve" smooth="yes"/>
    </contour>
    <contour>
      <point x="451" y="761"/>
      <point x="484" y="780"/>
      <point x="509" y="804" type="curve"/>
      <point x="487" y="833" type="line"/>
      <point x="465" y="817"/>
      <point x="444" y="806"/>
      <point x="420" y="806" type="curve" smooth="yes"/>
      <point x="388" y="806"/>
      <point x="349" y="839"/>
      <point x="311" y="839" type="curve" smooth="yes"/>
      <point x="281" y="839"/>
      <point x="246" y="819"/>
      <point x="221" y="796" type="curve"/>
      <point x="243" y="767" type="line"/>
      <point x="265" y="783"/>
      <point x="285" y="794"/>
      <point x="311" y="794" type="curve" smooth="yes"/>
      <point x="350" y="794"/>
      <point x="380" y="761"/>
      <point x="421" y="761" type="curve" smooth="yes"/>
    </contour>
  </outline>
</glyph>
<glyph name="multiply" format="1">
  <advance width="583"/>
  <unicode hex="00D7"/>
  <note>
	multiply
  </note>
  <outline>
    <contour>
      <point x="288" y="310" type="line"/>
      <point x="473" y="121" type="line"/>
      <point x="513" y="159" type="line"/>
      <point x="327" y="350" type="line"/>
      <point x="513" y="540" type="line"/>
      <point x="473" y="578" type="line"/>
      <point x="288" y="389" type="line"/>
      <point x="103" y="578" type="line"/>
      <point x="62" y="540" type="line"/>
      <point x="249" y="350" type="line"/>
      <point x="62" y="159" type="line"/>
      <point x="103" y="121" type="line"/>
    </contour>
  </outline>
</glyph>
<glyph name="Ugrave" format="1">
  <advance width="769"/>
  <unicode hex="00D9"/>
  <note>
	Ugrave
  </note>
  <outline>
    <contour>
      <point x="443" y="773" type="line"/>
      <point x="362" y="907" type="line"/>
      <point x="315" y="877" type="line"/>
      <point x="408" y="751" type="line"/>
    </contour>
    <component base="U"/>
  </outline>
</glyph>
<glyph name="Uacute" format="1">
  <advance width="769"/>
  <unicode hex="00DA"/>
  <note>
	Uacute
  </note>
  <outline>
    <contour>
      <point x="454" y="876" type="line"/>
      <point x="407" y="906" type="line"/>
      <point x="326" y="772" type="line"/>
      <point x="361" y="750" type="line"/>
    </contour>
    <component base="U"/>
  </outline>
</glyph>
<glyph name="Ucircumflex" format="1">
  <advance width="769"/>
  <unicode hex="00DB"/>
  <note>
	Ucircumflex
  </note>
  <outline>
    <contour>
      <point x="386" y="846" type="line"/>
      <point x="475" y="750" type="line"/>
      <point x="505" y="773" type="line"/>
      <point x="404" y="901" type="line"/>
      <point x="369" y="901" type="line"/>
      <point x="267" y="773" type="line"/>
      <point x="297" y="750" type="line"/>
    </contour>
    <component base="U"/>
  </outline>
</glyph>
<glyph name="Udieresis" format="1">
  <advance width="769"/>
  <unicode hex="00DC"/>
  <note>
	Udieresis
  </note>
  <outline>
    <contour>
      <point x="316" y="761"/>
      <point x="335" y="779"/>
      <point x="335" y="803" type="curve" smooth="yes"/>
      <point x="335" y="828"/>
      <point x="316" y="846"/>
      <point x="293" y="846" type="curve" smooth="yes"/>
      <point x="271" y="846"/>
      <point x="251" y="828"/>
      <point x="251" y="803" type="curve" smooth="yes"/>
      <point x="251" y="779"/>
      <point x="271" y="761"/>
      <point x="293" y="761" type="curve" smooth="yes"/>
    </contour>
    <contour>
      <point x="502" y="761"/>
      <point x="521" y="779"/>
      <point x="521" y="803" type="curve" smooth="yes"/>
      <point x="521" y="828"/>
      <point x="502" y="846"/>
      <point x="479" y="846" type="curve" smooth="yes"/>
      <point x="457" y="846"/>
      <point x="437" y="828"/>
      <point x="437" y="803" type="curve" smooth="yes"/>
      <point x="437" y="779"/>
      <point x="457" y="761"/>
      <point x="479" y="761" type="curve" smooth="yes"/>
    </contour>
    <component base="U"/>
  </outline>
</glyph>
<glyph name="Thorn" format="1">
  <advance width="636"/>
  <unicode hex="00DE"/>
  <note>
	Thorn
  </note>
  <outline>
    <contour>
      <point x="254" y="0" type="line" smooth="yes"/>
      <point x="262" y="0"/>
      <point x="263" y="5"/>
      <point x="263" y="11" type="curve" smooth="yes"/>
      <point x="263" y="21"/>
      <point x="257" y="28"/>
      <point x="241" y="31" type="curve" smooth="yes"/>
      <point x="187" y="40" type="line"/>
      <point x="187" y="154" type="line"/>
      <point x="232" y="140"/>
      <point x="279" y="134"/>
      <point x="323" y="134" type="curve" smooth="yes"/>
      <point x="472" y="134"/>
      <point x="578" y="207"/>
      <point x="578" y="352" type="curve" smooth="yes"/>
      <point x="578" y="497"/>
      <point x="472" y="570"/>
      <point x="323" y="570" type="curve" smooth="yes"/>
      <point x="279" y="570"/>
      <point x="232" y="564"/>
      <point x="187" y="550" type="curve"/>
      <point x="187" y="655" type="line"/>
      <point x="241" y="664" type="line" smooth="yes"/>
      <point x="256" y="667"/>
      <point x="263" y="674"/>
      <point x="263" y="684" type="curve" smooth="yes"/>
      <point x="263" y="690"/>
      <point x="262" y="695"/>
      <point x="254" y="695" type="curve" smooth="yes"/>
      <point x="89" y="695" type="line" smooth="yes"/>
      <point x="71" y="695"/>
      <point x="61" y="687"/>
      <point x="61" y="673" type="curve" smooth="yes"/>
      <point x="61" y="663"/>
      <point x="66" y="656"/>
      <point x="74" y="656" type="curve" smooth="yes"/>
      <point x="127" y="656" type="line"/>
      <point x="127" y="39" type="line"/>
      <point x="90" y="39" type="line" smooth="yes"/>
      <point x="72" y="39"/>
      <point x="61" y="31"/>
      <point x="61" y="17" type="curve" smooth="yes"/>
      <point x="61" y="7"/>
      <point x="66" y="0"/>
      <point x="74" y="0" type="curve" smooth="yes"/>
    </contour>
    <contour>
      <point x="282" y="176"/>
      <point x="241" y="181"/>
      <point x="187" y="198" type="curve"/>
      <point x="187" y="507" type="line"/>
      <point x="241" y="524"/>
      <point x="282" y="529"/>
      <point x="323" y="529" type="curve" smooth="yes"/>
      <point x="433" y="529"/>
      <point x="517" y="475"/>
      <point x="517" y="352" type="curve" smooth="yes"/>
      <point x="517" y="229"/>
      <point x="433" y="176"/>
      <point x="323" y="176" type="curve" smooth="yes"/>
    </contour>
  </outline>
</glyph>
<glyph name="germandbls" format="1">
  <advance width="672"/>
  <unicode hex="00DF"/>
  <note>
	germandbls
  </note>
  <outline>
    <contour>
      <point x="549" y="-11"/>
      <point x="608" y="59"/>
      <point x="608" y="136" type="curve" smooth="yes"/>
      <point x="608" y="265"/>
      <point x="465" y="299"/>
      <point x="465" y="383" type="curve" smooth="yes"/>
      <point x="465" y="452"/>
      <point x="547" y="485"/>
      <point x="547" y="573" type="curve" smooth="yes"/>
      <point x="547" y="651"/>
      <point x="462" y="720"/>
      <point x="345" y="720" type="curve" smooth="yes"/>
      <point x="207" y="720"/>
      <point x="128" y="644"/>
      <point x="128" y="511" type="curve" smooth="yes"/>
      <point x="128" y="37" type="line"/>
      <point x="89" y="37" type="line" smooth="yes"/>
      <point x="73" y="37"/>
      <point x="61" y="31"/>
      <point x="61" y="16" type="curve" smooth="yes"/>
      <point x="61" y="6"/>
      <point x="67" y="0"/>
      <point x="74" y="0" type="curve" smooth="yes"/>
      <point x="185" y="0" type="line"/>
      <point x="185" y="516" type="line" smooth="yes"/>
      <point x="185" y="619"/>
      <point x="237" y="677"/>
      <point x="343" y="677" type="curve" smooth="yes"/>
      <point x="428" y="677"/>
      <point x="489" y="630"/>
      <point x="489" y="565" type="curve" smooth="yes"/>
      <point x="489" y="490"/>
      <point x="410" y="465"/>
      <point x="410" y="383" type="curve" smooth="yes"/>
      <point x="410" y="281"/>
      <point x="550" y="249"/>
      <point x="550" y="139" type="curve" smooth="yes"/>
      <point x="550" y="81"/>
      <point x="510" y="31"/>
      <point x="431" y="31" type="curve" smooth="yes"/>
      <point x="393" y="31"/>
      <point x="343" y="40"/>
      <point x="313" y="66" type="curve"/>
      <point x="305" y="113" type="line" smooth="yes"/>
      <point x="302" y="130"/>
      <point x="297" y="138"/>
      <point x="286" y="138" type="curve" smooth="yes"/>
      <point x="278" y="138"/>
      <point x="274" y="133"/>
      <point x="274" y="127" type="curve" smooth="yes"/>
      <point x="274" y="39" type="line"/>
      <point x="313" y="6"/>
      <point x="379" y="-11"/>
      <point x="434" y="-11" type="curve" smooth="yes"/>
    </contour>
  </outline>
</glyph>
<glyph name="agrave" format="1">
  <advance width="518"/>
  <unicode hex="00E0"/>
  <note>
	agrave
  </note>
  <outline>
    <contour>
      <point x="316" y="580" type="line"/>
      <point x="235" y="714" type="line"/>
      <point x="188" y="684" type="line"/>
      <point x="281" y="558" type="line"/>
    </contour>
    <component base="a"/>
  </outline>
</glyph>
